  0
SECTION
  2
HEADER
  9
$ANGBASE
  50
0.0
  9
$ANGDIR
  70
1
  9
$MEASUREMENT
  70
0
  0
ENDSEC
  0
SECTION
  2
TABLES
  0
TABLE
  2
LTYPE
  70
4
  0
LTYPE
  5
40F
  2
CONTINUOUS
  70
0
  3
Solid line
  72
65
  73
0
  40
0.0
  0
LTYPE
  5
410
  2
DASHDOT
 70
0
  3
Dash Dot ____ _ ____ _
 72
65
 73
4
 40
2.0
 49
1.25
 49
-0.25
 49
0.25
 49
-0.25
  0
LTYPE
  5
411
  2
DASHED
 70
0
  3
Dashed __ __ __ __ __
 72
65
 73
2
 40
0.75
 49
0.5
 49
-0.25
  0
LTYPE
  5
43B
  2
DOTTED
 70
0
  3
Dotted .  .  .  .
 72
65
 73
2
 40
0.2
 49
0.0
 49
-0.2
  0
ENDTAB
  0
TABLE
  2
STYLE
  70
4
  0
STYLE
  2
KICAD
  70
0
  40
0
  41
1
  42
1
  50
0
  71
0
  3
isocp.shx
  0
STYLE
  2
KICADB
  70
0
  40
0
  41
1
  42
1
  50
0
  71
0
  3
isocp.shx
  0
STYLE
  2
KICADI
  70
0
  40
0
  41
1
  42
1
  50
15
  71
0
  3
isocp.shx
  0
STYLE
  2
KICADBI
  70
0
  40
0
  41
1
  42
1
  50
15
  71
0
  3
isocp.shx
  0
ENDTAB
  0
TABLE
  2
LAYER
  70
1
  0
LAYER
  2
BLACK
  70
0
  62
7
  6
CONTINUOUS
  0
ENDTAB
  0
ENDSEC
  0
SECTION
  2
ENTITIES
0
LINE
8
BLACK
6
CONTINUOUS
10
1.6503
20
-4.57324
11
1.65502
21
-4.57626
0
LINE
8
BLACK
6
CONTINUOUS
10
1.65502
20
-4.57626
11
1.65869
21
-4.5805
0
LINE
8
BLACK
6
CONTINUOUS
10
1.65869
20
-4.5805
11
1.66101
21
-4.5856
0
LINE
8
BLACK
6
CONTINUOUS
10
1.66101
20
-4.5856
11
1.66181
21
-4.59114
0
LINE
8
BLACK
6
CONTINUOUS
10
1.66181
20
-4.59114
11
1.66181
21
-4.62264
0
LINE
8
BLACK
6
CONTINUOUS
10
1.66181
20
-4.62264
11
1.66101
21
-4.62818
0
LINE
8
BLACK
6
CONTINUOUS
10
1.66101
20
-4.62818
11
1.65869
21
-4.63328
0
LINE
8
BLACK
6
CONTINUOUS
10
1.65869
20
-4.63328
11
1.65502
21
-4.63751
0
LINE
8
BLACK
6
CONTINUOUS
10
1.65502
20
-4.63751
11
1.6503
21
-4.64054
0
LINE
8
BLACK
6
CONTINUOUS
10
1.6503
20
-4.64054
11
1.64493
21
-4.64212
0
LINE
8
BLACK
6
CONTINUOUS
10
1.64493
20
-4.64212
11
1.63932
21
-4.64212
0
LINE
8
BLACK
6
CONTINUOUS
10
1.63932
20
-4.64212
11
1.63395
21
-4.64054
0
LINE
8
BLACK
6
CONTINUOUS
10
1.63395
20
-4.64054
11
1.62924
21
-4.63751
0
LINE
8
BLACK
6
CONTINUOUS
10
1.62924
20
-4.63751
11
1.62557
21
-4.63328
0
LINE
8
BLACK
6
CONTINUOUS
10
1.62557
20
-4.63328
11
1.62324
21
-4.62818
0
LINE
8
BLACK
6
CONTINUOUS
10
1.62324
20
-4.62818
11
1.62244
21
-4.62264
0
LINE
8
BLACK
6
CONTINUOUS
10
1.62244
20
-4.62264
11
1.62244
21
-4.59114
0
LINE
8
BLACK
6
CONTINUOUS
10
1.62244
20
-4.59114
11
1.62324
21
-4.5856
0
LINE
8
BLACK
6
CONTINUOUS
10
1.62324
20
-4.5856
11
1.62557
21
-4.5805
0
LINE
8
BLACK
6
CONTINUOUS
10
1.62557
20
-4.5805
11
1.62924
21
-4.57626
0
LINE
8
BLACK
6
CONTINUOUS
10
1.62924
20
-4.57626
11
1.63395
21
-4.57324
0
LINE
8
BLACK
6
CONTINUOUS
10
1.63395
20
-4.57324
11
1.63932
21
-4.57166
0
LINE
8
BLACK
6
CONTINUOUS
10
1.63932
20
-4.57166
11
1.64493
21
-4.57166
0
LINE
8
BLACK
6
CONTINUOUS
10
1.64493
20
-4.57166
11
1.6503
21
-4.57324
0
LINE
8
BLACK
6
CONTINUOUS
10
1.99046
20
-4.57324
11
1.99517
21
-4.57626
0
LINE
8
BLACK
6
CONTINUOUS
10
1.99517
20
-4.57626
11
1.99884
21
-4.5805
0
LINE
8
BLACK
6
CONTINUOUS
10
1.99884
20
-4.5805
11
2.00117
21
-4.5856
0
LINE
8
BLACK
6
CONTINUOUS
10
2.00117
20
-4.5856
11
2.00197
21
-4.59114
0
LINE
8
BLACK
6
CONTINUOUS
10
2.00197
20
-4.59114
11
2.00197
21
-4.62264
0
LINE
8
BLACK
6
CONTINUOUS
10
2.00197
20
-4.62264
11
2.00117
21
-4.62818
0
LINE
8
BLACK
6
CONTINUOUS
10
2.00117
20
-4.62818
11
1.99884
21
-4.63328
0
LINE
8
BLACK
6
CONTINUOUS
10
1.99884
20
-4.63328
11
1.99517
21
-4.63751
0
LINE
8
BLACK
6
CONTINUOUS
10
1.99517
20
-4.63751
11
1.99046
21
-4.64054
0
LINE
8
BLACK
6
CONTINUOUS
10
1.99046
20
-4.64054
11
1.98508
21
-4.64212
0
LINE
8
BLACK
6
CONTINUOUS
10
1.98508
20
-4.64212
11
1.97948
21
-4.64212
0
LINE
8
BLACK
6
CONTINUOUS
10
1.97948
20
-4.64212
11
1.97411
21
-4.64054
0
LINE
8
BLACK
6
CONTINUOUS
10
1.97411
20
-4.64054
11
1.96939
21
-4.63751
0
LINE
8
BLACK
6
CONTINUOUS
10
1.96939
20
-4.63751
11
1.96572
21
-4.63328
0
LINE
8
BLACK
6
CONTINUOUS
10
1.96572
20
-4.63328
11
1.9634
21
-4.62818
0
LINE
8
BLACK
6
CONTINUOUS
10
1.9634
20
-4.62818
11
1.9626
21
-4.62264
0
LINE
8
BLACK
6
CONTINUOUS
10
1.9626
20
-4.62264
11
1.9626
21
-4.59114
0
LINE
8
BLACK
6
CONTINUOUS
10
1.9626
20
-4.59114
11
1.9634
21
-4.5856
0
LINE
8
BLACK
6
CONTINUOUS
10
1.9634
20
-4.5856
11
1.96572
21
-4.5805
0
LINE
8
BLACK
6
CONTINUOUS
10
1.96572
20
-4.5805
11
1.96939
21
-4.57626
0
LINE
8
BLACK
6
CONTINUOUS
10
1.96939
20
-4.57626
11
1.97411
21
-4.57324
0
LINE
8
BLACK
6
CONTINUOUS
10
1.97411
20
-4.57324
11
1.97948
21
-4.57166
0
LINE
8
BLACK
6
CONTINUOUS
10
1.97948
20
-4.57166
11
1.98508
21
-4.57166
0
LINE
8
BLACK
6
CONTINUOUS
10
1.98508
20
-4.57166
11
1.99046
21
-4.57324
0
LINE
8
BLACK
6
CONTINUOUS
10
2.37443
20
-4.39722
11
2.38485
21
-4.39949
0
LINE
8
BLACK
6
CONTINUOUS
10
2.38485
20
-4.39949
11
2.39485
21
-4.40322
0
LINE
8
BLACK
6
CONTINUOUS
10
2.39485
20
-4.40322
11
2.40422
21
-4.40833
0
LINE
8
BLACK
6
CONTINUOUS
10
2.40422
20
-4.40833
11
2.41277
21
-4.41473
0
LINE
8
BLACK
6
CONTINUOUS
10
2.41277
20
-4.41473
11
2.42031
21
-4.42227
0
LINE
8
BLACK
6
CONTINUOUS
10
2.42031
20
-4.42227
11
2.42671
21
-4.43082
0
LINE
8
BLACK
6
CONTINUOUS
10
2.42671
20
-4.43082
11
2.43182
21
-4.44019
0
LINE
8
BLACK
6
CONTINUOUS
10
2.43182
20
-4.44019
11
2.43555
21
-4.45019
0
LINE
8
BLACK
6
CONTINUOUS
10
2.43555
20
-4.45019
11
2.43782
21
-4.46061
0
LINE
8
BLACK
6
CONTINUOUS
10
2.43782
20
-4.46061
11
2.43858
21
-4.47126
0
LINE
8
BLACK
6
CONTINUOUS
10
2.43858
20
-4.47126
11
2.43782
21
-4.48191
0
LINE
8
BLACK
6
CONTINUOUS
10
2.43782
20
-4.48191
11
2.43555
21
-4.49233
0
LINE
8
BLACK
6
CONTINUOUS
10
2.43555
20
-4.49233
11
2.43182
21
-4.50233
0
LINE
8
BLACK
6
CONTINUOUS
10
2.43182
20
-4.50233
11
2.42671
21
-4.5117
0
LINE
8
BLACK
6
CONTINUOUS
10
2.42671
20
-4.5117
11
2.42031
21
-4.52025
0
LINE
8
BLACK
6
CONTINUOUS
10
2.42031
20
-4.52025
11
2.41277
21
-4.52779
0
LINE
8
BLACK
6
CONTINUOUS
10
2.41277
20
-4.52779
11
2.40422
21
-4.53419
0
LINE
8
BLACK
6
CONTINUOUS
10
2.40422
20
-4.53419
11
2.39485
21
-4.5393
0
LINE
8
BLACK
6
CONTINUOUS
10
2.39485
20
-4.5393
11
2.38485
21
-4.54303
0
LINE
8
BLACK
6
CONTINUOUS
10
2.38485
20
-4.54303
11
2.37443
21
-4.5453
0
LINE
8
BLACK
6
CONTINUOUS
10
2.37443
20
-4.5453
11
2.36378
21
-4.54606
0
LINE
8
BLACK
6
CONTINUOUS
10
2.36378
20
-4.54606
11
2.35313
21
-4.5453
0
LINE
8
BLACK
6
CONTINUOUS
10
2.35313
20
-4.5453
11
2.34271
21
-4.54303
0
LINE
8
BLACK
6
CONTINUOUS
10
2.34271
20
-4.54303
11
2.33271
21
-4.5393
0
LINE
8
BLACK
6
CONTINUOUS
10
2.33271
20
-4.5393
11
2.32334
21
-4.53419
0
LINE
8
BLACK
6
CONTINUOUS
10
2.32334
20
-4.53419
11
2.31479
21
-4.52779
0
LINE
8
BLACK
6
CONTINUOUS
10
2.31479
20
-4.52779
11
2.30725
21
-4.52025
0
LINE
8
BLACK
6
CONTINUOUS
10
2.30725
20
-4.52025
11
2.30085
21
-4.5117
0
LINE
8
BLACK
6
CONTINUOUS
10
2.30085
20
-4.5117
11
2.29574
21
-4.50233
0
LINE
8
BLACK
6
CONTINUOUS
10
2.29574
20
-4.50233
11
2.29201
21
-4.49233
0
LINE
8
BLACK
6
CONTINUOUS
10
2.29201
20
-4.49233
11
2.28974
21
-4.48191
0
LINE
8
BLACK
6
CONTINUOUS
10
2.28974
20
-4.48191
11
2.28898
21
-4.47126
0
LINE
8
BLACK
6
CONTINUOUS
10
2.28898
20
-4.47126
11
2.28974
21
-4.46061
0
LINE
8
BLACK
6
CONTINUOUS
10
2.28974
20
-4.46061
11
2.29201
21
-4.45019
0
LINE
8
BLACK
6
CONTINUOUS
10
2.29201
20
-4.45019
11
2.29574
21
-4.44019
0
LINE
8
BLACK
6
CONTINUOUS
10
2.29574
20
-4.44019
11
2.30085
21
-4.43082
0
LINE
8
BLACK
6
CONTINUOUS
10
2.30085
20
-4.43082
11
2.30725
21
-4.42227
0
LINE
8
BLACK
6
CONTINUOUS
10
2.30725
20
-4.42227
11
2.31479
21
-4.41473
0
LINE
8
BLACK
6
CONTINUOUS
10
2.31479
20
-4.41473
11
2.32334
21
-4.40833
0
LINE
8
BLACK
6
CONTINUOUS
10
2.32334
20
-4.40833
11
2.33271
21
-4.40322
0
LINE
8
BLACK
6
CONTINUOUS
10
2.33271
20
-4.40322
11
2.34271
21
-4.39949
0
LINE
8
BLACK
6
CONTINUOUS
10
2.34271
20
-4.39949
11
2.35313
21
-4.39722
0
LINE
8
BLACK
6
CONTINUOUS
10
2.35313
20
-4.39722
11
2.36378
21
-4.39646
0
LINE
8
BLACK
6
CONTINUOUS
10
2.36378
20
-4.39646
11
2.37443
21
-4.39722
0
LINE
8
BLACK
6
CONTINUOUS
10
1.6503
20
-4.40276
11
1.65502
21
-4.40579
0
LINE
8
BLACK
6
CONTINUOUS
10
1.65502
20
-4.40579
11
1.65869
21
-4.41003
0
LINE
8
BLACK
6
CONTINUOUS
10
1.65869
20
-4.41003
11
1.66101
21
-4.41512
0
LINE
8
BLACK
6
CONTINUOUS
10
1.66101
20
-4.41512
11
1.66181
21
-4.42067
0
LINE
8
BLACK
6
CONTINUOUS
10
1.66181
20
-4.42067
11
1.66181
21
-4.46398
0
LINE
8
BLACK
6
CONTINUOUS
10
1.66181
20
-4.46398
11
1.66101
21
-4.46952
0
LINE
8
BLACK
6
CONTINUOUS
10
1.66101
20
-4.46952
11
1.65869
21
-4.47462
0
LINE
8
BLACK
6
CONTINUOUS
10
1.65869
20
-4.47462
11
1.65502
21
-4.47885
0
LINE
8
BLACK
6
CONTINUOUS
10
1.65502
20
-4.47885
11
1.6503
21
-4.48188
0
LINE
8
BLACK
6
CONTINUOUS
10
1.6503
20
-4.48188
11
1.64493
21
-4.48346
0
LINE
8
BLACK
6
CONTINUOUS
10
1.64493
20
-4.48346
11
1.63932
21
-4.48346
0
LINE
8
BLACK
6
CONTINUOUS
10
1.63932
20
-4.48346
11
1.63395
21
-4.48188
0
LINE
8
BLACK
6
CONTINUOUS
10
1.63395
20
-4.48188
11
1.62924
21
-4.47885
0
LINE
8
BLACK
6
CONTINUOUS
10
1.62924
20
-4.47885
11
1.62557
21
-4.47462
0
LINE
8
BLACK
6
CONTINUOUS
10
1.62557
20
-4.47462
11
1.62324
21
-4.46952
0
LINE
8
BLACK
6
CONTINUOUS
10
1.62324
20
-4.46952
11
1.62244
21
-4.46398
0
LINE
8
BLACK
6
CONTINUOUS
10
1.62244
20
-4.46398
11
1.62244
21
-4.42067
0
LINE
8
BLACK
6
CONTINUOUS
10
1.62244
20
-4.42067
11
1.62324
21
-4.41512
0
LINE
8
BLACK
6
CONTINUOUS
10
1.62324
20
-4.41512
11
1.62557
21
-4.41003
0
LINE
8
BLACK
6
CONTINUOUS
10
1.62557
20
-4.41003
11
1.62924
21
-4.40579
0
LINE
8
BLACK
6
CONTINUOUS
10
1.62924
20
-4.40579
11
1.63395
21
-4.40276
0
LINE
8
BLACK
6
CONTINUOUS
10
1.63395
20
-4.40276
11
1.63932
21
-4.40118
0
LINE
8
BLACK
6
CONTINUOUS
10
1.63932
20
-4.40118
11
1.64493
21
-4.40118
0
LINE
8
BLACK
6
CONTINUOUS
10
1.64493
20
-4.40118
11
1.6503
21
-4.40276
0
LINE
8
BLACK
6
CONTINUOUS
10
1.99046
20
-4.40276
11
1.99517
21
-4.40579
0
LINE
8
BLACK
6
CONTINUOUS
10
1.99517
20
-4.40579
11
1.99884
21
-4.41003
0
LINE
8
BLACK
6
CONTINUOUS
10
1.99884
20
-4.41003
11
2.00117
21
-4.41512
0
LINE
8
BLACK
6
CONTINUOUS
10
2.00117
20
-4.41512
11
2.00197
21
-4.42067
0
LINE
8
BLACK
6
CONTINUOUS
10
2.00197
20
-4.42067
11
2.00197
21
-4.46398
0
LINE
8
BLACK
6
CONTINUOUS
10
2.00197
20
-4.46398
11
2.00117
21
-4.46952
0
LINE
8
BLACK
6
CONTINUOUS
10
2.00117
20
-4.46952
11
1.99884
21
-4.47462
0
LINE
8
BLACK
6
CONTINUOUS
10
1.99884
20
-4.47462
11
1.99517
21
-4.47885
0
LINE
8
BLACK
6
CONTINUOUS
10
1.99517
20
-4.47885
11
1.99046
21
-4.48188
0
LINE
8
BLACK
6
CONTINUOUS
10
1.99046
20
-4.48188
11
1.98508
21
-4.48346
0
LINE
8
BLACK
6
CONTINUOUS
10
1.98508
20
-4.48346
11
1.97948
21
-4.48346
0
LINE
8
BLACK
6
CONTINUOUS
10
1.97948
20
-4.48346
11
1.97411
21
-4.48188
0
LINE
8
BLACK
6
CONTINUOUS
10
1.97411
20
-4.48188
11
1.96939
21
-4.47885
0
LINE
8
BLACK
6
CONTINUOUS
10
1.96939
20
-4.47885
11
1.96572
21
-4.47462
0
LINE
8
BLACK
6
CONTINUOUS
10
1.96572
20
-4.47462
11
1.9634
21
-4.46952
0
LINE
8
BLACK
6
CONTINUOUS
10
1.9634
20
-4.46952
11
1.9626
21
-4.46398
0
LINE
8
BLACK
6
CONTINUOUS
10
1.9626
20
-4.46398
11
1.9626
21
-4.42067
0
LINE
8
BLACK
6
CONTINUOUS
10
1.9626
20
-4.42067
11
1.9634
21
-4.41512
0
LINE
8
BLACK
6
CONTINUOUS
10
1.9634
20
-4.41512
11
1.96572
21
-4.41003
0
LINE
8
BLACK
6
CONTINUOUS
10
1.96572
20
-4.41003
11
1.96939
21
-4.40579
0
LINE
8
BLACK
6
CONTINUOUS
10
1.96939
20
-4.40579
11
1.97411
21
-4.40276
0
LINE
8
BLACK
6
CONTINUOUS
10
1.97411
20
-4.40276
11
1.97948
21
-4.40118
0
LINE
8
BLACK
6
CONTINUOUS
10
1.97948
20
-4.40118
11
1.98508
21
-4.40118
0
LINE
8
BLACK
6
CONTINUOUS
10
1.98508
20
-4.40118
11
1.99046
21
-4.40276
0
LINE
8
BLACK
6
CONTINUOUS
10
1.70482
20
-4.45093
11
1.70823
21
-4.45378
0
LINE
8
BLACK
6
CONTINUOUS
10
1.70823
20
-4.45378
11
1.71045
21
-4.45763
0
LINE
8
BLACK
6
CONTINUOUS
10
1.71045
20
-4.45763
11
1.71122
21
-4.46201
0
LINE
8
BLACK
6
CONTINUOUS
10
1.71122
20
-4.46201
11
1.71045
21
-4.46638
0
LINE
8
BLACK
6
CONTINUOUS
10
1.71045
20
-4.46638
11
1.70823
21
-4.47023
0
LINE
8
BLACK
6
CONTINUOUS
10
1.70823
20
-4.47023
11
1.70482
21
-4.47309
0
LINE
8
BLACK
6
CONTINUOUS
10
1.70482
20
-4.47309
11
1.70065
21
-4.47461
0
LINE
8
BLACK
6
CONTINUOUS
10
1.70065
20
-4.47461
11
1.6962
21
-4.47461
0
LINE
8
BLACK
6
CONTINUOUS
10
1.6962
20
-4.47461
11
1.69203
21
-4.47309
0
LINE
8
BLACK
6
CONTINUOUS
10
1.69203
20
-4.47309
11
1.68862
21
-4.47023
0
LINE
8
BLACK
6
CONTINUOUS
10
1.68862
20
-4.47023
11
1.6864
21
-4.46638
0
LINE
8
BLACK
6
CONTINUOUS
10
1.6864
20
-4.46638
11
1.68563
21
-4.46201
0
LINE
8
BLACK
6
CONTINUOUS
10
1.68563
20
-4.46201
11
1.6864
21
-4.45763
0
LINE
8
BLACK
6
CONTINUOUS
10
1.6864
20
-4.45763
11
1.68862
21
-4.45378
0
LINE
8
BLACK
6
CONTINUOUS
10
1.68862
20
-4.45378
11
1.69203
21
-4.45093
0
LINE
8
BLACK
6
CONTINUOUS
10
1.69203
20
-4.45093
11
1.6962
21
-4.44941
0
LINE
8
BLACK
6
CONTINUOUS
10
1.6962
20
-4.44941
11
1.70065
21
-4.44941
0
LINE
8
BLACK
6
CONTINUOUS
10
1.70065
20
-4.44941
11
1.70482
21
-4.45093
0
LINE
8
BLACK
6
CONTINUOUS
10
1.93238
20
-4.45093
11
1.93579
21
-4.45378
0
LINE
8
BLACK
6
CONTINUOUS
10
1.93579
20
-4.45378
11
1.93801
21
-4.45763
0
LINE
8
BLACK
6
CONTINUOUS
10
1.93801
20
-4.45763
11
1.93878
21
-4.46201
0
LINE
8
BLACK
6
CONTINUOUS
10
1.93878
20
-4.46201
11
1.93801
21
-4.46638
0
LINE
8
BLACK
6
CONTINUOUS
10
1.93801
20
-4.46638
11
1.93579
21
-4.47023
0
LINE
8
BLACK
6
CONTINUOUS
10
1.93579
20
-4.47023
11
1.93238
21
-4.47309
0
LINE
8
BLACK
6
CONTINUOUS
10
1.93238
20
-4.47309
11
1.92821
21
-4.47461
0
LINE
8
BLACK
6
CONTINUOUS
10
1.92821
20
-4.47461
11
1.92376
21
-4.47461
0
LINE
8
BLACK
6
CONTINUOUS
10
1.92376
20
-4.47461
11
1.91959
21
-4.47309
0
LINE
8
BLACK
6
CONTINUOUS
10
1.91959
20
-4.47309
11
1.91618
21
-4.47023
0
LINE
8
BLACK
6
CONTINUOUS
10
1.91618
20
-4.47023
11
1.91396
21
-4.46638
0
LINE
8
BLACK
6
CONTINUOUS
10
1.91396
20
-4.46638
11
1.91319
21
-4.46201
0
LINE
8
BLACK
6
CONTINUOUS
10
1.91319
20
-4.46201
11
1.91396
21
-4.45763
0
LINE
8
BLACK
6
CONTINUOUS
10
1.91396
20
-4.45763
11
1.91618
21
-4.45378
0
LINE
8
BLACK
6
CONTINUOUS
10
1.91618
20
-4.45378
11
1.91959
21
-4.45093
0
LINE
8
BLACK
6
CONTINUOUS
10
1.91959
20
-4.45093
11
1.92376
21
-4.44941
0
LINE
8
BLACK
6
CONTINUOUS
10
1.92376
20
-4.44941
11
1.92821
21
-4.44941
0
LINE
8
BLACK
6
CONTINUOUS
10
1.92821
20
-4.44941
11
1.93238
21
-4.45093
0
LINE
8
BLACK
6
CONTINUOUS
10
1.25718
20
-4.38983
11
1.25998
21
-4.3917
0
LINE
8
BLACK
6
CONTINUOUS
10
1.25998
20
-4.3917
11
1.26184
21
-4.39449
0
LINE
8
BLACK
6
CONTINUOUS
10
1.26184
20
-4.39449
11
1.2625
21
-4.39779
0
LINE
8
BLACK
6
CONTINUOUS
10
1.2625
20
-4.39779
11
1.2625
21
-4.41796
0
LINE
8
BLACK
6
CONTINUOUS
10
1.2625
20
-4.41796
11
1.26184
21
-4.42126
0
LINE
8
BLACK
6
CONTINUOUS
10
1.26184
20
-4.42126
11
1.25998
21
-4.42405
0
LINE
8
BLACK
6
CONTINUOUS
10
1.25998
20
-4.42405
11
1.25718
21
-4.42592
0
LINE
8
BLACK
6
CONTINUOUS
10
1.25718
20
-4.42592
11
1.25389
21
-4.42657
0
LINE
8
BLACK
6
CONTINUOUS
10
1.25389
20
-4.42657
11
1.23666
21
-4.42657
0
LINE
8
BLACK
6
CONTINUOUS
10
1.23666
20
-4.42657
11
1.23337
21
-4.42592
0
LINE
8
BLACK
6
CONTINUOUS
10
1.23337
20
-4.42592
11
1.23057
21
-4.42405
0
LINE
8
BLACK
6
CONTINUOUS
10
1.23057
20
-4.42405
11
1.22871
21
-4.42126
0
LINE
8
BLACK
6
CONTINUOUS
10
1.22871
20
-4.42126
11
1.22805
21
-4.41796
0
LINE
8
BLACK
6
CONTINUOUS
10
1.22805
20
-4.41796
11
1.22805
21
-4.39779
0
LINE
8
BLACK
6
CONTINUOUS
10
1.22805
20
-4.39779
11
1.22871
21
-4.39449
0
LINE
8
BLACK
6
CONTINUOUS
10
1.22871
20
-4.39449
11
1.23057
21
-4.3917
0
LINE
8
BLACK
6
CONTINUOUS
10
1.23057
20
-4.3917
11
1.23337
21
-4.38983
0
LINE
8
BLACK
6
CONTINUOUS
10
1.23337
20
-4.38983
11
1.23666
21
-4.38917
0
LINE
8
BLACK
6
CONTINUOUS
10
1.23666
20
-4.38917
11
1.25389
21
-4.38917
0
LINE
8
BLACK
6
CONTINUOUS
10
1.25389
20
-4.38917
11
1.25718
21
-4.38983
0
LINE
8
BLACK
6
CONTINUOUS
10
1.31919
20
-4.38983
11
1.32199
21
-4.3917
0
LINE
8
BLACK
6
CONTINUOUS
10
1.32199
20
-4.3917
11
1.32385
21
-4.39449
0
LINE
8
BLACK
6
CONTINUOUS
10
1.32385
20
-4.39449
11
1.32451
21
-4.39779
0
LINE
8
BLACK
6
CONTINUOUS
10
1.32451
20
-4.39779
11
1.32451
21
-4.41796
0
LINE
8
BLACK
6
CONTINUOUS
10
1.32451
20
-4.41796
11
1.32385
21
-4.42126
0
LINE
8
BLACK
6
CONTINUOUS
10
1.32385
20
-4.42126
11
1.32199
21
-4.42405
0
LINE
8
BLACK
6
CONTINUOUS
10
1.32199
20
-4.42405
11
1.31919
21
-4.42592
0
LINE
8
BLACK
6
CONTINUOUS
10
1.31919
20
-4.42592
11
1.3159
21
-4.42657
0
LINE
8
BLACK
6
CONTINUOUS
10
1.3159
20
-4.42657
11
1.29867
21
-4.42657
0
LINE
8
BLACK
6
CONTINUOUS
10
1.29867
20
-4.42657
11
1.29538
21
-4.42592
0
LINE
8
BLACK
6
CONTINUOUS
10
1.29538
20
-4.42592
11
1.29258
21
-4.42405
0
LINE
8
BLACK
6
CONTINUOUS
10
1.29258
20
-4.42405
11
1.29071
21
-4.42126
0
LINE
8
BLACK
6
CONTINUOUS
10
1.29071
20
-4.42126
11
1.29006
21
-4.41796
0
LINE
8
BLACK
6
CONTINUOUS
10
1.29006
20
-4.41796
11
1.29006
21
-4.39779
0
LINE
8
BLACK
6
CONTINUOUS
10
1.29006
20
-4.39779
11
1.29071
21
-4.39449
0
LINE
8
BLACK
6
CONTINUOUS
10
1.29071
20
-4.39449
11
1.29258
21
-4.3917
0
LINE
8
BLACK
6
CONTINUOUS
10
1.29258
20
-4.3917
11
1.29538
21
-4.38983
0
LINE
8
BLACK
6
CONTINUOUS
10
1.29538
20
-4.38983
11
1.29867
21
-4.38917
0
LINE
8
BLACK
6
CONTINUOUS
10
1.29867
20
-4.38917
11
1.3159
21
-4.38917
0
LINE
8
BLACK
6
CONTINUOUS
10
1.3159
20
-4.38917
11
1.31919
21
-4.38983
0
LINE
8
BLACK
6
CONTINUOUS
10
1.29096
20
-4.19997
11
1.30139
21
-4.20224
0
LINE
8
BLACK
6
CONTINUOUS
10
1.30139
20
-4.20224
11
1.31139
21
-4.20597
0
LINE
8
BLACK
6
CONTINUOUS
10
1.31139
20
-4.20597
11
1.32076
21
-4.21109
0
LINE
8
BLACK
6
CONTINUOUS
10
1.32076
20
-4.21109
11
1.3293
21
-4.21748
0
LINE
8
BLACK
6
CONTINUOUS
10
1.3293
20
-4.21748
11
1.33685
21
-4.22503
0
LINE
8
BLACK
6
CONTINUOUS
10
1.33685
20
-4.22503
11
1.34324
21
-4.23357
0
LINE
8
BLACK
6
CONTINUOUS
10
1.34324
20
-4.23357
11
1.34836
21
-4.24294
0
LINE
8
BLACK
6
CONTINUOUS
10
1.34836
20
-4.24294
11
1.35209
21
-4.25294
0
LINE
8
BLACK
6
CONTINUOUS
10
1.35209
20
-4.25294
11
1.35436
21
-4.26337
0
LINE
8
BLACK
6
CONTINUOUS
10
1.35436
20
-4.26337
11
1.35512
21
-4.27402
0
LINE
8
BLACK
6
CONTINUOUS
10
1.35512
20
-4.27402
11
1.35436
21
-4.28466
0
LINE
8
BLACK
6
CONTINUOUS
10
1.35436
20
-4.28466
11
1.35209
21
-4.29509
0
LINE
8
BLACK
6
CONTINUOUS
10
1.35209
20
-4.29509
11
1.34836
21
-4.30509
0
LINE
8
BLACK
6
CONTINUOUS
10
1.34836
20
-4.30509
11
1.34324
21
-4.31446
0
LINE
8
BLACK
6
CONTINUOUS
10
1.34324
20
-4.31446
11
1.33685
21
-4.323
0
LINE
8
BLACK
6
CONTINUOUS
10
1.33685
20
-4.323
11
1.3293
21
-4.33055
0
LINE
8
BLACK
6
CONTINUOUS
10
1.3293
20
-4.33055
11
1.32076
21
-4.33694
0
LINE
8
BLACK
6
CONTINUOUS
10
1.32076
20
-4.33694
11
1.31139
21
-4.34206
0
LINE
8
BLACK
6
CONTINUOUS
10
1.31139
20
-4.34206
11
1.30139
21
-4.34579
0
LINE
8
BLACK
6
CONTINUOUS
10
1.30139
20
-4.34579
11
1.29096
21
-4.34806
0
LINE
8
BLACK
6
CONTINUOUS
10
1.29096
20
-4.34806
11
1.28031
21
-4.34882
0
LINE
8
BLACK
6
CONTINUOUS
10
1.28031
20
-4.34882
11
1.26967
21
-4.34806
0
LINE
8
BLACK
6
CONTINUOUS
10
1.26967
20
-4.34806
11
1.25924
21
-4.34579
0
LINE
8
BLACK
6
CONTINUOUS
10
1.25924
20
-4.34579
11
1.24924
21
-4.34206
0
LINE
8
BLACK
6
CONTINUOUS
10
1.24924
20
-4.34206
11
1.23987
21
-4.33694
0
LINE
8
BLACK
6
CONTINUOUS
10
1.23987
20
-4.33694
11
1.23133
21
-4.33055
0
LINE
8
BLACK
6
CONTINUOUS
10
1.23133
20
-4.33055
11
1.22378
21
-4.323
0
LINE
8
BLACK
6
CONTINUOUS
10
1.22378
20
-4.323
11
1.21739
21
-4.31446
0
LINE
8
BLACK
6
CONTINUOUS
10
1.21739
20
-4.31446
11
1.21227
21
-4.30509
0
LINE
8
BLACK
6
CONTINUOUS
10
1.21227
20
-4.30509
11
1.20854
21
-4.29509
0
LINE
8
BLACK
6
CONTINUOUS
10
1.20854
20
-4.29509
11
1.20627
21
-4.28466
0
LINE
8
BLACK
6
CONTINUOUS
10
1.20627
20
-4.28466
11
1.20551
21
-4.27402
0
LINE
8
BLACK
6
CONTINUOUS
10
1.20551
20
-4.27402
11
1.20627
21
-4.26337
0
LINE
8
BLACK
6
CONTINUOUS
10
1.20627
20
-4.26337
11
1.20854
21
-4.25294
0
LINE
8
BLACK
6
CONTINUOUS
10
1.20854
20
-4.25294
11
1.21227
21
-4.24294
0
LINE
8
BLACK
6
CONTINUOUS
10
1.21227
20
-4.24294
11
1.21739
21
-4.23357
0
LINE
8
BLACK
6
CONTINUOUS
10
1.21739
20
-4.23357
11
1.22378
21
-4.22503
0
LINE
8
BLACK
6
CONTINUOUS
10
1.22378
20
-4.22503
11
1.23133
21
-4.21748
0
LINE
8
BLACK
6
CONTINUOUS
10
1.23133
20
-4.21748
11
1.23987
21
-4.21109
0
LINE
8
BLACK
6
CONTINUOUS
10
1.23987
20
-4.21109
11
1.24924
21
-4.20597
0
LINE
8
BLACK
6
CONTINUOUS
10
1.24924
20
-4.20597
11
1.25924
21
-4.20224
0
LINE
8
BLACK
6
CONTINUOUS
10
1.25924
20
-4.20224
11
1.26967
21
-4.19997
0
LINE
8
BLACK
6
CONTINUOUS
10
1.26967
20
-4.19997
11
1.28031
21
-4.19921
0
LINE
8
BLACK
6
CONTINUOUS
10
1.28031
20
-4.19921
11
1.29096
21
-4.19997
0
LINE
8
BLACK
6
CONTINUOUS
10
1.2714
20
-3.97282
11
1.27686
21
-3.97569
0
LINE
8
BLACK
6
CONTINUOUS
10
1.27686
20
-3.97569
11
1.28148
21
-3.97978
0
LINE
8
BLACK
6
CONTINUOUS
10
1.28148
20
-3.97978
11
1.28498
21
-3.98486
0
LINE
8
BLACK
6
CONTINUOUS
10
1.28498
20
-3.98486
11
1.28717
21
-3.99063
0
LINE
8
BLACK
6
CONTINUOUS
10
1.28717
20
-3.99063
11
1.28791
21
-3.99675
0
LINE
8
BLACK
6
CONTINUOUS
10
1.28791
20
-3.99675
11
1.28717
21
-4.00288
0
LINE
8
BLACK
6
CONTINUOUS
10
1.28717
20
-4.00288
11
1.28498
21
-4.00864
0
LINE
8
BLACK
6
CONTINUOUS
10
1.28498
20
-4.00864
11
1.28148
21
-4.01372
0
LINE
8
BLACK
6
CONTINUOUS
10
1.28148
20
-4.01372
11
1.27686
21
-4.01781
0
LINE
8
BLACK
6
CONTINUOUS
10
1.27686
20
-4.01781
11
1.2714
21
-4.02068
0
LINE
8
BLACK
6
CONTINUOUS
10
1.2714
20
-4.02068
11
1.26541
21
-4.02216
0
LINE
8
BLACK
6
CONTINUOUS
10
1.26541
20
-4.02216
11
1.25924
21
-4.02216
0
LINE
8
BLACK
6
CONTINUOUS
10
1.25924
20
-4.02216
11
1.25325
21
-4.02068
0
LINE
8
BLACK
6
CONTINUOUS
10
1.25325
20
-4.02068
11
1.24779
21
-4.01781
0
LINE
8
BLACK
6
CONTINUOUS
10
1.24779
20
-4.01781
11
1.24317
21
-4.01372
0
LINE
8
BLACK
6
CONTINUOUS
10
1.24317
20
-4.01372
11
1.23966
21
-4.00864
0
LINE
8
BLACK
6
CONTINUOUS
10
1.23966
20
-4.00864
11
1.23748
21
-4.00288
0
LINE
8
BLACK
6
CONTINUOUS
10
1.23748
20
-4.00288
11
1.23673
21
-3.99675
0
LINE
8
BLACK
6
CONTINUOUS
10
1.23673
20
-3.99675
11
1.23748
21
-3.99063
0
LINE
8
BLACK
6
CONTINUOUS
10
1.23748
20
-3.99063
11
1.23966
21
-3.98486
0
LINE
8
BLACK
6
CONTINUOUS
10
1.23966
20
-3.98486
11
1.24317
21
-3.97978
0
LINE
8
BLACK
6
CONTINUOUS
10
1.24317
20
-3.97978
11
1.24779
21
-3.97569
0
LINE
8
BLACK
6
CONTINUOUS
10
1.24779
20
-3.97569
11
1.25325
21
-3.97282
0
LINE
8
BLACK
6
CONTINUOUS
10
1.25325
20
-3.97282
11
1.25924
21
-3.97135
0
LINE
8
BLACK
6
CONTINUOUS
10
1.25924
20
-3.97135
11
1.26541
21
-3.97135
0
LINE
8
BLACK
6
CONTINUOUS
10
1.26541
20
-3.97135
11
1.2714
21
-3.97282
0
LINE
8
BLACK
6
CONTINUOUS
10
2.45054
20
-3.8177
11
2.45493
21
-3.81994
0
LINE
8
BLACK
6
CONTINUOUS
10
2.45493
20
-3.81994
11
2.45841
21
-3.82342
0
LINE
8
BLACK
6
CONTINUOUS
10
2.45841
20
-3.82342
11
2.46065
21
-3.82781
0
LINE
8
BLACK
6
CONTINUOUS
10
2.46065
20
-3.82781
11
2.46142
21
-3.83268
0
LINE
8
BLACK
6
CONTINUOUS
10
2.46142
20
-3.83268
11
2.46065
21
-3.83754
0
LINE
8
BLACK
6
CONTINUOUS
10
2.46065
20
-3.83754
11
2.45841
21
-3.84193
0
LINE
8
BLACK
6
CONTINUOUS
10
2.45841
20
-3.84193
11
2.45493
21
-3.84542
0
LINE
8
BLACK
6
CONTINUOUS
10
2.45493
20
-3.84542
11
2.45054
21
-3.84765
0
LINE
8
BLACK
6
CONTINUOUS
10
2.45054
20
-3.84765
11
2.44567
21
-3.84843
0
LINE
8
BLACK
6
CONTINUOUS
10
2.44567
20
-3.84843
11
2.4408
21
-3.84765
0
LINE
8
BLACK
6
CONTINUOUS
10
2.4408
20
-3.84765
11
2.43641
21
-3.84542
0
LINE
8
BLACK
6
CONTINUOUS
10
2.43641
20
-3.84542
11
2.43293
21
-3.84193
0
LINE
8
BLACK
6
CONTINUOUS
10
2.43293
20
-3.84193
11
2.43069
21
-3.83754
0
LINE
8
BLACK
6
CONTINUOUS
10
2.43069
20
-3.83754
11
2.42992
21
-3.83268
0
LINE
8
BLACK
6
CONTINUOUS
10
2.42992
20
-3.83268
11
2.43069
21
-3.82781
0
LINE
8
BLACK
6
CONTINUOUS
10
2.43069
20
-3.82781
11
2.43293
21
-3.82342
0
LINE
8
BLACK
6
CONTINUOUS
10
2.43293
20
-3.82342
11
2.43641
21
-3.81994
0
LINE
8
BLACK
6
CONTINUOUS
10
2.43641
20
-3.81994
11
2.4408
21
-3.8177
0
LINE
8
BLACK
6
CONTINUOUS
10
2.4408
20
-3.8177
11
2.44567
21
-3.81693
0
LINE
8
BLACK
6
CONTINUOUS
10
2.44567
20
-3.81693
11
2.45054
21
-3.8177
0
LINE
8
BLACK
6
CONTINUOUS
10
1.2714
20
-3.77597
11
1.27686
21
-3.77884
0
LINE
8
BLACK
6
CONTINUOUS
10
1.27686
20
-3.77884
11
1.28148
21
-3.78293
0
LINE
8
BLACK
6
CONTINUOUS
10
1.28148
20
-3.78293
11
1.28498
21
-3.78801
0
LINE
8
BLACK
6
CONTINUOUS
10
1.28498
20
-3.78801
11
1.28717
21
-3.79378
0
LINE
8
BLACK
6
CONTINUOUS
10
1.28717
20
-3.79378
11
1.28791
21
-3.7999
0
LINE
8
BLACK
6
CONTINUOUS
10
1.28791
20
-3.7999
11
1.28717
21
-3.80603
0
LINE
8
BLACK
6
CONTINUOUS
10
1.28717
20
-3.80603
11
1.28498
21
-3.81179
0
LINE
8
BLACK
6
CONTINUOUS
10
1.28498
20
-3.81179
11
1.28148
21
-3.81687
0
LINE
8
BLACK
6
CONTINUOUS
10
1.28148
20
-3.81687
11
1.27686
21
-3.82096
0
LINE
8
BLACK
6
CONTINUOUS
10
1.27686
20
-3.82096
11
1.2714
21
-3.82383
0
LINE
8
BLACK
6
CONTINUOUS
10
1.2714
20
-3.82383
11
1.26541
21
-3.82531
0
LINE
8
BLACK
6
CONTINUOUS
10
1.26541
20
-3.82531
11
1.25924
21
-3.82531
0
LINE
8
BLACK
6
CONTINUOUS
10
1.25924
20
-3.82531
11
1.25325
21
-3.82383
0
LINE
8
BLACK
6
CONTINUOUS
10
1.25325
20
-3.82383
11
1.24779
21
-3.82096
0
LINE
8
BLACK
6
CONTINUOUS
10
1.24779
20
-3.82096
11
1.24317
21
-3.81687
0
LINE
8
BLACK
6
CONTINUOUS
10
1.24317
20
-3.81687
11
1.23966
21
-3.81179
0
LINE
8
BLACK
6
CONTINUOUS
10
1.23966
20
-3.81179
11
1.23748
21
-3.80603
0
LINE
8
BLACK
6
CONTINUOUS
10
1.23748
20
-3.80603
11
1.23673
21
-3.7999
0
LINE
8
BLACK
6
CONTINUOUS
10
1.23673
20
-3.7999
11
1.23748
21
-3.79378
0
LINE
8
BLACK
6
CONTINUOUS
10
1.23748
20
-3.79378
11
1.23966
21
-3.78801
0
LINE
8
BLACK
6
CONTINUOUS
10
1.23966
20
-3.78801
11
1.24317
21
-3.78293
0
LINE
8
BLACK
6
CONTINUOUS
10
1.24317
20
-3.78293
11
1.24779
21
-3.77884
0
LINE
8
BLACK
6
CONTINUOUS
10
1.24779
20
-3.77884
11
1.25325
21
-3.77597
0
LINE
8
BLACK
6
CONTINUOUS
10
1.25325
20
-3.77597
11
1.25924
21
-3.7745
0
LINE
8
BLACK
6
CONTINUOUS
10
1.25924
20
-3.7745
11
1.26541
21
-3.7745
0
LINE
8
BLACK
6
CONTINUOUS
10
1.26541
20
-3.7745
11
1.2714
21
-3.77597
0
LINE
8
BLACK
6
CONTINUOUS
10
2.45054
20
-3.75077
11
2.45493
21
-3.75301
0
LINE
8
BLACK
6
CONTINUOUS
10
2.45493
20
-3.75301
11
2.45841
21
-3.75649
0
LINE
8
BLACK
6
CONTINUOUS
10
2.45841
20
-3.75649
11
2.46065
21
-3.76088
0
LINE
8
BLACK
6
CONTINUOUS
10
2.46065
20
-3.76088
11
2.46142
21
-3.76575
0
LINE
8
BLACK
6
CONTINUOUS
10
2.46142
20
-3.76575
11
2.46065
21
-3.77061
0
LINE
8
BLACK
6
CONTINUOUS
10
2.46065
20
-3.77061
11
2.45841
21
-3.775
0
LINE
8
BLACK
6
CONTINUOUS
10
2.45841
20
-3.775
11
2.45493
21
-3.77849
0
LINE
8
BLACK
6
CONTINUOUS
10
2.45493
20
-3.77849
11
2.45054
21
-3.78073
0
LINE
8
BLACK
6
CONTINUOUS
10
2.45054
20
-3.78073
11
2.44567
21
-3.7815
0
LINE
8
BLACK
6
CONTINUOUS
10
2.44567
20
-3.7815
11
2.4408
21
-3.78073
0
LINE
8
BLACK
6
CONTINUOUS
10
2.4408
20
-3.78073
11
2.43641
21
-3.77849
0
LINE
8
BLACK
6
CONTINUOUS
10
2.43641
20
-3.77849
11
2.43293
21
-3.775
0
LINE
8
BLACK
6
CONTINUOUS
10
2.43293
20
-3.775
11
2.43069
21
-3.77061
0
LINE
8
BLACK
6
CONTINUOUS
10
2.43069
20
-3.77061
11
2.42992
21
-3.76575
0
LINE
8
BLACK
6
CONTINUOUS
10
2.42992
20
-3.76575
11
2.43069
21
-3.76088
0
LINE
8
BLACK
6
CONTINUOUS
10
2.43069
20
-3.76088
11
2.43293
21
-3.75649
0
LINE
8
BLACK
6
CONTINUOUS
10
2.43293
20
-3.75649
11
2.43641
21
-3.75301
0
LINE
8
BLACK
6
CONTINUOUS
10
2.43641
20
-3.75301
11
2.4408
21
-3.75077
0
LINE
8
BLACK
6
CONTINUOUS
10
2.4408
20
-3.75077
11
2.44567
21
-3.75
0
LINE
8
BLACK
6
CONTINUOUS
10
2.44567
20
-3.75
11
2.45054
21
-3.75077
0
LINE
8
BLACK
6
CONTINUOUS
10
1.20984
20
-3.43553
11
1.19882
21
-3.43553
0
LINE
8
BLACK
6
CONTINUOUS
10
1.19882
20
-3.43553
11
1.19882
21
-3.41565
0
LINE
8
BLACK
6
CONTINUOUS
10
1.19882
20
-3.41565
11
1.20984
21
-3.41565
0
LINE
8
BLACK
6
CONTINUOUS
10
1.20984
20
-3.41565
11
1.20984
21
-3.43553
0
LINE
8
BLACK
6
CONTINUOUS
10
1.22953
20
-3.43553
11
1.2185
21
-3.43553
0
LINE
8
BLACK
6
CONTINUOUS
10
1.2185
20
-3.43553
11
1.2185
21
-3.41565
0
LINE
8
BLACK
6
CONTINUOUS
10
1.2185
20
-3.41565
11
1.22953
21
-3.41565
0
LINE
8
BLACK
6
CONTINUOUS
10
1.22953
20
-3.41565
11
1.22953
21
-3.43553
0
LINE
8
BLACK
6
CONTINUOUS
10
1.24921
20
-3.43553
11
1.23819
21
-3.43553
0
LINE
8
BLACK
6
CONTINUOUS
10
1.23819
20
-3.43553
11
1.23819
21
-3.41565
0
LINE
8
BLACK
6
CONTINUOUS
10
1.23819
20
-3.41565
11
1.24921
21
-3.41565
0
LINE
8
BLACK
6
CONTINUOUS
10
1.24921
20
-3.41565
11
1.24921
21
-3.43553
0
LINE
8
BLACK
6
CONTINUOUS
10
1.24764
20
-3.39894
11
1.20039
21
-3.39894
0
LINE
8
BLACK
6
CONTINUOUS
10
1.20039
20
-3.39894
11
1.20039
21
-3.33988
0
LINE
8
BLACK
6
CONTINUOUS
10
1.20039
20
-3.33988
11
1.24764
21
-3.33988
0
LINE
8
BLACK
6
CONTINUOUS
10
1.24764
20
-3.33988
11
1.24764
21
-3.39894
0
LINE
8
BLACK
6
CONTINUOUS
10
1.20984
20
-3.32317
11
1.19882
21
-3.32317
0
LINE
8
BLACK
6
CONTINUOUS
10
1.19882
20
-3.32317
11
1.19882
21
-3.30329
0
LINE
8
BLACK
6
CONTINUOUS
10
1.19882
20
-3.30329
11
1.20984
21
-3.30329
0
LINE
8
BLACK
6
CONTINUOUS
10
1.20984
20
-3.30329
11
1.20984
21
-3.32317
0
LINE
8
BLACK
6
CONTINUOUS
10
1.22953
20
-3.32317
11
1.2185
21
-3.32317
0
LINE
8
BLACK
6
CONTINUOUS
10
1.2185
20
-3.32317
11
1.2185
21
-3.30329
0
LINE
8
BLACK
6
CONTINUOUS
10
1.2185
20
-3.30329
11
1.22953
21
-3.30329
0
LINE
8
BLACK
6
CONTINUOUS
10
1.22953
20
-3.30329
11
1.22953
21
-3.32317
0
LINE
8
BLACK
6
CONTINUOUS
10
1.24921
20
-3.32317
11
1.23819
21
-3.32317
0
LINE
8
BLACK
6
CONTINUOUS
10
1.23819
20
-3.32317
11
1.23819
21
-3.30329
0
LINE
8
BLACK
6
CONTINUOUS
10
1.23819
20
-3.30329
11
1.24921
21
-3.30329
0
LINE
8
BLACK
6
CONTINUOUS
10
1.24921
20
-3.30329
11
1.24921
21
-3.32317
0
LINE
8
BLACK
6
CONTINUOUS
10
1.49226
20
-3.25918
11
1.4965
21
-3.26191
0
LINE
8
BLACK
6
CONTINUOUS
10
1.4965
20
-3.26191
11
1.49981
21
-3.26572
0
LINE
8
BLACK
6
CONTINUOUS
10
1.49981
20
-3.26572
11
1.5019
21
-3.2703
0
LINE
8
BLACK
6
CONTINUOUS
10
1.5019
20
-3.2703
11
1.50262
21
-3.2753
0
LINE
8
BLACK
6
CONTINUOUS
10
1.50262
20
-3.2753
11
1.5019
21
-3.28029
0
LINE
8
BLACK
6
CONTINUOUS
10
1.5019
20
-3.28029
11
1.49981
21
-3.28487
0
LINE
8
BLACK
6
CONTINUOUS
10
1.49981
20
-3.28487
11
1.4965
21
-3.28868
0
LINE
8
BLACK
6
CONTINUOUS
10
1.4965
20
-3.28868
11
1.49226
21
-3.29141
0
LINE
8
BLACK
6
CONTINUOUS
10
1.49226
20
-3.29141
11
1.48742
21
-3.29283
0
LINE
8
BLACK
6
CONTINUOUS
10
1.48742
20
-3.29283
11
1.48238
21
-3.29283
0
LINE
8
BLACK
6
CONTINUOUS
10
1.48238
20
-3.29283
11
1.47754
21
-3.29141
0
LINE
8
BLACK
6
CONTINUOUS
10
1.47754
20
-3.29141
11
1.4733
21
-3.28868
0
LINE
8
BLACK
6
CONTINUOUS
10
1.4733
20
-3.28868
11
1.47
21
-3.28487
0
LINE
8
BLACK
6
CONTINUOUS
10
1.47
20
-3.28487
11
1.4679
21
-3.28029
0
LINE
8
BLACK
6
CONTINUOUS
10
1.4679
20
-3.28029
11
1.46719
21
-3.2753
0
LINE
8
BLACK
6
CONTINUOUS
10
1.46719
20
-3.2753
11
1.4679
21
-3.2703
0
LINE
8
BLACK
6
CONTINUOUS
10
1.4679
20
-3.2703
11
1.47
21
-3.26572
0
LINE
8
BLACK
6
CONTINUOUS
10
1.47
20
-3.26572
11
1.4733
21
-3.26191
0
LINE
8
BLACK
6
CONTINUOUS
10
1.4733
20
-3.26191
11
1.47754
21
-3.25918
0
LINE
8
BLACK
6
CONTINUOUS
10
1.47754
20
-3.25918
11
1.48238
21
-3.25776
0
LINE
8
BLACK
6
CONTINUOUS
10
1.48238
20
-3.25776
11
1.48742
21
-3.25776
0
LINE
8
BLACK
6
CONTINUOUS
10
1.48742
20
-3.25776
11
1.49226
21
-3.25918
0
LINE
8
BLACK
6
CONTINUOUS
10
2.12218
20
-3.25918
11
2.12642
21
-3.26191
0
LINE
8
BLACK
6
CONTINUOUS
10
2.12642
20
-3.26191
11
2.12973
21
-3.26572
0
LINE
8
BLACK
6
CONTINUOUS
10
2.12973
20
-3.26572
11
2.13182
21
-3.2703
0
LINE
8
BLACK
6
CONTINUOUS
10
2.13182
20
-3.2703
11
2.13254
21
-3.2753
0
LINE
8
BLACK
6
CONTINUOUS
10
2.13254
20
-3.2753
11
2.13182
21
-3.28029
0
LINE
8
BLACK
6
CONTINUOUS
10
2.13182
20
-3.28029
11
2.12973
21
-3.28487
0
LINE
8
BLACK
6
CONTINUOUS
10
2.12973
20
-3.28487
11
2.12642
21
-3.28868
0
LINE
8
BLACK
6
CONTINUOUS
10
2.12642
20
-3.28868
11
2.12218
21
-3.29141
0
LINE
8
BLACK
6
CONTINUOUS
10
2.12218
20
-3.29141
11
2.11734
21
-3.29283
0
LINE
8
BLACK
6
CONTINUOUS
10
2.11734
20
-3.29283
11
2.1123
21
-3.29283
0
LINE
8
BLACK
6
CONTINUOUS
10
2.1123
20
-3.29283
11
2.10746
21
-3.29141
0
LINE
8
BLACK
6
CONTINUOUS
10
2.10746
20
-3.29141
11
2.10322
21
-3.28868
0
LINE
8
BLACK
6
CONTINUOUS
10
2.10322
20
-3.28868
11
2.09992
21
-3.28487
0
LINE
8
BLACK
6
CONTINUOUS
10
2.09992
20
-3.28487
11
2.09782
21
-3.28029
0
LINE
8
BLACK
6
CONTINUOUS
10
2.09782
20
-3.28029
11
2.09711
21
-3.2753
0
LINE
8
BLACK
6
CONTINUOUS
10
2.09711
20
-3.2753
11
2.09782
21
-3.2703
0
LINE
8
BLACK
6
CONTINUOUS
10
2.09782
20
-3.2703
11
2.09992
21
-3.26572
0
LINE
8
BLACK
6
CONTINUOUS
10
2.09992
20
-3.26572
11
2.10322
21
-3.26191
0
LINE
8
BLACK
6
CONTINUOUS
10
2.10322
20
-3.26191
11
2.10746
21
-3.25918
0
LINE
8
BLACK
6
CONTINUOUS
10
2.10746
20
-3.25918
11
2.1123
21
-3.25776
0
LINE
8
BLACK
6
CONTINUOUS
10
2.1123
20
-3.25776
11
2.11734
21
-3.25776
0
LINE
8
BLACK
6
CONTINUOUS
10
2.11734
20
-3.25776
11
2.12218
21
-3.25918
  0
ENDSEC
  0
EOF
