  0
SECTION
  2
HEADER
  9
$ANGBASE
  50
0.0
  9
$ANGDIR
  70
1
  9
$MEASUREMENT
  70
0
  0
ENDSEC
  0
SECTION
  2
TABLES
  0
TABLE
  2
LTYPE
  70
4
  0
LTYPE
  5
40F
  2
CONTINUOUS
  70
0
  3
Solid line
  72
65
  73
0
  40
0.0
  0
LTYPE
  5
410
  2
DASHDOT
 70
0
  3
Dash Dot ____ _ ____ _
 72
65
 73
4
 40
2.0
 49
1.25
 49
-0.25
 49
0.25
 49
-0.25
  0
LTYPE
  5
411
  2
DASHED
 70
0
  3
Dashed __ __ __ __ __
 72
65
 73
2
 40
0.75
 49
0.5
 49
-0.25
  0
LTYPE
  5
43B
  2
DOTTED
 70
0
  3
Dotted .  .  .  .
 72
65
 73
2
 40
0.2
 49
0.0
 49
-0.2
  0
ENDTAB
  0
TABLE
  2
STYLE
  70
4
  0
STYLE
  2
KICAD
  70
0
  40
0
  41
1
  42
1
  50
0
  71
0
  3
isocp.shx
  0
STYLE
  2
KICADB
  70
0
  40
0
  41
1
  42
1
  50
0
  71
0
  3
isocp.shx
  0
STYLE
  2
KICADI
  70
0
  40
0
  41
1
  42
1
  50
15
  71
0
  3
isocp.shx
  0
STYLE
  2
KICADBI
  70
0
  40
0
  41
1
  42
1
  50
15
  71
0
  3
isocp.shx
  0
ENDTAB
  0
TABLE
  2
LAYER
  70
1
  0
LAYER
  2
BLACK
  70
0
  62
7
  6
CONTINUOUS
  0
ENDTAB
  0
ENDSEC
  0
SECTION
  2
ENTITIES
0
LINE
8
BLACK
6
CONTINUOUS
10
2.43237
20
-3.24211
11
2.44092
21
-3.24252
0
LINE
8
BLACK
6
CONTINUOUS
10
2.44092
20
-3.24252
11
2.44937
21
-3.24416
0
LINE
8
BLACK
6
CONTINUOUS
10
2.44937
20
-3.24416
11
2.4575
21
-3.24699
0
LINE
8
BLACK
6
CONTINUOUS
10
2.4575
20
-3.24699
11
2.46515
21
-3.25095
0
LINE
8
BLACK
6
CONTINUOUS
10
2.46515
20
-3.25095
11
2.47216
21
-3.25595
0
LINE
8
BLACK
6
CONTINUOUS
10
2.47216
20
-3.25595
11
2.47838
21
-3.2619
0
LINE
8
BLACK
6
CONTINUOUS
10
2.47838
20
-3.2619
11
2.48369
21
-3.26868
0
LINE
8
BLACK
6
CONTINUOUS
10
2.48369
20
-3.26868
11
2.48799
21
-3.27614
0
LINE
8
BLACK
6
CONTINUOUS
10
2.48799
20
-3.27614
11
2.49118
21
-3.28413
0
LINE
8
BLACK
6
CONTINUOUS
10
2.49118
20
-3.28413
11
2.4932
21
-3.2925
0
LINE
8
BLACK
6
CONTINUOUS
10
2.4932
20
-3.2925
11
2.494
21
-3.30108
0
LINE
8
BLACK
6
CONTINUOUS
10
2.494
20
-3.30108
11
2.49401
21
-3.30108
0
LINE
8
BLACK
6
CONTINUOUS
10
2.49401
20
-3.30108
11
2.494
21
-3.3011
0
LINE
8
BLACK
6
CONTINUOUS
10
2.494
20
-3.3011
11
2.49401
21
-3.30112
0
LINE
8
BLACK
6
CONTINUOUS
10
2.49401
20
-3.30112
11
2.49412
21
-4.65401
0
LINE
8
BLACK
6
CONTINUOUS
10
2.49412
20
-4.65401
11
2.49412
21
-4.65402
0
LINE
8
BLACK
6
CONTINUOUS
10
2.49412
20
-4.65402
11
2.4937
21
-4.66257
0
LINE
8
BLACK
6
CONTINUOUS
10
2.4937
20
-4.66257
11
2.49206
21
-4.67102
0
LINE
8
BLACK
6
CONTINUOUS
10
2.49206
20
-4.67102
11
2.48923
21
-4.67916
0
LINE
8
BLACK
6
CONTINUOUS
10
2.48923
20
-4.67916
11
2.48527
21
-4.6868
0
LINE
8
BLACK
6
CONTINUOUS
10
2.48527
20
-4.6868
11
2.48027
21
-4.69381
0
LINE
8
BLACK
6
CONTINUOUS
10
2.48027
20
-4.69381
11
2.47432
21
-4.70003
0
LINE
8
BLACK
6
CONTINUOUS
10
2.47432
20
-4.70003
11
2.46755
21
-4.70535
0
LINE
8
BLACK
6
CONTINUOUS
10
2.46755
20
-4.70535
11
2.46008
21
-4.70964
0
LINE
8
BLACK
6
CONTINUOUS
10
2.46008
20
-4.70964
11
2.45209
21
-4.71283
0
LINE
8
BLACK
6
CONTINUOUS
10
2.45209
20
-4.71283
11
2.44372
21
-4.71485
0
LINE
8
BLACK
6
CONTINUOUS
10
2.44372
20
-4.71485
11
2.43514
21
-4.71566
0
LINE
8
BLACK
6
CONTINUOUS
10
2.43514
20
-4.71566
11
2.43514
21
-4.71566
0
LINE
8
BLACK
6
CONTINUOUS
10
2.43514
20
-4.71566
11
2.43512
21
-4.71565
0
LINE
8
BLACK
6
CONTINUOUS
10
2.43512
20
-4.71565
11
2.4351
21
-4.71566
0
LINE
8
BLACK
6
CONTINUOUS
10
2.4351
20
-4.71566
11
1.17473
21
-4.71577
0
LINE
8
BLACK
6
CONTINUOUS
10
1.17473
20
-4.71577
11
1.17472
21
-4.71577
0
LINE
8
BLACK
6
CONTINUOUS
10
1.17472
20
-4.71577
11
1.16617
21
-4.71535
0
LINE
8
BLACK
6
CONTINUOUS
10
1.16617
20
-4.71535
11
1.15772
21
-4.71371
0
LINE
8
BLACK
6
CONTINUOUS
10
1.15772
20
-4.71371
11
1.14958
21
-4.71088
0
LINE
8
BLACK
6
CONTINUOUS
10
1.14958
20
-4.71088
11
1.14194
21
-4.70693
0
LINE
8
BLACK
6
CONTINUOUS
10
1.14194
20
-4.70693
11
1.13493
21
-4.70192
0
LINE
8
BLACK
6
CONTINUOUS
10
1.13493
20
-4.70192
11
1.12871
21
-4.69597
0
LINE
8
BLACK
6
CONTINUOUS
10
1.12871
20
-4.69597
11
1.12339
21
-4.6892
0
LINE
8
BLACK
6
CONTINUOUS
10
1.12339
20
-4.6892
11
1.1191
21
-4.68174
0
LINE
8
BLACK
6
CONTINUOUS
10
1.1191
20
-4.68174
11
1.11591
21
-4.67374
0
LINE
8
BLACK
6
CONTINUOUS
10
1.11591
20
-4.67374
11
1.11389
21
-4.66537
0
LINE
8
BLACK
6
CONTINUOUS
10
1.11389
20
-4.66537
11
1.11308
21
-4.6568
0
LINE
8
BLACK
6
CONTINUOUS
10
1.11308
20
-4.6568
11
1.11308
21
-4.6568
0
LINE
8
BLACK
6
CONTINUOUS
10
1.11308
20
-4.6568
11
1.11309
21
-4.65677
0
LINE
8
BLACK
6
CONTINUOUS
10
1.11309
20
-4.65677
11
1.11308
21
-4.65675
0
LINE
8
BLACK
6
CONTINUOUS
10
1.11308
20
-4.65675
11
1.11297
21
-3.30386
0
LINE
8
BLACK
6
CONTINUOUS
10
1.11297
20
-3.30386
11
1.11297
21
-3.30385
0
LINE
8
BLACK
6
CONTINUOUS
10
1.11297
20
-3.30385
11
1.11339
21
-3.2953
0
LINE
8
BLACK
6
CONTINUOUS
10
1.11339
20
-3.2953
11
1.11503
21
-3.28685
0
LINE
8
BLACK
6
CONTINUOUS
10
1.11503
20
-3.28685
11
1.11786
21
-3.27872
0
LINE
8
BLACK
6
CONTINUOUS
10
1.11786
20
-3.27872
11
1.12181
21
-3.27107
0
LINE
8
BLACK
6
CONTINUOUS
10
1.12181
20
-3.27107
11
1.12682
21
-3.26406
0
LINE
8
BLACK
6
CONTINUOUS
10
1.12682
20
-3.26406
11
1.13277
21
-3.25784
0
LINE
8
BLACK
6
CONTINUOUS
10
1.13277
20
-3.25784
11
1.13954
21
-3.25253
0
LINE
8
BLACK
6
CONTINUOUS
10
1.13954
20
-3.25253
11
1.147
21
-3.24823
0
LINE
8
BLACK
6
CONTINUOUS
10
1.147
20
-3.24823
11
1.155
21
-3.24504
0
LINE
8
BLACK
6
CONTINUOUS
10
1.155
20
-3.24504
11
1.16337
21
-3.24302
0
LINE
8
BLACK
6
CONTINUOUS
10
1.16337
20
-3.24302
11
1.17194
21
-3.24221
0
LINE
8
BLACK
6
CONTINUOUS
10
1.17194
20
-3.24221
11
1.17194
21
-3.24221
0
LINE
8
BLACK
6
CONTINUOUS
10
1.17194
20
-3.24221
11
1.17197
21
-3.24222
0
LINE
8
BLACK
6
CONTINUOUS
10
1.17197
20
-3.24222
11
1.17199
21
-3.24221
0
LINE
8
BLACK
6
CONTINUOUS
10
1.17199
20
-3.24221
11
2.43236
21
-3.2421
0
LINE
8
BLACK
6
CONTINUOUS
10
2.43236
20
-3.2421
11
2.43237
21
-3.24211
0
LINE
8
BLACK
6
CONTINUOUS
10
2.43241
20
-3.24604
11
2.43241
21
-3.24604
0
LINE
8
BLACK
6
CONTINUOUS
10
2.43241
20
-3.24604
11
2.43238
21
-3.24603
0
LINE
8
BLACK
6
CONTINUOUS
10
2.43238
20
-3.24603
11
2.43236
21
-3.24604
0
LINE
8
BLACK
6
CONTINUOUS
10
2.43236
20
-3.24604
11
1.17202
21
-3.24615
0
LINE
8
BLACK
6
CONTINUOUS
10
1.17202
20
-3.24615
11
1.16759
21
-3.24625
0
LINE
8
BLACK
6
CONTINUOUS
10
1.16759
20
-3.24625
11
1.15886
21
-3.24784
0
LINE
8
BLACK
6
CONTINUOUS
10
1.15886
20
-3.24784
11
1.15048
21
-3.25077
0
LINE
8
BLACK
6
CONTINUOUS
10
1.15048
20
-3.25077
11
1.14266
21
-3.25498
0
LINE
8
BLACK
6
CONTINUOUS
10
1.14266
20
-3.25498
11
1.13559
21
-3.26036
0
LINE
8
BLACK
6
CONTINUOUS
10
1.13559
20
-3.26036
11
1.12946
21
-3.26677
0
LINE
8
BLACK
6
CONTINUOUS
10
1.12946
20
-3.26677
11
1.1244
21
-3.27407
0
LINE
8
BLACK
6
CONTINUOUS
10
1.1244
20
-3.27407
11
1.12055
21
-3.28207
0
LINE
8
BLACK
6
CONTINUOUS
10
1.12055
20
-3.28207
11
1.118
21
-3.29058
0
LINE
8
BLACK
6
CONTINUOUS
10
1.118
20
-3.29058
11
1.1168
21
-3.29938
0
LINE
8
BLACK
6
CONTINUOUS
10
1.1168
20
-3.29938
11
1.1169
21
-3.30381
0
LINE
8
BLACK
6
CONTINUOUS
10
1.1169
20
-3.30381
11
1.1169
21
-3.30381
0
LINE
8
BLACK
6
CONTINUOUS
10
1.1169
20
-3.30381
11
1.1169
21
-3.30384
0
LINE
8
BLACK
6
CONTINUOUS
10
1.1169
20
-3.30384
11
1.11691
21
-3.30386
0
LINE
8
BLACK
6
CONTINUOUS
10
1.11691
20
-3.30386
11
1.11702
21
-4.65671
0
LINE
8
BLACK
6
CONTINUOUS
10
1.11702
20
-4.65671
11
1.11702
21
-4.65671
0
LINE
8
BLACK
6
CONTINUOUS
10
1.11702
20
-4.65671
11
1.11712
21
-4.66115
0
LINE
8
BLACK
6
CONTINUOUS
10
1.11712
20
-4.66115
11
1.1187
21
-4.66988
0
LINE
8
BLACK
6
CONTINUOUS
10
1.1187
20
-4.66988
11
1.12164
21
-4.67826
0
LINE
8
BLACK
6
CONTINUOUS
10
1.12164
20
-4.67826
11
1.12585
21
-4.68608
0
LINE
8
BLACK
6
CONTINUOUS
10
1.12585
20
-4.68608
11
1.13122
21
-4.69315
0
LINE
8
BLACK
6
CONTINUOUS
10
1.13122
20
-4.69315
11
1.13764
21
-4.69928
0
LINE
8
BLACK
6
CONTINUOUS
10
1.13764
20
-4.69928
11
1.14494
21
-4.70434
0
LINE
8
BLACK
6
CONTINUOUS
10
1.14494
20
-4.70434
11
1.15294
21
-4.70819
0
LINE
8
BLACK
6
CONTINUOUS
10
1.15294
20
-4.70819
11
1.16144
21
-4.71074
0
LINE
8
BLACK
6
CONTINUOUS
10
1.16144
20
-4.71074
11
1.17024
21
-4.71194
0
LINE
8
BLACK
6
CONTINUOUS
10
1.17024
20
-4.71194
11
1.17468
21
-4.71184
0
LINE
8
BLACK
6
CONTINUOUS
10
1.17468
20
-4.71184
11
1.17468
21
-4.71184
0
LINE
8
BLACK
6
CONTINUOUS
10
1.17468
20
-4.71184
11
1.17471
21
-4.71184
0
LINE
8
BLACK
6
CONTINUOUS
10
1.17471
20
-4.71184
11
1.17473
21
-4.71183
0
LINE
8
BLACK
6
CONTINUOUS
10
1.17473
20
-4.71183
11
2.43505
21
-4.71172
0
LINE
8
BLACK
6
CONTINUOUS
10
2.43505
20
-4.71172
11
2.43505
21
-4.71172
0
LINE
8
BLACK
6
CONTINUOUS
10
2.43505
20
-4.71172
11
2.43949
21
-4.71162
0
LINE
8
BLACK
6
CONTINUOUS
10
2.43949
20
-4.71162
11
2.44823
21
-4.71004
0
LINE
8
BLACK
6
CONTINUOUS
10
2.44823
20
-4.71004
11
2.45661
21
-4.7071
0
LINE
8
BLACK
6
CONTINUOUS
10
2.45661
20
-4.7071
11
2.46443
21
-4.7029
0
LINE
8
BLACK
6
CONTINUOUS
10
2.46443
20
-4.7029
11
2.47149
21
-4.69752
0
LINE
8
BLACK
6
CONTINUOUS
10
2.47149
20
-4.69752
11
2.47763
21
-4.6911
0
LINE
8
BLACK
6
CONTINUOUS
10
2.47763
20
-4.6911
11
2.48268
21
-4.6838
0
LINE
8
BLACK
6
CONTINUOUS
10
2.48268
20
-4.6838
11
2.48654
21
-4.6758
0
LINE
8
BLACK
6
CONTINUOUS
10
2.48654
20
-4.6758
11
2.48909
21
-4.6673
0
LINE
8
BLACK
6
CONTINUOUS
10
2.48909
20
-4.6673
11
2.49028
21
-4.6585
0
LINE
8
BLACK
6
CONTINUOUS
10
2.49028
20
-4.6585
11
2.49018
21
-4.65406
0
LINE
8
BLACK
6
CONTINUOUS
10
2.49018
20
-4.65406
11
2.49018
21
-4.65406
0
LINE
8
BLACK
6
CONTINUOUS
10
2.49018
20
-4.65406
11
2.49019
21
-4.65403
0
LINE
8
BLACK
6
CONTINUOUS
10
2.49019
20
-4.65403
11
2.49018
21
-4.65401
0
LINE
8
BLACK
6
CONTINUOUS
10
2.49018
20
-4.65401
11
2.49007
21
-3.30117
0
LINE
8
BLACK
6
CONTINUOUS
10
2.49007
20
-3.30117
11
2.49007
21
-3.30117
0
LINE
8
BLACK
6
CONTINUOUS
10
2.49007
20
-3.30117
11
2.48997
21
-3.29673
0
LINE
8
BLACK
6
CONTINUOUS
10
2.48997
20
-3.29673
11
2.48838
21
-3.28799
0
LINE
8
BLACK
6
CONTINUOUS
10
2.48838
20
-3.28799
11
2.48545
21
-3.27961
0
LINE
8
BLACK
6
CONTINUOUS
10
2.48545
20
-3.27961
11
2.48124
21
-3.27179
0
LINE
8
BLACK
6
CONTINUOUS
10
2.48124
20
-3.27179
11
2.47586
21
-3.26473
0
LINE
8
BLACK
6
CONTINUOUS
10
2.47586
20
-3.26473
11
2.46944
21
-3.25859
0
LINE
8
BLACK
6
CONTINUOUS
10
2.46944
20
-3.25859
11
2.46215
21
-3.25354
0
LINE
8
BLACK
6
CONTINUOUS
10
2.46215
20
-3.25354
11
2.45415
21
-3.24968
0
LINE
8
BLACK
6
CONTINUOUS
10
2.45415
20
-3.24968
11
2.44564
21
-3.24713
0
LINE
8
BLACK
6
CONTINUOUS
10
2.44564
20
-3.24713
11
2.43684
21
-3.24594
0
LINE
8
BLACK
6
CONTINUOUS
10
2.43684
20
-3.24594
11
2.43241
21
-3.24604
  0
ENDSEC
  0
EOF
