  0
SECTION
  2
HEADER
  9
$ANGBASE
  50
0.0
  9
$ANGDIR
  70
1
  9
$MEASUREMENT
  70
0
  0
ENDSEC
  0
SECTION
  2
TABLES
  0
TABLE
  2
LTYPE
  70
4
  0
LTYPE
  5
40F
  2
CONTINUOUS
  70
0
  3
Solid line
  72
65
  73
0
  40
0.0
  0
LTYPE
  5
410
  2
DASHDOT
 70
0
  3
Dash Dot ____ _ ____ _
 72
65
 73
4
 40
2.0
 49
1.25
 49
-0.25
 49
0.25
 49
-0.25
  0
LTYPE
  5
411
  2
DASHED
 70
0
  3
Dashed __ __ __ __ __
 72
65
 73
2
 40
0.75
 49
0.5
 49
-0.25
  0
LTYPE
  5
43B
  2
DOTTED
 70
0
  3
Dotted .  .  .  .
 72
65
 73
2
 40
0.2
 49
0.0
 49
-0.2
  0
ENDTAB
  0
TABLE
  2
STYLE
  70
4
  0
STYLE
  2
KICAD
  70
0
  40
0
  41
1
  42
1
  50
0
  71
0
  3
isocp.shx
  0
STYLE
  2
KICADB
  70
0
  40
0
  41
1
  42
1
  50
0
  71
0
  3
isocp.shx
  0
STYLE
  2
KICADI
  70
0
  40
0
  41
1
  42
1
  50
15
  71
0
  3
isocp.shx
  0
STYLE
  2
KICADBI
  70
0
  40
0
  41
1
  42
1
  50
15
  71
0
  3
isocp.shx
  0
ENDTAB
  0
TABLE
  2
LAYER
  70
1
  0
LAYER
  2
BLACK
  70
0
  62
7
  6
CONTINUOUS
  0
ENDTAB
  0
ENDSEC
  0
SECTION
  2
ENTITIES
0
LINE
8
BLACK
6
CONTINUOUS
10
1.63002
20
-4.64557
11
1.63071
21
-4.64724
0
LINE
8
BLACK
6
CONTINUOUS
10
1.63071
20
-4.64724
11
1.63071
21
-4.69252
0
LINE
8
BLACK
6
CONTINUOUS
10
1.63071
20
-4.69252
11
1.63002
21
-4.69419
0
LINE
8
BLACK
6
CONTINUOUS
10
1.63002
20
-4.69419
11
1.62835
21
-4.69488
0
LINE
8
BLACK
6
CONTINUOUS
10
1.62835
20
-4.69488
11
1.62668
21
-4.69419
0
LINE
8
BLACK
6
CONTINUOUS
10
1.62668
20
-4.69419
11
1.62598
21
-4.69252
0
LINE
8
BLACK
6
CONTINUOUS
10
1.62598
20
-4.69252
11
1.62598
21
-4.64724
0
LINE
8
BLACK
6
CONTINUOUS
10
1.62598
20
-4.64724
11
1.62668
21
-4.64557
0
LINE
8
BLACK
6
CONTINUOUS
10
1.62668
20
-4.64557
11
1.62835
21
-4.64488
0
LINE
8
BLACK
6
CONTINUOUS
10
1.62835
20
-4.64488
11
1.63002
21
-4.64557
0
LINE
8
BLACK
6
CONTINUOUS
10
1.99773
20
-4.64557
11
1.99843
21
-4.64724
0
LINE
8
BLACK
6
CONTINUOUS
10
1.99843
20
-4.64724
11
1.99843
21
-4.69252
0
LINE
8
BLACK
6
CONTINUOUS
10
1.99843
20
-4.69252
11
1.99773
21
-4.69419
0
LINE
8
BLACK
6
CONTINUOUS
10
1.99773
20
-4.69419
11
1.99606
21
-4.69488
0
LINE
8
BLACK
6
CONTINUOUS
10
1.99606
20
-4.69488
11
1.99439
21
-4.69419
0
LINE
8
BLACK
6
CONTINUOUS
10
1.99439
20
-4.69419
11
1.9937
21
-4.69252
0
LINE
8
BLACK
6
CONTINUOUS
10
1.9937
20
-4.69252
11
1.9937
21
-4.64724
0
LINE
8
BLACK
6
CONTINUOUS
10
1.9937
20
-4.64724
11
1.99439
21
-4.64557
0
LINE
8
BLACK
6
CONTINUOUS
10
1.99439
20
-4.64557
11
1.99606
21
-4.64488
0
LINE
8
BLACK
6
CONTINUOUS
10
1.99606
20
-4.64488
11
1.99773
21
-4.64557
0
LINE
8
BLACK
6
CONTINUOUS
10
1.53406
20
-4.67126
11
1.53475
21
-4.67293
0
LINE
8
BLACK
6
CONTINUOUS
10
1.53475
20
-4.67293
11
1.53406
21
-4.6746
0
LINE
8
BLACK
6
CONTINUOUS
10
1.53406
20
-4.6746
11
1.53239
21
-4.6753
0
LINE
8
BLACK
6
CONTINUOUS
10
1.53239
20
-4.6753
11
1.51371
21
-4.6753
0
LINE
8
BLACK
6
CONTINUOUS
10
1.51371
20
-4.6753
11
1.51204
21
-4.6746
0
LINE
8
BLACK
6
CONTINUOUS
10
1.51204
20
-4.6746
11
1.51135
21
-4.67293
0
LINE
8
BLACK
6
CONTINUOUS
10
1.51135
20
-4.67293
11
1.51204
21
-4.67126
0
LINE
8
BLACK
6
CONTINUOUS
10
1.51204
20
-4.67126
11
1.51371
21
-4.67057
0
LINE
8
BLACK
6
CONTINUOUS
10
1.51371
20
-4.67057
11
1.53239
21
-4.67057
0
LINE
8
BLACK
6
CONTINUOUS
10
1.53239
20
-4.67057
11
1.53406
21
-4.67126
0
LINE
8
BLACK
6
CONTINUOUS
10
1.287
20
-4.6504
11
1.28769
21
-4.65207
0
LINE
8
BLACK
6
CONTINUOUS
10
1.28769
20
-4.65207
11
1.287
21
-4.65374
0
LINE
8
BLACK
6
CONTINUOUS
10
1.287
20
-4.65374
11
1.28533
21
-4.65443
0
LINE
8
BLACK
6
CONTINUOUS
10
1.28533
20
-4.65443
11
1.26664
21
-4.65443
0
LINE
8
BLACK
6
CONTINUOUS
10
1.26664
20
-4.65443
11
1.26497
21
-4.65374
0
LINE
8
BLACK
6
CONTINUOUS
10
1.26497
20
-4.65374
11
1.26428
21
-4.65207
0
LINE
8
BLACK
6
CONTINUOUS
10
1.26428
20
-4.65207
11
1.26497
21
-4.6504
0
LINE
8
BLACK
6
CONTINUOUS
10
1.26497
20
-4.6504
11
1.26664
21
-4.6497
0
LINE
8
BLACK
6
CONTINUOUS
10
1.26664
20
-4.6497
11
1.28533
21
-4.6497
0
LINE
8
BLACK
6
CONTINUOUS
10
1.28533
20
-4.6497
11
1.287
21
-4.6504
0
LINE
8
BLACK
6
CONTINUOUS
10
1.53406
20
-4.63012
11
1.53475
21
-4.63179
0
LINE
8
BLACK
6
CONTINUOUS
10
1.53475
20
-4.63179
11
1.53406
21
-4.63346
0
LINE
8
BLACK
6
CONTINUOUS
10
1.53406
20
-4.63346
11
1.53239
21
-4.63415
0
LINE
8
BLACK
6
CONTINUOUS
10
1.53239
20
-4.63415
11
1.51371
21
-4.63415
0
LINE
8
BLACK
6
CONTINUOUS
10
1.51371
20
-4.63415
11
1.51204
21
-4.63346
0
LINE
8
BLACK
6
CONTINUOUS
10
1.51204
20
-4.63346
11
1.51135
21
-4.63179
0
LINE
8
BLACK
6
CONTINUOUS
10
1.51135
20
-4.63179
11
1.51204
21
-4.63012
0
LINE
8
BLACK
6
CONTINUOUS
10
1.51204
20
-4.63012
11
1.51371
21
-4.62943
0
LINE
8
BLACK
6
CONTINUOUS
10
1.51371
20
-4.62943
11
1.53239
21
-4.62943
0
LINE
8
BLACK
6
CONTINUOUS
10
1.53239
20
-4.62943
11
1.53406
21
-4.63012
0
LINE
8
BLACK
6
CONTINUOUS
10
2.15261
20
-4.59773
11
2.15585
21
-4.5999
0
LINE
8
BLACK
6
CONTINUOUS
10
2.15585
20
-4.5999
11
2.15802
21
-4.60314
0
LINE
8
BLACK
6
CONTINUOUS
10
2.15802
20
-4.60314
11
2.15878
21
-4.60697
0
LINE
8
BLACK
6
CONTINUOUS
10
2.15878
20
-4.60697
11
2.15802
21
-4.6108
0
LINE
8
BLACK
6
CONTINUOUS
10
2.15802
20
-4.6108
11
2.15585
21
-4.61404
0
LINE
8
BLACK
6
CONTINUOUS
10
2.15585
20
-4.61404
11
2.15261
21
-4.61621
0
LINE
8
BLACK
6
CONTINUOUS
10
2.15261
20
-4.61621
11
2.14878
21
-4.61697
0
LINE
8
BLACK
6
CONTINUOUS
10
2.14878
20
-4.61697
11
2.14495
21
-4.61621
0
LINE
8
BLACK
6
CONTINUOUS
10
2.14495
20
-4.61621
11
2.14171
21
-4.61404
0
LINE
8
BLACK
6
CONTINUOUS
10
2.14171
20
-4.61404
11
2.13954
21
-4.6108
0
LINE
8
BLACK
6
CONTINUOUS
10
2.13954
20
-4.6108
11
2.13878
21
-4.60697
0
LINE
8
BLACK
6
CONTINUOUS
10
2.13878
20
-4.60697
11
2.13954
21
-4.60314
0
LINE
8
BLACK
6
CONTINUOUS
10
2.13954
20
-4.60314
11
2.14171
21
-4.5999
0
LINE
8
BLACK
6
CONTINUOUS
10
2.14171
20
-4.5999
11
2.14495
21
-4.59773
0
LINE
8
BLACK
6
CONTINUOUS
10
2.14495
20
-4.59773
11
2.14878
21
-4.59697
0
LINE
8
BLACK
6
CONTINUOUS
10
2.14878
20
-4.59697
11
2.15261
21
-4.59773
0
LINE
8
BLACK
6
CONTINUOUS
10
1.287
20
-4.60925
11
1.28769
21
-4.61093
0
LINE
8
BLACK
6
CONTINUOUS
10
1.28769
20
-4.61093
11
1.287
21
-4.6126
0
LINE
8
BLACK
6
CONTINUOUS
10
1.287
20
-4.6126
11
1.28533
21
-4.61329
0
LINE
8
BLACK
6
CONTINUOUS
10
1.28533
20
-4.61329
11
1.26664
21
-4.61329
0
LINE
8
BLACK
6
CONTINUOUS
10
1.26664
20
-4.61329
11
1.26497
21
-4.6126
0
LINE
8
BLACK
6
CONTINUOUS
10
1.26497
20
-4.6126
11
1.26428
21
-4.61093
0
LINE
8
BLACK
6
CONTINUOUS
10
1.26428
20
-4.61093
11
1.26497
21
-4.60925
0
LINE
8
BLACK
6
CONTINUOUS
10
1.26497
20
-4.60925
11
1.26664
21
-4.60856
0
LINE
8
BLACK
6
CONTINUOUS
10
1.26664
20
-4.60856
11
1.28533
21
-4.60856
0
LINE
8
BLACK
6
CONTINUOUS
10
1.28533
20
-4.60856
11
1.287
21
-4.60925
0
LINE
8
BLACK
6
CONTINUOUS
10
1.47213
20
-4.50864
11
1.47283
21
-4.51056
0
LINE
8
BLACK
6
CONTINUOUS
10
1.47283
20
-4.51056
11
1.47283
21
-4.57757
0
LINE
8
BLACK
6
CONTINUOUS
10
1.47283
20
-4.57757
11
1.47265
21
-4.57859
0
LINE
8
BLACK
6
CONTINUOUS
10
1.47265
20
-4.57859
11
1.47178
21
-4.57964
0
LINE
8
BLACK
6
CONTINUOUS
10
1.47178
20
-4.57964
11
1.47397
21
-4.58147
0
LINE
8
BLACK
6
CONTINUOUS
10
1.47397
20
-4.58147
11
1.47602
21
-4.58503
0
LINE
8
BLACK
6
CONTINUOUS
10
1.47602
20
-4.58503
11
1.47673
21
-4.58906
0
LINE
8
BLACK
6
CONTINUOUS
10
1.47673
20
-4.58906
11
1.47602
21
-4.5931
0
LINE
8
BLACK
6
CONTINUOUS
10
1.47602
20
-4.5931
11
1.47397
21
-4.59666
0
LINE
8
BLACK
6
CONTINUOUS
10
1.47397
20
-4.59666
11
1.47083
21
-4.59929
0
LINE
8
BLACK
6
CONTINUOUS
10
1.47083
20
-4.59929
11
1.46697
21
-4.6007
0
LINE
8
BLACK
6
CONTINUOUS
10
1.46697
20
-4.6007
11
1.46287
21
-4.6007
0
LINE
8
BLACK
6
CONTINUOUS
10
1.46287
20
-4.6007
11
1.45902
21
-4.59929
0
LINE
8
BLACK
6
CONTINUOUS
10
1.45902
20
-4.59929
11
1.45587
21
-4.59666
0
LINE
8
BLACK
6
CONTINUOUS
10
1.45587
20
-4.59666
11
1.45382
21
-4.5931
0
LINE
8
BLACK
6
CONTINUOUS
10
1.45382
20
-4.5931
11
1.45311
21
-4.58906
0
LINE
8
BLACK
6
CONTINUOUS
10
1.45311
20
-4.58906
11
1.45382
21
-4.58503
0
LINE
8
BLACK
6
CONTINUOUS
10
1.45382
20
-4.58503
11
1.45587
21
-4.58147
0
LINE
8
BLACK
6
CONTINUOUS
10
1.45587
20
-4.58147
11
1.45902
21
-4.57884
0
LINE
8
BLACK
6
CONTINUOUS
10
1.45902
20
-4.57884
11
1.46287
21
-4.57743
0
LINE
8
BLACK
6
CONTINUOUS
10
1.46287
20
-4.57743
11
1.46685
21
-4.57743
0
LINE
8
BLACK
6
CONTINUOUS
10
1.46685
20
-4.57743
11
1.46685
21
-4.51056
0
LINE
8
BLACK
6
CONTINUOUS
10
1.46685
20
-4.51056
11
1.46703
21
-4.50954
0
LINE
8
BLACK
6
CONTINUOUS
10
1.46703
20
-4.50954
11
1.46835
21
-4.50797
0
LINE
8
BLACK
6
CONTINUOUS
10
1.46835
20
-4.50797
11
1.47036
21
-4.50761
0
LINE
8
BLACK
6
CONTINUOUS
10
1.47036
20
-4.50761
11
1.47213
21
-4.50864
0
LINE
8
BLACK
6
CONTINUOUS
10
1.15679
20
-4.58118
11
1.15748
21
-4.58285
0
LINE
8
BLACK
6
CONTINUOUS
10
1.15748
20
-4.58285
11
1.15748
21
-4.59392
0
LINE
8
BLACK
6
CONTINUOUS
10
1.15748
20
-4.59392
11
1.15679
21
-4.59559
0
LINE
8
BLACK
6
CONTINUOUS
10
1.15679
20
-4.59559
11
1.15512
21
-4.59628
0
LINE
8
BLACK
6
CONTINUOUS
10
1.15512
20
-4.59628
11
1.15345
21
-4.59559
0
LINE
8
BLACK
6
CONTINUOUS
10
1.15345
20
-4.59559
11
1.15276
21
-4.59392
0
LINE
8
BLACK
6
CONTINUOUS
10
1.15276
20
-4.59392
11
1.15276
21
-4.58285
0
LINE
8
BLACK
6
CONTINUOUS
10
1.15276
20
-4.58285
11
1.15345
21
-4.58118
0
LINE
8
BLACK
6
CONTINUOUS
10
1.15345
20
-4.58118
11
1.15512
21
-4.58049
0
LINE
8
BLACK
6
CONTINUOUS
10
1.15512
20
-4.58049
11
1.15679
21
-4.58118
0
LINE
8
BLACK
6
CONTINUOUS
10
1.19695
20
-4.58118
11
1.19764
21
-4.58285
0
LINE
8
BLACK
6
CONTINUOUS
10
1.19764
20
-4.58285
11
1.19764
21
-4.59392
0
LINE
8
BLACK
6
CONTINUOUS
10
1.19764
20
-4.59392
11
1.19695
21
-4.59559
0
LINE
8
BLACK
6
CONTINUOUS
10
1.19695
20
-4.59559
11
1.19528
21
-4.59628
0
LINE
8
BLACK
6
CONTINUOUS
10
1.19528
20
-4.59628
11
1.19361
21
-4.59559
0
LINE
8
BLACK
6
CONTINUOUS
10
1.19361
20
-4.59559
11
1.19291
21
-4.59392
0
LINE
8
BLACK
6
CONTINUOUS
10
1.19291
20
-4.59392
11
1.19291
21
-4.58285
0
LINE
8
BLACK
6
CONTINUOUS
10
1.19291
20
-4.58285
11
1.19361
21
-4.58118
0
LINE
8
BLACK
6
CONTINUOUS
10
1.19361
20
-4.58118
11
1.19528
21
-4.58049
0
LINE
8
BLACK
6
CONTINUOUS
10
1.19528
20
-4.58049
11
1.19695
21
-4.58118
0
LINE
8
BLACK
6
CONTINUOUS
10
2.15483
20
-4.51199
11
2.15696
21
-4.51383
0
LINE
8
BLACK
6
CONTINUOUS
10
2.15696
20
-4.51383
11
2.15776
21
-4.51654
0
LINE
8
BLACK
6
CONTINUOUS
10
2.15776
20
-4.51654
11
2.15776
21
-4.5874
0
LINE
8
BLACK
6
CONTINUOUS
10
2.15776
20
-4.5874
11
2.15755
21
-4.58881
0
LINE
8
BLACK
6
CONTINUOUS
10
2.15755
20
-4.58881
11
2.15603
21
-4.59118
0
LINE
8
BLACK
6
CONTINUOUS
10
2.15603
20
-4.59118
11
2.15347
21
-4.59235
0
LINE
8
BLACK
6
CONTINUOUS
10
2.15347
20
-4.59235
11
2.15068
21
-4.59195
0
LINE
8
BLACK
6
CONTINUOUS
10
2.15068
20
-4.59195
11
2.14855
21
-4.5901
0
LINE
8
BLACK
6
CONTINUOUS
10
2.14855
20
-4.5901
11
2.14776
21
-4.5874
0
LINE
8
BLACK
6
CONTINUOUS
10
2.14776
20
-4.5874
11
2.14776
21
-4.51654
0
LINE
8
BLACK
6
CONTINUOUS
10
2.14776
20
-4.51654
11
2.14796
21
-4.51513
0
LINE
8
BLACK
6
CONTINUOUS
10
2.14796
20
-4.51513
11
2.14948
21
-4.51276
0
LINE
8
BLACK
6
CONTINUOUS
10
2.14948
20
-4.51276
11
2.15204
21
-4.51159
0
LINE
8
BLACK
6
CONTINUOUS
10
2.15204
20
-4.51159
11
2.15483
21
-4.51199
0
LINE
8
BLACK
6
CONTINUOUS
10
2.27688
20
-4.51199
11
2.27901
21
-4.51383
0
LINE
8
BLACK
6
CONTINUOUS
10
2.27901
20
-4.51383
11
2.2798
21
-4.51654
0
LINE
8
BLACK
6
CONTINUOUS
10
2.2798
20
-4.51654
11
2.2798
21
-4.5874
0
LINE
8
BLACK
6
CONTINUOUS
10
2.2798
20
-4.5874
11
2.2796
21
-4.58881
0
LINE
8
BLACK
6
CONTINUOUS
10
2.2796
20
-4.58881
11
2.27808
21
-4.59118
0
LINE
8
BLACK
6
CONTINUOUS
10
2.27808
20
-4.59118
11
2.27551
21
-4.59235
0
LINE
8
BLACK
6
CONTINUOUS
10
2.27551
20
-4.59235
11
2.27273
21
-4.59195
0
LINE
8
BLACK
6
CONTINUOUS
10
2.27273
20
-4.59195
11
2.2706
21
-4.5901
0
LINE
8
BLACK
6
CONTINUOUS
10
2.2706
20
-4.5901
11
2.2698
21
-4.5874
0
LINE
8
BLACK
6
CONTINUOUS
10
2.2698
20
-4.5874
11
2.2698
21
-4.51654
0
LINE
8
BLACK
6
CONTINUOUS
10
2.2698
20
-4.51654
11
2.27001
21
-4.51513
0
LINE
8
BLACK
6
CONTINUOUS
10
2.27001
20
-4.51513
11
2.27153
21
-4.51276
0
LINE
8
BLACK
6
CONTINUOUS
10
2.27153
20
-4.51276
11
2.27409
21
-4.51159
0
LINE
8
BLACK
6
CONTINUOUS
10
2.27409
20
-4.51159
11
2.27688
21
-4.51199
0
LINE
8
BLACK
6
CONTINUOUS
10
1.59229
20
-4.50864
11
1.59299
21
-4.51056
0
LINE
8
BLACK
6
CONTINUOUS
10
1.59299
20
-4.51056
11
1.59299
21
-4.57757
0
LINE
8
BLACK
6
CONTINUOUS
10
1.59299
20
-4.57757
11
1.59281
21
-4.57859
0
LINE
8
BLACK
6
CONTINUOUS
10
1.59281
20
-4.57859
11
1.5915
21
-4.58016
0
LINE
8
BLACK
6
CONTINUOUS
10
1.5915
20
-4.58016
11
1.58948
21
-4.58052
0
LINE
8
BLACK
6
CONTINUOUS
10
1.58948
20
-4.58052
11
1.58771
21
-4.57949
0
LINE
8
BLACK
6
CONTINUOUS
10
1.58771
20
-4.57949
11
1.58701
21
-4.57757
0
LINE
8
BLACK
6
CONTINUOUS
10
1.58701
20
-4.57757
11
1.58701
21
-4.51056
0
LINE
8
BLACK
6
CONTINUOUS
10
1.58701
20
-4.51056
11
1.58719
21
-4.50954
0
LINE
8
BLACK
6
CONTINUOUS
10
1.58719
20
-4.50954
11
1.5885
21
-4.50797
0
LINE
8
BLACK
6
CONTINUOUS
10
1.5885
20
-4.50797
11
1.59052
21
-4.50761
0
LINE
8
BLACK
6
CONTINUOUS
10
1.59052
20
-4.50761
11
1.59229
21
-4.50864
0
LINE
8
BLACK
6
CONTINUOUS
10
1.63002
20
-4.49203
11
1.63071
21
-4.4937
0
LINE
8
BLACK
6
CONTINUOUS
10
1.63071
20
-4.4937
11
1.63071
21
-4.56457
0
LINE
8
BLACK
6
CONTINUOUS
10
1.63071
20
-4.56457
11
1.63002
21
-4.56624
0
LINE
8
BLACK
6
CONTINUOUS
10
1.63002
20
-4.56624
11
1.62835
21
-4.56693
0
LINE
8
BLACK
6
CONTINUOUS
10
1.62835
20
-4.56693
11
1.62668
21
-4.56624
0
LINE
8
BLACK
6
CONTINUOUS
10
1.62668
20
-4.56624
11
1.62598
21
-4.56457
0
LINE
8
BLACK
6
CONTINUOUS
10
1.62598
20
-4.56457
11
1.62598
21
-4.4937
0
LINE
8
BLACK
6
CONTINUOUS
10
1.62598
20
-4.4937
11
1.62668
21
-4.49203
0
LINE
8
BLACK
6
CONTINUOUS
10
1.62668
20
-4.49203
11
1.62835
21
-4.49134
0
LINE
8
BLACK
6
CONTINUOUS
10
1.62835
20
-4.49134
11
1.63002
21
-4.49203
0
LINE
8
BLACK
6
CONTINUOUS
10
1.99773
20
-4.49203
11
1.99843
21
-4.4937
0
LINE
8
BLACK
6
CONTINUOUS
10
1.99843
20
-4.4937
11
1.99843
21
-4.56457
0
LINE
8
BLACK
6
CONTINUOUS
10
1.99843
20
-4.56457
11
1.99773
21
-4.56624
0
LINE
8
BLACK
6
CONTINUOUS
10
1.99773
20
-4.56624
11
1.99606
21
-4.56693
0
LINE
8
BLACK
6
CONTINUOUS
10
1.99606
20
-4.56693
11
1.99439
21
-4.56624
0
LINE
8
BLACK
6
CONTINUOUS
10
1.99439
20
-4.56624
11
1.9937
21
-4.56457
0
LINE
8
BLACK
6
CONTINUOUS
10
1.9937
20
-4.56457
11
1.9937
21
-4.4937
0
LINE
8
BLACK
6
CONTINUOUS
10
1.9937
20
-4.4937
11
1.99439
21
-4.49203
0
LINE
8
BLACK
6
CONTINUOUS
10
1.99439
20
-4.49203
11
1.99606
21
-4.49134
0
LINE
8
BLACK
6
CONTINUOUS
10
1.99606
20
-4.49134
11
1.99773
21
-4.49203
0
LINE
8
BLACK
6
CONTINUOUS
10
1.28865
20
-4.55465
11
1.29102
21
-4.55617
0
LINE
8
BLACK
6
CONTINUOUS
10
1.29102
20
-4.55617
11
1.29219
21
-4.55874
0
LINE
8
BLACK
6
CONTINUOUS
10
1.29219
20
-4.55874
11
1.29179
21
-4.56153
0
LINE
8
BLACK
6
CONTINUOUS
10
1.29179
20
-4.56153
11
1.28995
21
-4.56366
0
LINE
8
BLACK
6
CONTINUOUS
10
1.28995
20
-4.56366
11
1.28724
21
-4.56445
0
LINE
8
BLACK
6
CONTINUOUS
10
1.28724
20
-4.56445
11
1.25575
21
-4.56445
0
LINE
8
BLACK
6
CONTINUOUS
10
1.25575
20
-4.56445
11
1.25434
21
-4.56425
0
LINE
8
BLACK
6
CONTINUOUS
10
1.25434
20
-4.56425
11
1.25197
21
-4.56272
0
LINE
8
BLACK
6
CONTINUOUS
10
1.25197
20
-4.56272
11
1.2508
21
-4.56016
0
LINE
8
BLACK
6
CONTINUOUS
10
1.2508
20
-4.56016
11
1.2512
21
-4.55737
0
LINE
8
BLACK
6
CONTINUOUS
10
1.2512
20
-4.55737
11
1.25304
21
-4.55524
0
LINE
8
BLACK
6
CONTINUOUS
10
1.25304
20
-4.55524
11
1.25575
21
-4.55445
0
LINE
8
BLACK
6
CONTINUOUS
10
1.25575
20
-4.55445
11
1.28724
21
-4.55445
0
LINE
8
BLACK
6
CONTINUOUS
10
1.28724
20
-4.55445
11
1.28865
21
-4.55465
0
LINE
8
BLACK
6
CONTINUOUS
10
1.21255
20
-4.48403
11
1.21468
21
-4.48588
0
LINE
8
BLACK
6
CONTINUOUS
10
1.21468
20
-4.48588
11
1.21547
21
-4.48858
0
LINE
8
BLACK
6
CONTINUOUS
10
1.21547
20
-4.48858
11
1.21547
21
-4.55945
0
LINE
8
BLACK
6
CONTINUOUS
10
1.21547
20
-4.55945
11
1.21527
21
-4.56086
0
LINE
8
BLACK
6
CONTINUOUS
10
1.21527
20
-4.56086
11
1.21375
21
-4.56323
0
LINE
8
BLACK
6
CONTINUOUS
10
1.21375
20
-4.56323
11
1.21118
21
-4.5644
0
LINE
8
BLACK
6
CONTINUOUS
10
1.21118
20
-4.5644
11
1.2084
21
-4.564
0
LINE
8
BLACK
6
CONTINUOUS
10
1.2084
20
-4.564
11
1.20627
21
-4.56215
0
LINE
8
BLACK
6
CONTINUOUS
10
1.20627
20
-4.56215
11
1.20547
21
-4.55945
0
LINE
8
BLACK
6
CONTINUOUS
10
1.20547
20
-4.55945
11
1.20547
21
-4.48858
0
LINE
8
BLACK
6
CONTINUOUS
10
1.20547
20
-4.48858
11
1.20567
21
-4.48717
0
LINE
8
BLACK
6
CONTINUOUS
10
1.20567
20
-4.48717
11
1.2072
21
-4.4848
0
LINE
8
BLACK
6
CONTINUOUS
10
1.2072
20
-4.4848
11
1.20976
21
-4.48363
0
LINE
8
BLACK
6
CONTINUOUS
10
1.20976
20
-4.48363
11
1.21255
21
-4.48403
0
LINE
8
BLACK
6
CONTINUOUS
10
1.3346
20
-4.48403
11
1.33673
21
-4.48588
0
LINE
8
BLACK
6
CONTINUOUS
10
1.33673
20
-4.48588
11
1.33752
21
-4.48858
0
LINE
8
BLACK
6
CONTINUOUS
10
1.33752
20
-4.48858
11
1.33752
21
-4.55945
0
LINE
8
BLACK
6
CONTINUOUS
10
1.33752
20
-4.55945
11
1.33732
21
-4.56086
0
LINE
8
BLACK
6
CONTINUOUS
10
1.33732
20
-4.56086
11
1.33579
21
-4.56323
0
LINE
8
BLACK
6
CONTINUOUS
10
1.33579
20
-4.56323
11
1.33323
21
-4.5644
0
LINE
8
BLACK
6
CONTINUOUS
10
1.33323
20
-4.5644
11
1.33044
21
-4.564
0
LINE
8
BLACK
6
CONTINUOUS
10
1.33044
20
-4.564
11
1.32831
21
-4.56215
0
LINE
8
BLACK
6
CONTINUOUS
10
1.32831
20
-4.56215
11
1.32752
21
-4.55945
0
LINE
8
BLACK
6
CONTINUOUS
10
1.32752
20
-4.55945
11
1.32752
21
-4.48858
0
LINE
8
BLACK
6
CONTINUOUS
10
1.32752
20
-4.48858
11
1.32772
21
-4.48717
0
LINE
8
BLACK
6
CONTINUOUS
10
1.32772
20
-4.48717
11
1.32925
21
-4.4848
0
LINE
8
BLACK
6
CONTINUOUS
10
1.32925
20
-4.4848
11
1.33181
21
-4.48363
0
LINE
8
BLACK
6
CONTINUOUS
10
1.33181
20
-4.48363
11
1.3346
21
-4.48403
0
LINE
8
BLACK
6
CONTINUOUS
10
1.35256
20
-4.53426
11
1.35325
21
-4.53593
0
LINE
8
BLACK
6
CONTINUOUS
10
1.35325
20
-4.53593
11
1.35325
21
-4.55462
0
LINE
8
BLACK
6
CONTINUOUS
10
1.35325
20
-4.55462
11
1.35256
21
-4.55629
0
LINE
8
BLACK
6
CONTINUOUS
10
1.35256
20
-4.55629
11
1.35089
21
-4.55698
0
LINE
8
BLACK
6
CONTINUOUS
10
1.35089
20
-4.55698
11
1.34922
21
-4.55629
0
LINE
8
BLACK
6
CONTINUOUS
10
1.34922
20
-4.55629
11
1.34852
21
-4.55462
0
LINE
8
BLACK
6
CONTINUOUS
10
1.34852
20
-4.55462
11
1.34852
21
-4.53593
0
LINE
8
BLACK
6
CONTINUOUS
10
1.34852
20
-4.53593
11
1.34922
21
-4.53426
0
LINE
8
BLACK
6
CONTINUOUS
10
1.34922
20
-4.53426
11
1.35089
21
-4.53357
0
LINE
8
BLACK
6
CONTINUOUS
10
1.35089
20
-4.53357
11
1.35256
21
-4.53426
0
LINE
8
BLACK
6
CONTINUOUS
10
1.3937
20
-4.53426
11
1.39439
21
-4.53593
0
LINE
8
BLACK
6
CONTINUOUS
10
1.39439
20
-4.53593
11
1.39439
21
-4.55462
0
LINE
8
BLACK
6
CONTINUOUS
10
1.39439
20
-4.55462
11
1.3937
21
-4.55629
0
LINE
8
BLACK
6
CONTINUOUS
10
1.3937
20
-4.55629
11
1.39203
21
-4.55698
0
LINE
8
BLACK
6
CONTINUOUS
10
1.39203
20
-4.55698
11
1.39036
21
-4.55629
0
LINE
8
BLACK
6
CONTINUOUS
10
1.39036
20
-4.55629
11
1.38967
21
-4.55462
0
LINE
8
BLACK
6
CONTINUOUS
10
1.38967
20
-4.55462
11
1.38967
21
-4.53593
0
LINE
8
BLACK
6
CONTINUOUS
10
1.38967
20
-4.53593
11
1.39036
21
-4.53426
0
LINE
8
BLACK
6
CONTINUOUS
10
1.39036
20
-4.53426
11
1.39203
21
-4.53357
0
LINE
8
BLACK
6
CONTINUOUS
10
1.39203
20
-4.53357
11
1.3937
21
-4.53426
0
LINE
8
BLACK
6
CONTINUOUS
10
1.41506
20
-4.53768
11
1.41575
21
-4.53935
0
LINE
8
BLACK
6
CONTINUOUS
10
1.41575
20
-4.53935
11
1.41575
21
-4.55042
0
LINE
8
BLACK
6
CONTINUOUS
10
1.41575
20
-4.55042
11
1.41506
21
-4.55209
0
LINE
8
BLACK
6
CONTINUOUS
10
1.41506
20
-4.55209
11
1.41339
21
-4.55278
0
LINE
8
BLACK
6
CONTINUOUS
10
1.41339
20
-4.55278
11
1.41172
21
-4.55209
0
LINE
8
BLACK
6
CONTINUOUS
10
1.41172
20
-4.55209
11
1.41102
21
-4.55042
0
LINE
8
BLACK
6
CONTINUOUS
10
1.41102
20
-4.55042
11
1.41102
21
-4.53935
0
LINE
8
BLACK
6
CONTINUOUS
10
1.41102
20
-4.53935
11
1.41172
21
-4.53768
0
LINE
8
BLACK
6
CONTINUOUS
10
1.41172
20
-4.53768
11
1.41339
21
-4.53699
0
LINE
8
BLACK
6
CONTINUOUS
10
1.41339
20
-4.53699
11
1.41506
21
-4.53768
0
LINE
8
BLACK
6
CONTINUOUS
10
1.45521
20
-4.53768
11
1.45591
21
-4.53935
0
LINE
8
BLACK
6
CONTINUOUS
10
1.45591
20
-4.53935
11
1.45591
21
-4.55042
0
LINE
8
BLACK
6
CONTINUOUS
10
1.45591
20
-4.55042
11
1.45521
21
-4.55209
0
LINE
8
BLACK
6
CONTINUOUS
10
1.45521
20
-4.55209
11
1.45354
21
-4.55278
0
LINE
8
BLACK
6
CONTINUOUS
10
1.45354
20
-4.55278
11
1.45187
21
-4.55209
0
LINE
8
BLACK
6
CONTINUOUS
10
1.45187
20
-4.55209
11
1.45118
21
-4.55042
0
LINE
8
BLACK
6
CONTINUOUS
10
1.45118
20
-4.55042
11
1.45118
21
-4.53935
0
LINE
8
BLACK
6
CONTINUOUS
10
1.45118
20
-4.53935
11
1.45187
21
-4.53768
0
LINE
8
BLACK
6
CONTINUOUS
10
1.45187
20
-4.53768
11
1.45354
21
-4.53699
0
LINE
8
BLACK
6
CONTINUOUS
10
1.45354
20
-4.53699
11
1.45521
21
-4.53768
0
LINE
8
BLACK
6
CONTINUOUS
10
1.54968
20
-4.50775
11
1.55125
21
-4.50906
0
LINE
8
BLACK
6
CONTINUOUS
10
1.55125
20
-4.50906
11
1.55161
21
-4.51108
0
LINE
8
BLACK
6
CONTINUOUS
10
1.55161
20
-4.51108
11
1.55058
21
-4.51285
0
LINE
8
BLACK
6
CONTINUOUS
10
1.55058
20
-4.51285
11
1.54866
21
-4.51355
0
LINE
8
BLACK
6
CONTINUOUS
10
1.54866
20
-4.51355
11
1.51118
21
-4.51355
0
LINE
8
BLACK
6
CONTINUOUS
10
1.51118
20
-4.51355
11
1.51016
21
-4.51337
0
LINE
8
BLACK
6
CONTINUOUS
10
1.51016
20
-4.51337
11
1.50859
21
-4.51206
0
LINE
8
BLACK
6
CONTINUOUS
10
1.50859
20
-4.51206
11
1.50823
21
-4.51004
0
LINE
8
BLACK
6
CONTINUOUS
10
1.50823
20
-4.51004
11
1.50926
21
-4.50827
0
LINE
8
BLACK
6
CONTINUOUS
10
1.50926
20
-4.50827
11
1.51118
21
-4.50757
0
LINE
8
BLACK
6
CONTINUOUS
10
1.51118
20
-4.50757
11
1.54866
21
-4.50757
0
LINE
8
BLACK
6
CONTINUOUS
10
1.54866
20
-4.50757
11
1.54968
21
-4.50775
0
LINE
8
BLACK
6
CONTINUOUS
10
1.1563
20
-4.4571
11
1.15699
21
-4.45877
0
LINE
8
BLACK
6
CONTINUOUS
10
1.15699
20
-4.45877
11
1.15699
21
-4.47745
0
LINE
8
BLACK
6
CONTINUOUS
10
1.15699
20
-4.47745
11
1.1563
21
-4.47912
0
LINE
8
BLACK
6
CONTINUOUS
10
1.1563
20
-4.47912
11
1.15463
21
-4.47981
0
LINE
8
BLACK
6
CONTINUOUS
10
1.15463
20
-4.47981
11
1.15296
21
-4.47912
0
LINE
8
BLACK
6
CONTINUOUS
10
1.15296
20
-4.47912
11
1.15226
21
-4.47745
0
LINE
8
BLACK
6
CONTINUOUS
10
1.15226
20
-4.47745
11
1.15226
21
-4.45877
0
LINE
8
BLACK
6
CONTINUOUS
10
1.15226
20
-4.45877
11
1.15296
21
-4.4571
0
LINE
8
BLACK
6
CONTINUOUS
10
1.15296
20
-4.4571
11
1.15463
21
-4.45641
0
LINE
8
BLACK
6
CONTINUOUS
10
1.15463
20
-4.45641
11
1.1563
21
-4.4571
0
LINE
8
BLACK
6
CONTINUOUS
10
1.19744
20
-4.4571
11
1.19813
21
-4.45877
0
LINE
8
BLACK
6
CONTINUOUS
10
1.19813
20
-4.45877
11
1.19813
21
-4.47745
0
LINE
8
BLACK
6
CONTINUOUS
10
1.19813
20
-4.47745
11
1.19744
21
-4.47912
0
LINE
8
BLACK
6
CONTINUOUS
10
1.19744
20
-4.47912
11
1.19577
21
-4.47981
0
LINE
8
BLACK
6
CONTINUOUS
10
1.19577
20
-4.47981
11
1.1941
21
-4.47912
0
LINE
8
BLACK
6
CONTINUOUS
10
1.1941
20
-4.47912
11
1.19341
21
-4.47745
0
LINE
8
BLACK
6
CONTINUOUS
10
1.19341
20
-4.47745
11
1.19341
21
-4.45877
0
LINE
8
BLACK
6
CONTINUOUS
10
1.19341
20
-4.45877
11
1.1941
21
-4.4571
0
LINE
8
BLACK
6
CONTINUOUS
10
1.1941
20
-4.4571
11
1.19577
21
-4.45641
0
LINE
8
BLACK
6
CONTINUOUS
10
1.19577
20
-4.45641
11
1.19744
21
-4.4571
0
LINE
8
BLACK
6
CONTINUOUS
10
1.34032
20
-4.45478
11
1.34357
21
-4.45694
0
LINE
8
BLACK
6
CONTINUOUS
10
1.34357
20
-4.45694
11
1.34573
21
-4.46019
0
LINE
8
BLACK
6
CONTINUOUS
10
1.34573
20
-4.46019
11
1.3465
21
-4.46402
0
LINE
8
BLACK
6
CONTINUOUS
10
1.3465
20
-4.46402
11
1.34573
21
-4.46784
0
LINE
8
BLACK
6
CONTINUOUS
10
1.34573
20
-4.46784
11
1.34357
21
-4.47109
0
LINE
8
BLACK
6
CONTINUOUS
10
1.34357
20
-4.47109
11
1.34032
21
-4.47325
0
LINE
8
BLACK
6
CONTINUOUS
10
1.34032
20
-4.47325
11
1.3365
21
-4.47402
0
LINE
8
BLACK
6
CONTINUOUS
10
1.3365
20
-4.47402
11
1.33267
21
-4.47325
0
LINE
8
BLACK
6
CONTINUOUS
10
1.33267
20
-4.47325
11
1.32943
21
-4.47109
0
LINE
8
BLACK
6
CONTINUOUS
10
1.32943
20
-4.47109
11
1.32726
21
-4.46784
0
LINE
8
BLACK
6
CONTINUOUS
10
1.32726
20
-4.46784
11
1.3265
21
-4.46402
0
LINE
8
BLACK
6
CONTINUOUS
10
1.3265
20
-4.46402
11
1.32726
21
-4.46019
0
LINE
8
BLACK
6
CONTINUOUS
10
1.32726
20
-4.46019
11
1.32943
21
-4.45694
0
LINE
8
BLACK
6
CONTINUOUS
10
1.32943
20
-4.45694
11
1.33267
21
-4.45478
0
LINE
8
BLACK
6
CONTINUOUS
10
1.33267
20
-4.45478
11
1.3365
21
-4.45402
0
LINE
8
BLACK
6
CONTINUOUS
10
1.3365
20
-4.45402
11
1.34032
21
-4.45478
0
LINE
8
BLACK
6
CONTINUOUS
10
2.2165
20
-4.4566
11
2.21719
21
-4.45827
0
LINE
8
BLACK
6
CONTINUOUS
10
2.21719
20
-4.45827
11
2.2165
21
-4.45994
0
LINE
8
BLACK
6
CONTINUOUS
10
2.2165
20
-4.45994
11
2.21483
21
-4.46063
0
LINE
8
BLACK
6
CONTINUOUS
10
2.21483
20
-4.46063
11
2.20376
21
-4.46063
0
LINE
8
BLACK
6
CONTINUOUS
10
2.20376
20
-4.46063
11
2.20209
21
-4.45994
0
LINE
8
BLACK
6
CONTINUOUS
10
2.20209
20
-4.45994
11
2.20139
21
-4.45827
0
LINE
8
BLACK
6
CONTINUOUS
10
2.20139
20
-4.45827
11
2.20209
21
-4.4566
0
LINE
8
BLACK
6
CONTINUOUS
10
2.20209
20
-4.4566
11
2.20376
21
-4.45591
0
LINE
8
BLACK
6
CONTINUOUS
10
2.20376
20
-4.45591
11
2.21483
21
-4.45591
0
LINE
8
BLACK
6
CONTINUOUS
10
2.21483
20
-4.45591
11
2.2165
21
-4.4566
0
LINE
8
BLACK
6
CONTINUOUS
10
1.53026
20
-4.45148
11
1.53095
21
-4.45315
0
LINE
8
BLACK
6
CONTINUOUS
10
1.53095
20
-4.45315
11
1.53026
21
-4.45482
0
LINE
8
BLACK
6
CONTINUOUS
10
1.53026
20
-4.45482
11
1.52859
21
-4.45551
0
LINE
8
BLACK
6
CONTINUOUS
10
1.52859
20
-4.45551
11
1.51752
21
-4.45551
0
LINE
8
BLACK
6
CONTINUOUS
10
1.51752
20
-4.45551
11
1.51585
21
-4.45482
0
LINE
8
BLACK
6
CONTINUOUS
10
1.51585
20
-4.45482
11
1.51515
21
-4.45315
0
LINE
8
BLACK
6
CONTINUOUS
10
1.51515
20
-4.45315
11
1.51585
21
-4.45148
0
LINE
8
BLACK
6
CONTINUOUS
10
1.51585
20
-4.45148
11
1.51752
21
-4.45079
0
LINE
8
BLACK
6
CONTINUOUS
10
1.51752
20
-4.45079
11
1.52859
21
-4.45079
0
LINE
8
BLACK
6
CONTINUOUS
10
1.52859
20
-4.45079
11
1.53026
21
-4.45148
0
LINE
8
BLACK
6
CONTINUOUS
10
1.28319
20
-4.42864
11
1.28388
21
-4.43031
0
LINE
8
BLACK
6
CONTINUOUS
10
1.28388
20
-4.43031
11
1.28319
21
-4.43199
0
LINE
8
BLACK
6
CONTINUOUS
10
1.28319
20
-4.43199
11
1.28152
21
-4.43268
0
LINE
8
BLACK
6
CONTINUOUS
10
1.28152
20
-4.43268
11
1.27045
21
-4.43268
0
LINE
8
BLACK
6
CONTINUOUS
10
1.27045
20
-4.43268
11
1.26878
21
-4.43199
0
LINE
8
BLACK
6
CONTINUOUS
10
1.26878
20
-4.43199
11
1.26809
21
-4.43031
0
LINE
8
BLACK
6
CONTINUOUS
10
1.26809
20
-4.43031
11
1.26878
21
-4.42864
0
LINE
8
BLACK
6
CONTINUOUS
10
1.26878
20
-4.42864
11
1.27045
21
-4.42795
0
LINE
8
BLACK
6
CONTINUOUS
10
1.27045
20
-4.42795
11
1.28152
21
-4.42795
0
LINE
8
BLACK
6
CONTINUOUS
10
1.28152
20
-4.42795
11
1.28319
21
-4.42864
0
LINE
8
BLACK
6
CONTINUOUS
10
2.2165
20
-4.41644
11
2.21719
21
-4.41811
0
LINE
8
BLACK
6
CONTINUOUS
10
2.21719
20
-4.41811
11
2.2165
21
-4.41978
0
LINE
8
BLACK
6
CONTINUOUS
10
2.2165
20
-4.41978
11
2.21483
21
-4.42047
0
LINE
8
BLACK
6
CONTINUOUS
10
2.21483
20
-4.42047
11
2.20376
21
-4.42047
0
LINE
8
BLACK
6
CONTINUOUS
10
2.20376
20
-4.42047
11
2.20209
21
-4.41978
0
LINE
8
BLACK
6
CONTINUOUS
10
2.20209
20
-4.41978
11
2.20139
21
-4.41811
0
LINE
8
BLACK
6
CONTINUOUS
10
2.20139
20
-4.41811
11
2.20209
21
-4.41644
0
LINE
8
BLACK
6
CONTINUOUS
10
2.20209
20
-4.41644
11
2.20376
21
-4.41575
0
LINE
8
BLACK
6
CONTINUOUS
10
2.20376
20
-4.41575
11
2.21483
21
-4.41575
0
LINE
8
BLACK
6
CONTINUOUS
10
2.21483
20
-4.41575
11
2.2165
21
-4.41644
0
LINE
8
BLACK
6
CONTINUOUS
10
1.53026
20
-4.41132
11
1.53095
21
-4.41299
0
LINE
8
BLACK
6
CONTINUOUS
10
1.53095
20
-4.41299
11
1.53026
21
-4.41466
0
LINE
8
BLACK
6
CONTINUOUS
10
1.53026
20
-4.41466
11
1.52859
21
-4.41535
0
LINE
8
BLACK
6
CONTINUOUS
10
1.52859
20
-4.41535
11
1.51752
21
-4.41535
0
LINE
8
BLACK
6
CONTINUOUS
10
1.51752
20
-4.41535
11
1.51585
21
-4.41466
0
LINE
8
BLACK
6
CONTINUOUS
10
1.51585
20
-4.41466
11
1.51515
21
-4.41299
0
LINE
8
BLACK
6
CONTINUOUS
10
1.51515
20
-4.41299
11
1.51585
21
-4.41132
0
LINE
8
BLACK
6
CONTINUOUS
10
1.51585
20
-4.41132
11
1.51752
21
-4.41063
0
LINE
8
BLACK
6
CONTINUOUS
10
1.51752
20
-4.41063
11
1.52859
21
-4.41063
0
LINE
8
BLACK
6
CONTINUOUS
10
1.52859
20
-4.41063
11
1.53026
21
-4.41132
0
LINE
8
BLACK
6
CONTINUOUS
10
1.28319
20
-4.38849
11
1.28388
21
-4.39016
0
LINE
8
BLACK
6
CONTINUOUS
10
1.28388
20
-4.39016
11
1.28319
21
-4.39183
0
LINE
8
BLACK
6
CONTINUOUS
10
1.28319
20
-4.39183
11
1.28152
21
-4.39252
0
LINE
8
BLACK
6
CONTINUOUS
10
1.28152
20
-4.39252
11
1.27045
21
-4.39252
0
LINE
8
BLACK
6
CONTINUOUS
10
1.27045
20
-4.39252
11
1.26878
21
-4.39183
0
LINE
8
BLACK
6
CONTINUOUS
10
1.26878
20
-4.39183
11
1.26809
21
-4.39016
0
LINE
8
BLACK
6
CONTINUOUS
10
1.26809
20
-4.39016
11
1.26878
21
-4.38849
0
LINE
8
BLACK
6
CONTINUOUS
10
1.26878
20
-4.38849
11
1.27045
21
-4.3878
0
LINE
8
BLACK
6
CONTINUOUS
10
1.27045
20
-4.3878
11
1.28152
21
-4.3878
0
LINE
8
BLACK
6
CONTINUOUS
10
1.28152
20
-4.3878
11
1.28319
21
-4.38849
0
LINE
8
BLACK
6
CONTINUOUS
10
2.23248
20
-4.375
11
2.30925
21
-4.375
0
LINE
8
BLACK
6
CONTINUOUS
10
2.30925
20
-4.375
11
2.31092
21
-4.37569
0
LINE
8
BLACK
6
CONTINUOUS
10
2.31092
20
-4.37569
11
2.31161
21
-4.37736
0
LINE
8
BLACK
6
CONTINUOUS
10
2.31161
20
-4.37736
11
2.31092
21
-4.37903
0
LINE
8
BLACK
6
CONTINUOUS
10
2.31092
20
-4.37903
11
2.30925
21
-4.37972
0
LINE
8
BLACK
6
CONTINUOUS
10
2.30925
20
-4.37972
11
2.23248
21
-4.37972
0
LINE
8
BLACK
6
CONTINUOUS
10
2.23248
20
-4.37972
11
2.15571
21
-4.37972
0
LINE
8
BLACK
6
CONTINUOUS
10
2.15571
20
-4.37972
11
2.15404
21
-4.37903
0
LINE
8
BLACK
6
CONTINUOUS
10
2.15404
20
-4.37903
11
2.15335
21
-4.37736
0
LINE
8
BLACK
6
CONTINUOUS
10
2.15335
20
-4.37736
11
2.15404
21
-4.37569
0
LINE
8
BLACK
6
CONTINUOUS
10
2.15404
20
-4.37569
11
2.15571
21
-4.375
0
LINE
8
BLACK
6
CONTINUOUS
10
2.15571
20
-4.375
11
2.23248
21
-4.375
0
LINE
8
BLACK
6
CONTINUOUS
10
1.67086
20
-4.30415
11
1.67156
21
-4.30582
0
LINE
8
BLACK
6
CONTINUOUS
10
1.67156
20
-4.30582
11
1.67156
21
-4.3245
0
LINE
8
BLACK
6
CONTINUOUS
10
1.67156
20
-4.3245
11
1.67086
21
-4.32617
0
LINE
8
BLACK
6
CONTINUOUS
10
1.67086
20
-4.32617
11
1.66919
21
-4.32686
0
LINE
8
BLACK
6
CONTINUOUS
10
1.66919
20
-4.32686
11
1.66752
21
-4.32617
0
LINE
8
BLACK
6
CONTINUOUS
10
1.66752
20
-4.32617
11
1.66683
21
-4.3245
0
LINE
8
BLACK
6
CONTINUOUS
10
1.66683
20
-4.3245
11
1.66683
21
-4.30582
0
LINE
8
BLACK
6
CONTINUOUS
10
1.66683
20
-4.30582
11
1.66752
21
-4.30415
0
LINE
8
BLACK
6
CONTINUOUS
10
1.66752
20
-4.30415
11
1.66919
21
-4.30345
0
LINE
8
BLACK
6
CONTINUOUS
10
1.66919
20
-4.30345
11
1.67086
21
-4.30415
0
LINE
8
BLACK
6
CONTINUOUS
10
1.712
20
-4.30415
11
1.7127
21
-4.30582
0
LINE
8
BLACK
6
CONTINUOUS
10
1.7127
20
-4.30582
11
1.7127
21
-4.3245
0
LINE
8
BLACK
6
CONTINUOUS
10
1.7127
20
-4.3245
11
1.712
21
-4.32617
0
LINE
8
BLACK
6
CONTINUOUS
10
1.712
20
-4.32617
11
1.71033
21
-4.32686
0
LINE
8
BLACK
6
CONTINUOUS
10
1.71033
20
-4.32686
11
1.70866
21
-4.32617
0
LINE
8
BLACK
6
CONTINUOUS
10
1.70866
20
-4.32617
11
1.70797
21
-4.3245
0
LINE
8
BLACK
6
CONTINUOUS
10
1.70797
20
-4.3245
11
1.70797
21
-4.30582
0
LINE
8
BLACK
6
CONTINUOUS
10
1.70797
20
-4.30582
11
1.70866
21
-4.30415
0
LINE
8
BLACK
6
CONTINUOUS
10
1.70866
20
-4.30415
11
1.71033
21
-4.30345
0
LINE
8
BLACK
6
CONTINUOUS
10
1.71033
20
-4.30345
11
1.712
21
-4.30415
0
LINE
8
BLACK
6
CONTINUOUS
10
1.73071
20
-4.30415
11
1.7314
21
-4.30582
0
LINE
8
BLACK
6
CONTINUOUS
10
1.7314
20
-4.30582
11
1.7314
21
-4.3245
0
LINE
8
BLACK
6
CONTINUOUS
10
1.7314
20
-4.3245
11
1.73071
21
-4.32617
0
LINE
8
BLACK
6
CONTINUOUS
10
1.73071
20
-4.32617
11
1.72904
21
-4.32686
0
LINE
8
BLACK
6
CONTINUOUS
10
1.72904
20
-4.32686
11
1.72737
21
-4.32617
0
LINE
8
BLACK
6
CONTINUOUS
10
1.72737
20
-4.32617
11
1.72667
21
-4.3245
0
LINE
8
BLACK
6
CONTINUOUS
10
1.72667
20
-4.3245
11
1.72667
21
-4.30582
0
LINE
8
BLACK
6
CONTINUOUS
10
1.72667
20
-4.30582
11
1.72737
21
-4.30415
0
LINE
8
BLACK
6
CONTINUOUS
10
1.72737
20
-4.30415
11
1.72904
21
-4.30345
0
LINE
8
BLACK
6
CONTINUOUS
10
1.72904
20
-4.30345
11
1.73071
21
-4.30415
0
LINE
8
BLACK
6
CONTINUOUS
10
1.77185
20
-4.30415
11
1.77254
21
-4.30582
0
LINE
8
BLACK
6
CONTINUOUS
10
1.77254
20
-4.30582
11
1.77254
21
-4.3245
0
LINE
8
BLACK
6
CONTINUOUS
10
1.77254
20
-4.3245
11
1.77185
21
-4.32617
0
LINE
8
BLACK
6
CONTINUOUS
10
1.77185
20
-4.32617
11
1.77018
21
-4.32686
0
LINE
8
BLACK
6
CONTINUOUS
10
1.77018
20
-4.32686
11
1.76851
21
-4.32617
0
LINE
8
BLACK
6
CONTINUOUS
10
1.76851
20
-4.32617
11
1.76781
21
-4.3245
0
LINE
8
BLACK
6
CONTINUOUS
10
1.76781
20
-4.3245
11
1.76781
21
-4.30582
0
LINE
8
BLACK
6
CONTINUOUS
10
1.76781
20
-4.30582
11
1.76851
21
-4.30415
0
LINE
8
BLACK
6
CONTINUOUS
10
1.76851
20
-4.30415
11
1.77018
21
-4.30345
0
LINE
8
BLACK
6
CONTINUOUS
10
1.77018
20
-4.30345
11
1.77185
21
-4.30415
0
LINE
8
BLACK
6
CONTINUOUS
10
1.79055
20
-4.30415
11
1.79124
21
-4.30582
0
LINE
8
BLACK
6
CONTINUOUS
10
1.79124
20
-4.30582
11
1.79124
21
-4.3245
0
LINE
8
BLACK
6
CONTINUOUS
10
1.79124
20
-4.3245
11
1.79055
21
-4.32617
0
LINE
8
BLACK
6
CONTINUOUS
10
1.79055
20
-4.32617
11
1.78888
21
-4.32686
0
LINE
8
BLACK
6
CONTINUOUS
10
1.78888
20
-4.32686
11
1.78721
21
-4.32617
0
LINE
8
BLACK
6
CONTINUOUS
10
1.78721
20
-4.32617
11
1.78652
21
-4.3245
0
LINE
8
BLACK
6
CONTINUOUS
10
1.78652
20
-4.3245
11
1.78652
21
-4.30582
0
LINE
8
BLACK
6
CONTINUOUS
10
1.78652
20
-4.30582
11
1.78721
21
-4.30415
0
LINE
8
BLACK
6
CONTINUOUS
10
1.78721
20
-4.30415
11
1.78888
21
-4.30345
0
LINE
8
BLACK
6
CONTINUOUS
10
1.78888
20
-4.30345
11
1.79055
21
-4.30415
0
LINE
8
BLACK
6
CONTINUOUS
10
1.83169
20
-4.30415
11
1.83238
21
-4.30582
0
LINE
8
BLACK
6
CONTINUOUS
10
1.83238
20
-4.30582
11
1.83238
21
-4.3245
0
LINE
8
BLACK
6
CONTINUOUS
10
1.83238
20
-4.3245
11
1.83169
21
-4.32617
0
LINE
8
BLACK
6
CONTINUOUS
10
1.83169
20
-4.32617
11
1.83002
21
-4.32686
0
LINE
8
BLACK
6
CONTINUOUS
10
1.83002
20
-4.32686
11
1.82835
21
-4.32617
0
LINE
8
BLACK
6
CONTINUOUS
10
1.82835
20
-4.32617
11
1.82766
21
-4.3245
0
LINE
8
BLACK
6
CONTINUOUS
10
1.82766
20
-4.3245
11
1.82766
21
-4.30582
0
LINE
8
BLACK
6
CONTINUOUS
10
1.82766
20
-4.30582
11
1.82835
21
-4.30415
0
LINE
8
BLACK
6
CONTINUOUS
10
1.82835
20
-4.30415
11
1.83002
21
-4.30345
0
LINE
8
BLACK
6
CONTINUOUS
10
1.83002
20
-4.30345
11
1.83169
21
-4.30415
0
LINE
8
BLACK
6
CONTINUOUS
10
1.85039
20
-4.30415
11
1.85108
21
-4.30582
0
LINE
8
BLACK
6
CONTINUOUS
10
1.85108
20
-4.30582
11
1.85108
21
-4.3245
0
LINE
8
BLACK
6
CONTINUOUS
10
1.85108
20
-4.3245
11
1.85039
21
-4.32617
0
LINE
8
BLACK
6
CONTINUOUS
10
1.85039
20
-4.32617
11
1.84872
21
-4.32686
0
LINE
8
BLACK
6
CONTINUOUS
10
1.84872
20
-4.32686
11
1.84705
21
-4.32617
0
LINE
8
BLACK
6
CONTINUOUS
10
1.84705
20
-4.32617
11
1.84636
21
-4.3245
0
LINE
8
BLACK
6
CONTINUOUS
10
1.84636
20
-4.3245
11
1.84636
21
-4.30582
0
LINE
8
BLACK
6
CONTINUOUS
10
1.84636
20
-4.30582
11
1.84705
21
-4.30415
0
LINE
8
BLACK
6
CONTINUOUS
10
1.84705
20
-4.30415
11
1.84872
21
-4.30345
0
LINE
8
BLACK
6
CONTINUOUS
10
1.84872
20
-4.30345
11
1.85039
21
-4.30415
0
LINE
8
BLACK
6
CONTINUOUS
10
1.89153
20
-4.30415
11
1.89222
21
-4.30582
0
LINE
8
BLACK
6
CONTINUOUS
10
1.89222
20
-4.30582
11
1.89222
21
-4.3245
0
LINE
8
BLACK
6
CONTINUOUS
10
1.89222
20
-4.3245
11
1.89153
21
-4.32617
0
LINE
8
BLACK
6
CONTINUOUS
10
1.89153
20
-4.32617
11
1.88986
21
-4.32686
0
LINE
8
BLACK
6
CONTINUOUS
10
1.88986
20
-4.32686
11
1.88819
21
-4.32617
0
LINE
8
BLACK
6
CONTINUOUS
10
1.88819
20
-4.32617
11
1.8875
21
-4.3245
0
LINE
8
BLACK
6
CONTINUOUS
10
1.8875
20
-4.3245
11
1.8875
21
-4.30582
0
LINE
8
BLACK
6
CONTINUOUS
10
1.8875
20
-4.30582
11
1.88819
21
-4.30415
0
LINE
8
BLACK
6
CONTINUOUS
10
1.88819
20
-4.30415
11
1.88986
21
-4.30345
0
LINE
8
BLACK
6
CONTINUOUS
10
1.88986
20
-4.30345
11
1.89153
21
-4.30415
0
LINE
8
BLACK
6
CONTINUOUS
10
1.91102
20
-4.30415
11
1.91171
21
-4.30582
0
LINE
8
BLACK
6
CONTINUOUS
10
1.91171
20
-4.30582
11
1.91171
21
-4.3245
0
LINE
8
BLACK
6
CONTINUOUS
10
1.91171
20
-4.3245
11
1.91102
21
-4.32617
0
LINE
8
BLACK
6
CONTINUOUS
10
1.91102
20
-4.32617
11
1.90935
21
-4.32686
0
LINE
8
BLACK
6
CONTINUOUS
10
1.90935
20
-4.32686
11
1.90768
21
-4.32617
0
LINE
8
BLACK
6
CONTINUOUS
10
1.90768
20
-4.32617
11
1.90699
21
-4.3245
0
LINE
8
BLACK
6
CONTINUOUS
10
1.90699
20
-4.3245
11
1.90699
21
-4.30582
0
LINE
8
BLACK
6
CONTINUOUS
10
1.90699
20
-4.30582
11
1.90768
21
-4.30415
0
LINE
8
BLACK
6
CONTINUOUS
10
1.90768
20
-4.30415
11
1.90935
21
-4.30345
0
LINE
8
BLACK
6
CONTINUOUS
10
1.90935
20
-4.30345
11
1.91102
21
-4.30415
0
LINE
8
BLACK
6
CONTINUOUS
10
1.95216
20
-4.30415
11
1.95285
21
-4.30582
0
LINE
8
BLACK
6
CONTINUOUS
10
1.95285
20
-4.30582
11
1.95285
21
-4.3245
0
LINE
8
BLACK
6
CONTINUOUS
10
1.95285
20
-4.3245
11
1.95216
21
-4.32617
0
LINE
8
BLACK
6
CONTINUOUS
10
1.95216
20
-4.32617
11
1.95049
21
-4.32686
0
LINE
8
BLACK
6
CONTINUOUS
10
1.95049
20
-4.32686
11
1.94882
21
-4.32617
0
LINE
8
BLACK
6
CONTINUOUS
10
1.94882
20
-4.32617
11
1.94813
21
-4.3245
0
LINE
8
BLACK
6
CONTINUOUS
10
1.94813
20
-4.3245
11
1.94813
21
-4.30582
0
LINE
8
BLACK
6
CONTINUOUS
10
1.94813
20
-4.30582
11
1.94882
21
-4.30415
0
LINE
8
BLACK
6
CONTINUOUS
10
1.94882
20
-4.30415
11
1.95049
21
-4.30345
0
LINE
8
BLACK
6
CONTINUOUS
10
1.95049
20
-4.30345
11
1.95216
21
-4.30415
0
LINE
8
BLACK
6
CONTINUOUS
10
1.60729
20
-4.18804
11
1.60799
21
-4.18996
0
LINE
8
BLACK
6
CONTINUOUS
10
1.60799
20
-4.18996
11
1.60799
21
-4.2522
0
LINE
8
BLACK
6
CONTINUOUS
10
1.60799
20
-4.2522
11
1.67811
21
-4.2522
0
LINE
8
BLACK
6
CONTINUOUS
10
1.67811
20
-4.2522
11
1.67913
21
-4.25239
0
LINE
8
BLACK
6
CONTINUOUS
10
1.67913
20
-4.25239
11
1.6807
21
-4.2537
0
LINE
8
BLACK
6
CONTINUOUS
10
1.6807
20
-4.2537
11
1.68106
21
-4.25572
0
LINE
8
BLACK
6
CONTINUOUS
10
1.68106
20
-4.25572
11
1.68003
21
-4.25749
0
LINE
8
BLACK
6
CONTINUOUS
10
1.68003
20
-4.25749
11
1.67811
21
-4.25819
0
LINE
8
BLACK
6
CONTINUOUS
10
1.67811
20
-4.25819
11
1.605
21
-4.25819
0
LINE
8
BLACK
6
CONTINUOUS
10
1.605
20
-4.25819
11
1.60461
21
-4.25812
0
LINE
8
BLACK
6
CONTINUOUS
10
1.60461
20
-4.25812
11
1.60448
21
-4.25814
0
LINE
8
BLACK
6
CONTINUOUS
10
1.60448
20
-4.25814
11
1.60437
21
-4.25808
0
LINE
8
BLACK
6
CONTINUOUS
10
1.60437
20
-4.25808
11
1.60398
21
-4.25801
0
LINE
8
BLACK
6
CONTINUOUS
10
1.60398
20
-4.25801
11
1.60338
21
-4.25751
0
LINE
8
BLACK
6
CONTINUOUS
10
1.60338
20
-4.25751
11
1.60271
21
-4.25712
0
LINE
8
BLACK
6
CONTINUOUS
10
1.60271
20
-4.25712
11
1.60262
21
-4.25687
0
LINE
8
BLACK
6
CONTINUOUS
10
1.60262
20
-4.25687
11
1.60241
21
-4.25669
0
LINE
8
BLACK
6
CONTINUOUS
10
1.60241
20
-4.25669
11
1.60227
21
-4.25593
0
LINE
8
BLACK
6
CONTINUOUS
10
1.60227
20
-4.25593
11
1.60201
21
-4.2552
0
LINE
8
BLACK
6
CONTINUOUS
10
1.60201
20
-4.2552
11
1.60201
21
-4.18996
0
LINE
8
BLACK
6
CONTINUOUS
10
1.60201
20
-4.18996
11
1.60219
21
-4.18894
0
LINE
8
BLACK
6
CONTINUOUS
10
1.60219
20
-4.18894
11
1.6035
21
-4.18737
0
LINE
8
BLACK
6
CONTINUOUS
10
1.6035
20
-4.18737
11
1.60552
21
-4.18701
0
LINE
8
BLACK
6
CONTINUOUS
10
1.60552
20
-4.18701
11
1.60729
21
-4.18804
0
LINE
8
BLACK
6
CONTINUOUS
10
1.77413
20
-4.11109
11
1.77426
21
-4.11107
0
LINE
8
BLACK
6
CONTINUOUS
10
1.77426
20
-4.11107
11
1.77437
21
-4.11114
0
LINE
8
BLACK
6
CONTINUOUS
10
1.77437
20
-4.11114
11
1.77476
21
-4.1112
0
LINE
8
BLACK
6
CONTINUOUS
10
1.77476
20
-4.1112
11
1.77536
21
-4.1117
0
LINE
8
BLACK
6
CONTINUOUS
10
1.77536
20
-4.1117
11
1.77603
21
-4.11209
0
LINE
8
BLACK
6
CONTINUOUS
10
1.77603
20
-4.11209
11
1.77612
21
-4.11235
0
LINE
8
BLACK
6
CONTINUOUS
10
1.77612
20
-4.11235
11
1.77633
21
-4.11252
0
LINE
8
BLACK
6
CONTINUOUS
10
1.77633
20
-4.11252
11
1.77647
21
-4.11329
0
LINE
8
BLACK
6
CONTINUOUS
10
1.77647
20
-4.11329
11
1.77673
21
-4.11402
0
LINE
8
BLACK
6
CONTINUOUS
10
1.77673
20
-4.11402
11
1.77673
21
-4.24618
0
LINE
8
BLACK
6
CONTINUOUS
10
1.77673
20
-4.24618
11
1.77666
21
-4.24657
0
LINE
8
BLACK
6
CONTINUOUS
10
1.77666
20
-4.24657
11
1.77669
21
-4.2467
0
LINE
8
BLACK
6
CONTINUOUS
10
1.77669
20
-4.2467
11
1.77662
21
-4.24682
0
LINE
8
BLACK
6
CONTINUOUS
10
1.77662
20
-4.24682
11
1.77655
21
-4.2472
0
LINE
8
BLACK
6
CONTINUOUS
10
1.77655
20
-4.2472
11
1.77605
21
-4.2478
0
LINE
8
BLACK
6
CONTINUOUS
10
1.77605
20
-4.2478
11
1.77566
21
-4.24847
0
LINE
8
BLACK
6
CONTINUOUS
10
1.77566
20
-4.24847
11
1.77541
21
-4.24857
0
LINE
8
BLACK
6
CONTINUOUS
10
1.77541
20
-4.24857
11
1.77524
21
-4.24877
0
LINE
8
BLACK
6
CONTINUOUS
10
1.77524
20
-4.24877
11
1.77447
21
-4.24891
0
LINE
8
BLACK
6
CONTINUOUS
10
1.77447
20
-4.24891
11
1.77374
21
-4.24917
0
LINE
8
BLACK
6
CONTINUOUS
10
1.77374
20
-4.24917
11
1.61398
21
-4.24917
0
LINE
8
BLACK
6
CONTINUOUS
10
1.61398
20
-4.24917
11
1.61359
21
-4.2491
0
LINE
8
BLACK
6
CONTINUOUS
10
1.61359
20
-4.2491
11
1.61346
21
-4.24913
0
LINE
8
BLACK
6
CONTINUOUS
10
1.61346
20
-4.24913
11
1.61334
21
-4.24906
0
LINE
8
BLACK
6
CONTINUOUS
10
1.61334
20
-4.24906
11
1.61295
21
-4.24899
0
LINE
8
BLACK
6
CONTINUOUS
10
1.61295
20
-4.24899
11
1.61236
21
-4.24849
0
LINE
8
BLACK
6
CONTINUOUS
10
1.61236
20
-4.24849
11
1.61168
21
-4.2481
0
LINE
8
BLACK
6
CONTINUOUS
10
1.61168
20
-4.2481
11
1.61159
21
-4.24785
0
LINE
8
BLACK
6
CONTINUOUS
10
1.61159
20
-4.24785
11
1.61139
21
-4.24768
0
LINE
8
BLACK
6
CONTINUOUS
10
1.61139
20
-4.24768
11
1.61125
21
-4.24691
0
LINE
8
BLACK
6
CONTINUOUS
10
1.61125
20
-4.24691
11
1.61098
21
-4.24618
0
LINE
8
BLACK
6
CONTINUOUS
10
1.61098
20
-4.24618
11
1.61098
21
-4.11402
0
LINE
8
BLACK
6
CONTINUOUS
10
1.61098
20
-4.11402
11
1.61105
21
-4.11363
0
LINE
8
BLACK
6
CONTINUOUS
10
1.61105
20
-4.11363
11
1.61103
21
-4.1135
0
LINE
8
BLACK
6
CONTINUOUS
10
1.61103
20
-4.1135
11
1.6111
21
-4.11338
0
LINE
8
BLACK
6
CONTINUOUS
10
1.6111
20
-4.11338
11
1.61116
21
-4.11299
0
LINE
8
BLACK
6
CONTINUOUS
10
1.61116
20
-4.11299
11
1.61166
21
-4.1124
0
LINE
8
BLACK
6
CONTINUOUS
10
1.61166
20
-4.1124
11
1.61205
21
-4.11172
0
LINE
8
BLACK
6
CONTINUOUS
10
1.61205
20
-4.11172
11
1.61231
21
-4.11163
0
LINE
8
BLACK
6
CONTINUOUS
10
1.61231
20
-4.11163
11
1.61248
21
-4.11142
0
LINE
8
BLACK
6
CONTINUOUS
10
1.61248
20
-4.11142
11
1.61325
21
-4.11129
0
LINE
8
BLACK
6
CONTINUOUS
10
1.61325
20
-4.11129
11
1.61398
21
-4.11102
0
LINE
8
BLACK
6
CONTINUOUS
10
1.61398
20
-4.11102
11
1.77374
21
-4.11102
0
LINE
8
BLACK
6
CONTINUOUS
10
1.77374
20
-4.11102
11
1.77413
21
-4.11109
0
LINE
8
BLACK
6
CONTINUOUS
10
1.61697
20
-4.11701
11
1.61697
21
-4.24319
0
LINE
8
BLACK
6
CONTINUOUS
10
1.61697
20
-4.24319
11
1.77075
21
-4.24319
0
LINE
8
BLACK
6
CONTINUOUS
10
1.77075
20
-4.24319
11
1.77075
21
-4.11701
0
LINE
8
BLACK
6
CONTINUOUS
10
1.77075
20
-4.11701
11
1.61697
21
-4.11701
0
LINE
8
BLACK
6
CONTINUOUS
10
1.91417
20
-4.15907
11
1.91486
21
-4.16074
0
LINE
8
BLACK
6
CONTINUOUS
10
1.91486
20
-4.16074
11
1.91486
21
-4.17942
0
LINE
8
BLACK
6
CONTINUOUS
10
1.91486
20
-4.17942
11
1.91417
21
-4.18109
0
LINE
8
BLACK
6
CONTINUOUS
10
1.91417
20
-4.18109
11
1.9125
21
-4.18178
0
LINE
8
BLACK
6
CONTINUOUS
10
1.9125
20
-4.18178
11
1.91083
21
-4.18109
0
LINE
8
BLACK
6
CONTINUOUS
10
1.91083
20
-4.18109
11
1.91014
21
-4.17942
0
LINE
8
BLACK
6
CONTINUOUS
10
1.91014
20
-4.17942
11
1.91014
21
-4.16074
0
LINE
8
BLACK
6
CONTINUOUS
10
1.91014
20
-4.16074
11
1.91083
21
-4.15907
0
LINE
8
BLACK
6
CONTINUOUS
10
1.91083
20
-4.15907
11
1.9125
21
-4.15838
0
LINE
8
BLACK
6
CONTINUOUS
10
1.9125
20
-4.15838
11
1.91417
21
-4.15907
0
LINE
8
BLACK
6
CONTINUOUS
10
1.95531
20
-4.15907
11
1.956
21
-4.16074
0
LINE
8
BLACK
6
CONTINUOUS
10
1.956
20
-4.16074
11
1.956
21
-4.17942
0
LINE
8
BLACK
6
CONTINUOUS
10
1.956
20
-4.17942
11
1.95531
21
-4.18109
0
LINE
8
BLACK
6
CONTINUOUS
10
1.95531
20
-4.18109
11
1.95364
21
-4.18178
0
LINE
8
BLACK
6
CONTINUOUS
10
1.95364
20
-4.18178
11
1.95197
21
-4.18109
0
LINE
8
BLACK
6
CONTINUOUS
10
1.95197
20
-4.18109
11
1.95128
21
-4.17942
0
LINE
8
BLACK
6
CONTINUOUS
10
1.95128
20
-4.17942
11
1.95128
21
-4.16074
0
LINE
8
BLACK
6
CONTINUOUS
10
1.95128
20
-4.16074
11
1.95197
21
-4.15907
0
LINE
8
BLACK
6
CONTINUOUS
10
1.95197
20
-4.15907
11
1.95364
21
-4.15838
0
LINE
8
BLACK
6
CONTINUOUS
10
1.95364
20
-4.15838
11
1.95531
21
-4.15907
0
LINE
8
BLACK
6
CONTINUOUS
10
1.55167
20
-4.16307
11
1.55236
21
-4.16474
0
LINE
8
BLACK
6
CONTINUOUS
10
1.55236
20
-4.16474
11
1.55236
21
-4.17581
0
LINE
8
BLACK
6
CONTINUOUS
10
1.55236
20
-4.17581
11
1.55167
21
-4.17748
0
LINE
8
BLACK
6
CONTINUOUS
10
1.55167
20
-4.17748
11
1.55
21
-4.17817
0
LINE
8
BLACK
6
CONTINUOUS
10
1.55
20
-4.17817
11
1.54833
21
-4.17748
0
LINE
8
BLACK
6
CONTINUOUS
10
1.54833
20
-4.17748
11
1.54764
21
-4.17581
0
LINE
8
BLACK
6
CONTINUOUS
10
1.54764
20
-4.17581
11
1.54764
21
-4.16474
0
LINE
8
BLACK
6
CONTINUOUS
10
1.54764
20
-4.16474
11
1.54833
21
-4.16307
0
LINE
8
BLACK
6
CONTINUOUS
10
1.54833
20
-4.16307
11
1.55
21
-4.16238
0
LINE
8
BLACK
6
CONTINUOUS
10
1.55
20
-4.16238
11
1.55167
21
-4.16307
0
LINE
8
BLACK
6
CONTINUOUS
10
1.59183
20
-4.16307
11
1.59252
21
-4.16474
0
LINE
8
BLACK
6
CONTINUOUS
10
1.59252
20
-4.16474
11
1.59252
21
-4.17581
0
LINE
8
BLACK
6
CONTINUOUS
10
1.59252
20
-4.17581
11
1.59183
21
-4.17748
0
LINE
8
BLACK
6
CONTINUOUS
10
1.59183
20
-4.17748
11
1.59016
21
-4.17817
0
LINE
8
BLACK
6
CONTINUOUS
10
1.59016
20
-4.17817
11
1.58849
21
-4.17748
0
LINE
8
BLACK
6
CONTINUOUS
10
1.58849
20
-4.17748
11
1.5878
21
-4.17581
0
LINE
8
BLACK
6
CONTINUOUS
10
1.5878
20
-4.17581
11
1.5878
21
-4.16474
0
LINE
8
BLACK
6
CONTINUOUS
10
1.5878
20
-4.16474
11
1.58849
21
-4.16307
0
LINE
8
BLACK
6
CONTINUOUS
10
1.58849
20
-4.16307
11
1.59016
21
-4.16238
0
LINE
8
BLACK
6
CONTINUOUS
10
1.59016
20
-4.16238
11
1.59183
21
-4.16307
0
LINE
8
BLACK
6
CONTINUOUS
10
1.79498
20
-4.16307
11
1.79567
21
-4.16474
0
LINE
8
BLACK
6
CONTINUOUS
10
1.79567
20
-4.16474
11
1.79567
21
-4.17581
0
LINE
8
BLACK
6
CONTINUOUS
10
1.79567
20
-4.17581
11
1.79498
21
-4.17748
0
LINE
8
BLACK
6
CONTINUOUS
10
1.79498
20
-4.17748
11
1.79331
21
-4.17817
0
LINE
8
BLACK
6
CONTINUOUS
10
1.79331
20
-4.17817
11
1.79164
21
-4.17748
0
LINE
8
BLACK
6
CONTINUOUS
10
1.79164
20
-4.17748
11
1.79094
21
-4.17581
0
LINE
8
BLACK
6
CONTINUOUS
10
1.79094
20
-4.17581
11
1.79094
21
-4.16474
0
LINE
8
BLACK
6
CONTINUOUS
10
1.79094
20
-4.16474
11
1.79164
21
-4.16307
0
LINE
8
BLACK
6
CONTINUOUS
10
1.79164
20
-4.16307
11
1.79331
21
-4.16238
0
LINE
8
BLACK
6
CONTINUOUS
10
1.79331
20
-4.16238
11
1.79498
21
-4.16307
0
LINE
8
BLACK
6
CONTINUOUS
10
1.83513
20
-4.16307
11
1.83583
21
-4.16474
0
LINE
8
BLACK
6
CONTINUOUS
10
1.83583
20
-4.16474
11
1.83583
21
-4.17581
0
LINE
8
BLACK
6
CONTINUOUS
10
1.83583
20
-4.17581
11
1.83513
21
-4.17748
0
LINE
8
BLACK
6
CONTINUOUS
10
1.83513
20
-4.17748
11
1.83346
21
-4.17817
0
LINE
8
BLACK
6
CONTINUOUS
10
1.83346
20
-4.17817
11
1.83179
21
-4.17748
0
LINE
8
BLACK
6
CONTINUOUS
10
1.83179
20
-4.17748
11
1.8311
21
-4.17581
0
LINE
8
BLACK
6
CONTINUOUS
10
1.8311
20
-4.17581
11
1.8311
21
-4.16474
0
LINE
8
BLACK
6
CONTINUOUS
10
1.8311
20
-4.16474
11
1.83179
21
-4.16307
0
LINE
8
BLACK
6
CONTINUOUS
10
1.83179
20
-4.16307
11
1.83346
21
-4.16238
0
LINE
8
BLACK
6
CONTINUOUS
10
1.83346
20
-4.16238
11
1.83513
21
-4.16307
0
LINE
8
BLACK
6
CONTINUOUS
10
1.85482
20
-4.16287
11
1.85551
21
-4.16454
0
LINE
8
BLACK
6
CONTINUOUS
10
1.85551
20
-4.16454
11
1.85551
21
-4.17561
0
LINE
8
BLACK
6
CONTINUOUS
10
1.85551
20
-4.17561
11
1.85482
21
-4.17728
0
LINE
8
BLACK
6
CONTINUOUS
10
1.85482
20
-4.17728
11
1.85315
21
-4.17798
0
LINE
8
BLACK
6
CONTINUOUS
10
1.85315
20
-4.17798
11
1.85148
21
-4.17728
0
LINE
8
BLACK
6
CONTINUOUS
10
1.85148
20
-4.17728
11
1.85079
21
-4.17561
0
LINE
8
BLACK
6
CONTINUOUS
10
1.85079
20
-4.17561
11
1.85079
21
-4.16454
0
LINE
8
BLACK
6
CONTINUOUS
10
1.85079
20
-4.16454
11
1.85148
21
-4.16287
0
LINE
8
BLACK
6
CONTINUOUS
10
1.85148
20
-4.16287
11
1.85315
21
-4.16218
0
LINE
8
BLACK
6
CONTINUOUS
10
1.85315
20
-4.16218
11
1.85482
21
-4.16287
0
LINE
8
BLACK
6
CONTINUOUS
10
1.89498
20
-4.16287
11
1.89567
21
-4.16454
0
LINE
8
BLACK
6
CONTINUOUS
10
1.89567
20
-4.16454
11
1.89567
21
-4.17561
0
LINE
8
BLACK
6
CONTINUOUS
10
1.89567
20
-4.17561
11
1.89498
21
-4.17728
0
LINE
8
BLACK
6
CONTINUOUS
10
1.89498
20
-4.17728
11
1.89331
21
-4.17798
0
LINE
8
BLACK
6
CONTINUOUS
10
1.89331
20
-4.17798
11
1.89164
21
-4.17728
0
LINE
8
BLACK
6
CONTINUOUS
10
1.89164
20
-4.17728
11
1.89094
21
-4.17561
0
LINE
8
BLACK
6
CONTINUOUS
10
1.89094
20
-4.17561
11
1.89094
21
-4.16454
0
LINE
8
BLACK
6
CONTINUOUS
10
1.89094
20
-4.16454
11
1.89164
21
-4.16287
0
LINE
8
BLACK
6
CONTINUOUS
10
1.89164
20
-4.16287
11
1.89331
21
-4.16218
0
LINE
8
BLACK
6
CONTINUOUS
10
1.89331
20
-4.16218
11
1.89498
21
-4.16287
0
LINE
8
BLACK
6
CONTINUOUS
10
1.9745
20
-4.16287
11
1.9752
21
-4.16454
0
LINE
8
BLACK
6
CONTINUOUS
10
1.9752
20
-4.16454
11
1.9752
21
-4.17561
0
LINE
8
BLACK
6
CONTINUOUS
10
1.9752
20
-4.17561
11
1.9745
21
-4.17728
0
LINE
8
BLACK
6
CONTINUOUS
10
1.9745
20
-4.17728
11
1.97283
21
-4.17798
0
LINE
8
BLACK
6
CONTINUOUS
10
1.97283
20
-4.17798
11
1.97116
21
-4.17728
0
LINE
8
BLACK
6
CONTINUOUS
10
1.97116
20
-4.17728
11
1.97047
21
-4.17561
0
LINE
8
BLACK
6
CONTINUOUS
10
1.97047
20
-4.17561
11
1.97047
21
-4.16454
0
LINE
8
BLACK
6
CONTINUOUS
10
1.97047
20
-4.16454
11
1.97116
21
-4.16287
0
LINE
8
BLACK
6
CONTINUOUS
10
1.97116
20
-4.16287
11
1.97283
21
-4.16218
0
LINE
8
BLACK
6
CONTINUOUS
10
1.97283
20
-4.16218
11
1.9745
21
-4.16287
0
LINE
8
BLACK
6
CONTINUOUS
10
2.01466
20
-4.16287
11
2.01535
21
-4.16454
0
LINE
8
BLACK
6
CONTINUOUS
10
2.01535
20
-4.16454
11
2.01535
21
-4.17561
0
LINE
8
BLACK
6
CONTINUOUS
10
2.01535
20
-4.17561
11
2.01466
21
-4.17728
0
LINE
8
BLACK
6
CONTINUOUS
10
2.01466
20
-4.17728
11
2.01299
21
-4.17798
0
LINE
8
BLACK
6
CONTINUOUS
10
2.01299
20
-4.17798
11
2.01132
21
-4.17728
0
LINE
8
BLACK
6
CONTINUOUS
10
2.01132
20
-4.17728
11
2.01063
21
-4.17561
0
LINE
8
BLACK
6
CONTINUOUS
10
2.01063
20
-4.17561
11
2.01063
21
-4.16454
0
LINE
8
BLACK
6
CONTINUOUS
10
2.01063
20
-4.16454
11
2.01132
21
-4.16287
0
LINE
8
BLACK
6
CONTINUOUS
10
2.01132
20
-4.16287
11
2.01299
21
-4.16218
0
LINE
8
BLACK
6
CONTINUOUS
10
2.01299
20
-4.16218
11
2.01466
21
-4.16287
0
LINE
8
BLACK
6
CONTINUOUS
10
2.03513
20
-4.16287
11
2.03583
21
-4.16454
0
LINE
8
BLACK
6
CONTINUOUS
10
2.03583
20
-4.16454
11
2.03583
21
-4.17561
0
LINE
8
BLACK
6
CONTINUOUS
10
2.03583
20
-4.17561
11
2.03513
21
-4.17728
0
LINE
8
BLACK
6
CONTINUOUS
10
2.03513
20
-4.17728
11
2.03346
21
-4.17798
0
LINE
8
BLACK
6
CONTINUOUS
10
2.03346
20
-4.17798
11
2.03179
21
-4.17728
0
LINE
8
BLACK
6
CONTINUOUS
10
2.03179
20
-4.17728
11
2.0311
21
-4.17561
0
LINE
8
BLACK
6
CONTINUOUS
10
2.0311
20
-4.17561
11
2.0311
21
-4.16454
0
LINE
8
BLACK
6
CONTINUOUS
10
2.0311
20
-4.16454
11
2.03179
21
-4.16287
0
LINE
8
BLACK
6
CONTINUOUS
10
2.03179
20
-4.16287
11
2.03346
21
-4.16218
0
LINE
8
BLACK
6
CONTINUOUS
10
2.03346
20
-4.16218
11
2.03513
21
-4.16287
0
LINE
8
BLACK
6
CONTINUOUS
10
2.07529
20
-4.16287
11
2.07598
21
-4.16454
0
LINE
8
BLACK
6
CONTINUOUS
10
2.07598
20
-4.16454
11
2.07598
21
-4.17561
0
LINE
8
BLACK
6
CONTINUOUS
10
2.07598
20
-4.17561
11
2.07529
21
-4.17728
0
LINE
8
BLACK
6
CONTINUOUS
10
2.07529
20
-4.17728
11
2.07362
21
-4.17798
0
LINE
8
BLACK
6
CONTINUOUS
10
2.07362
20
-4.17798
11
2.07195
21
-4.17728
0
LINE
8
BLACK
6
CONTINUOUS
10
2.07195
20
-4.17728
11
2.07126
21
-4.17561
0
LINE
8
BLACK
6
CONTINUOUS
10
2.07126
20
-4.17561
11
2.07126
21
-4.16454
0
LINE
8
BLACK
6
CONTINUOUS
10
2.07126
20
-4.16454
11
2.07195
21
-4.16287
0
LINE
8
BLACK
6
CONTINUOUS
10
2.07195
20
-4.16287
11
2.07362
21
-4.16218
0
LINE
8
BLACK
6
CONTINUOUS
10
2.07362
20
-4.16218
11
2.07529
21
-4.16287
0
LINE
8
BLACK
6
CONTINUOUS
10
1.46031
20
-3.63853
11
1.46061
21
-3.63873
0
LINE
8
BLACK
6
CONTINUOUS
10
1.46061
20
-3.63873
11
1.46097
21
-3.63878
0
LINE
8
BLACK
6
CONTINUOUS
10
1.46097
20
-3.63878
11
1.46178
21
-3.63948
0
LINE
8
BLACK
6
CONTINUOUS
10
1.46178
20
-3.63948
11
1.46268
21
-3.64005
0
LINE
8
BLACK
6
CONTINUOUS
10
1.46268
20
-3.64005
11
1.46283
21
-3.64038
0
LINE
8
BLACK
6
CONTINUOUS
10
1.46283
20
-3.64038
11
1.4631
21
-3.64062
0
LINE
8
BLACK
6
CONTINUOUS
10
1.4631
20
-3.64062
11
1.4634
21
-3.64165
0
LINE
8
BLACK
6
CONTINUOUS
10
1.4634
20
-3.64165
11
1.46385
21
-3.64262
0
LINE
8
BLACK
6
CONTINUOUS
10
1.46385
20
-3.64262
11
1.46379
21
-3.64298
0
LINE
8
BLACK
6
CONTINUOUS
10
1.46379
20
-3.64298
11
1.4639
21
-3.64333
0
LINE
8
BLACK
6
CONTINUOUS
10
1.4639
20
-3.64333
11
1.4639
21
-3.69833
0
LINE
8
BLACK
6
CONTINUOUS
10
1.4639
20
-3.69833
11
1.4639
21
-4.15281
0
LINE
8
BLACK
6
CONTINUOUS
10
1.4639
20
-4.15281
11
1.4637
21
-4.15422
0
LINE
8
BLACK
6
CONTINUOUS
10
1.4637
20
-4.15422
11
1.4635
21
-4.15453
0
LINE
8
BLACK
6
CONTINUOUS
10
1.4635
20
-4.15453
11
1.46345
21
-4.15489
0
LINE
8
BLACK
6
CONTINUOUS
10
1.46345
20
-4.15489
11
1.46275
21
-4.1557
0
LINE
8
BLACK
6
CONTINUOUS
10
1.46275
20
-4.1557
11
1.46217
21
-4.15659
0
LINE
8
BLACK
6
CONTINUOUS
10
1.46217
20
-4.15659
11
1.46184
21
-4.15675
0
LINE
8
BLACK
6
CONTINUOUS
10
1.46184
20
-4.15675
11
1.4616
21
-4.15702
0
LINE
8
BLACK
6
CONTINUOUS
10
1.4616
20
-4.15702
11
1.46058
21
-4.15732
0
LINE
8
BLACK
6
CONTINUOUS
10
1.46058
20
-4.15732
11
1.45961
21
-4.15776
0
LINE
8
BLACK
6
CONTINUOUS
10
1.45961
20
-4.15776
11
1.45925
21
-4.15771
0
LINE
8
BLACK
6
CONTINUOUS
10
1.45925
20
-4.15771
11
1.4589
21
-4.15781
0
LINE
8
BLACK
6
CONTINUOUS
10
1.4589
20
-4.15781
11
1.1907
21
-4.15781
0
LINE
8
BLACK
6
CONTINUOUS
10
1.1907
20
-4.15781
11
1.19068
21
-4.15784
0
LINE
8
BLACK
6
CONTINUOUS
10
1.19068
20
-4.15784
11
1.18856
21
-4.15851
0
LINE
8
BLACK
6
CONTINUOUS
10
1.18856
20
-4.15851
11
1.18635
21
-4.15819
0
LINE
8
BLACK
6
CONTINUOUS
10
1.18635
20
-4.15819
11
1.18451
21
-4.15695
0
LINE
8
BLACK
6
CONTINUOUS
10
1.18451
20
-4.15695
11
1.18451
21
-4.15695
0
LINE
8
BLACK
6
CONTINUOUS
10
1.18451
20
-4.15695
11
1.16879
21
-4.13915
0
LINE
8
BLACK
6
CONTINUOUS
10
1.16879
20
-4.13915
11
1.15423
21
-4.1204
0
LINE
8
BLACK
6
CONTINUOUS
10
1.15423
20
-4.1204
11
1.14088
21
-4.10077
0
LINE
8
BLACK
6
CONTINUOUS
10
1.14088
20
-4.10077
11
1.1288
21
-4.08034
0
LINE
8
BLACK
6
CONTINUOUS
10
1.1288
20
-4.08034
11
1.11802
21
-4.05919
0
LINE
8
BLACK
6
CONTINUOUS
10
1.11802
20
-4.05919
11
1.1086
21
-4.0374
0
LINE
8
BLACK
6
CONTINUOUS
10
1.1086
20
-4.0374
11
1.10056
21
-4.01506
0
LINE
8
BLACK
6
CONTINUOUS
10
1.10056
20
-4.01506
11
1.09395
21
-3.99226
0
LINE
8
BLACK
6
CONTINUOUS
10
1.09395
20
-3.99226
11
1.08879
21
-3.96909
0
LINE
8
BLACK
6
CONTINUOUS
10
1.08879
20
-3.96909
11
1.08861
21
-3.96793
0
LINE
8
BLACK
6
CONTINUOUS
10
1.08861
20
-3.96793
11
1.08381
21
-3.97273
0
LINE
8
BLACK
6
CONTINUOUS
10
1.08381
20
-3.97273
11
1.0831
21
-3.97326
0
LINE
8
BLACK
6
CONTINUOUS
10
1.0831
20
-3.97326
11
1.08298
21
-3.9734
0
LINE
8
BLACK
6
CONTINUOUS
10
1.08298
20
-3.9734
11
1.08287
21
-3.97343
0
LINE
8
BLACK
6
CONTINUOUS
10
1.08287
20
-3.97343
11
1.08267
21
-3.97358
0
LINE
8
BLACK
6
CONTINUOUS
10
1.08267
20
-3.97358
11
1.08146
21
-3.97384
0
LINE
8
BLACK
6
CONTINUOUS
10
1.08146
20
-3.97384
11
1.08028
21
-3.97419
0
LINE
8
BLACK
6
CONTINUOUS
10
1.08028
20
-3.97419
11
1.0789
21
-3.97419
0
LINE
8
BLACK
6
CONTINUOUS
10
1.0789
20
-3.97419
11
1.07889
21
-3.97419
0
LINE
8
BLACK
6
CONTINUOUS
10
1.07889
20
-3.97419
11
1.07889
21
-3.97419
0
LINE
8
BLACK
6
CONTINUOUS
10
1.07889
20
-3.97419
11
1.03941
21
-3.97412
0
LINE
8
BLACK
6
CONTINUOUS
10
1.03941
20
-3.97412
11
1.03937
21
-3.97414
0
LINE
8
BLACK
6
CONTINUOUS
10
1.03937
20
-3.97414
11
1.03924
21
-3.97412
0
LINE
8
BLACK
6
CONTINUOUS
10
1.03924
20
-3.97412
11
0.965018
21
-3.97399
0
LINE
8
BLACK
6
CONTINUOUS
10
0.965018
20
-3.97399
11
0.964688
21
-3.97414
0
LINE
8
BLACK
6
CONTINUOUS
10
0.964688
20
-3.97414
11
0.963622
21
-3.97399
0
LINE
8
BLACK
6
CONTINUOUS
10
0.963622
20
-3.97399
11
0.923338
21
-3.97392
0
LINE
8
BLACK
6
CONTINUOUS
10
0.923338
20
-3.97392
11
0.921929
21
-3.97371
0
LINE
8
BLACK
6
CONTINUOUS
10
0.921929
20
-3.97371
11
0.919562
21
-3.97218
0
LINE
8
BLACK
6
CONTINUOUS
10
0.919562
20
-3.97218
11
0.919314
21
-3.97164
0
LINE
8
BLACK
6
CONTINUOUS
10
0.919314
20
-3.97164
11
0.918746
21
-3.97115
0
LINE
8
BLACK
6
CONTINUOUS
10
0.918746
20
-3.97115
11
0.917953
21
-3.96844
0
LINE
8
BLACK
6
CONTINUOUS
10
0.917953
20
-3.96844
11
0.917953
21
-3.82671
0
LINE
8
BLACK
6
CONTINUOUS
10
0.917953
20
-3.82671
11
0.918155
21
-3.8253
0
LINE
8
BLACK
6
CONTINUOUS
10
0.918155
20
-3.8253
11
0.919678
21
-3.82293
0
LINE
8
BLACK
6
CONTINUOUS
10
0.919678
20
-3.82293
11
0.922241
21
-3.82176
0
LINE
8
BLACK
6
CONTINUOUS
10
0.922241
20
-3.82176
11
0.92503
21
-3.82216
0
LINE
8
BLACK
6
CONTINUOUS
10
0.92503
20
-3.82216
11
0.925773
21
-3.82281
0
LINE
8
BLACK
6
CONTINUOUS
10
0.925773
20
-3.82281
11
0.962799
21
-3.82272
0
LINE
8
BLACK
6
CONTINUOUS
10
0.962799
20
-3.82272
11
0.963265
21
-3.82251
0
LINE
8
BLACK
6
CONTINUOUS
10
0.963265
20
-3.82251
11
0.964715
21
-3.82272
0
LINE
8
BLACK
6
CONTINUOUS
10
0.964715
20
-3.82272
11
1.03651
21
-3.82256
0
LINE
8
BLACK
6
CONTINUOUS
10
1.03651
20
-3.82256
11
1.03661
21
-3.82251
0
LINE
8
BLACK
6
CONTINUOUS
10
1.03661
20
-3.82251
11
1.03692
21
-3.82256
0
LINE
8
BLACK
6
CONTINUOUS
10
1.03692
20
-3.82256
11
1.07889
21
-3.82246
0
LINE
8
BLACK
6
CONTINUOUS
10
1.07889
20
-3.82246
11
1.07889
21
-3.82246
0
LINE
8
BLACK
6
CONTINUOUS
10
1.07889
20
-3.82246
11
1.0789
21
-3.82246
0
LINE
8
BLACK
6
CONTINUOUS
10
1.0789
20
-3.82246
11
1.07988
21
-3.82246
0
LINE
8
BLACK
6
CONTINUOUS
10
1.07988
20
-3.82246
11
1.08077
21
-3.82259
0
LINE
8
BLACK
6
CONTINUOUS
10
1.08077
20
-3.82259
11
1.08094
21
-3.82257
0
LINE
8
BLACK
6
CONTINUOUS
10
1.08094
20
-3.82257
11
1.08104
21
-3.82263
0
LINE
8
BLACK
6
CONTINUOUS
10
1.08104
20
-3.82263
11
1.08129
21
-3.82266
0
LINE
8
BLACK
6
CONTINUOUS
10
1.08129
20
-3.82266
11
1.08233
21
-3.82333
0
LINE
8
BLACK
6
CONTINUOUS
10
1.08233
20
-3.82333
11
1.08342
21
-3.82393
0
LINE
8
BLACK
6
CONTINUOUS
10
1.08342
20
-3.82393
11
1.08873
21
-3.82923
0
LINE
8
BLACK
6
CONTINUOUS
10
1.08873
20
-3.82923
11
1.08901
21
-3.82747
0
LINE
8
BLACK
6
CONTINUOUS
10
1.08901
20
-3.82747
11
1.09424
21
-3.80432
0
LINE
8
BLACK
6
CONTINUOUS
10
1.09424
20
-3.80432
11
1.10092
21
-3.78154
0
LINE
8
BLACK
6
CONTINUOUS
10
1.10092
20
-3.78154
11
1.10901
21
-3.75922
0
LINE
8
BLACK
6
CONTINUOUS
10
1.10901
20
-3.75922
11
1.1185
21
-3.73746
0
LINE
8
BLACK
6
CONTINUOUS
10
1.1185
20
-3.73746
11
1.12934
21
-3.71634
0
LINE
8
BLACK
6
CONTINUOUS
10
1.12934
20
-3.71634
11
1.14149
21
-3.69595
0
LINE
8
BLACK
6
CONTINUOUS
10
1.14149
20
-3.69595
11
1.1549
21
-3.67636
0
LINE
8
BLACK
6
CONTINUOUS
10
1.1549
20
-3.67636
11
1.16952
21
-3.65765
0
LINE
8
BLACK
6
CONTINUOUS
10
1.16952
20
-3.65765
11
1.18529
21
-3.6399
0
LINE
8
BLACK
6
CONTINUOUS
10
1.18529
20
-3.6399
11
1.18529
21
-3.6399
0
LINE
8
BLACK
6
CONTINUOUS
10
1.18529
20
-3.6399
11
1.18583
21
-3.63954
0
LINE
8
BLACK
6
CONTINUOUS
10
1.18583
20
-3.63954
11
1.18619
21
-3.63912
0
LINE
8
BLACK
6
CONTINUOUS
10
1.18619
20
-3.63912
11
1.18666
21
-3.63898
0
LINE
8
BLACK
6
CONTINUOUS
10
1.18666
20
-3.63898
11
1.18714
21
-3.63867
0
LINE
8
BLACK
6
CONTINUOUS
10
1.18714
20
-3.63867
11
1.18829
21
-3.6385
0
LINE
8
BLACK
6
CONTINUOUS
10
1.18829
20
-3.6385
11
1.1889
21
-3.63833
0
LINE
8
BLACK
6
CONTINUOUS
10
1.1889
20
-3.63833
11
1.4589
21
-3.63833
0
LINE
8
BLACK
6
CONTINUOUS
10
1.4589
20
-3.63833
11
1.46031
21
-3.63853
0
LINE
8
BLACK
6
CONTINUOUS
10
1.19108
20
-3.64833
11
1.1846
21
-3.65517
0
LINE
8
BLACK
6
CONTINUOUS
10
1.1846
20
-3.65517
11
1.1698
21
-3.67293
0
LINE
8
BLACK
6
CONTINUOUS
10
1.1698
20
-3.67293
11
1.15615
21
-3.69159
0
LINE
8
BLACK
6
CONTINUOUS
10
1.15615
20
-3.69159
11
1.14369
21
-3.71107
0
LINE
8
BLACK
6
CONTINUOUS
10
1.14369
20
-3.71107
11
1.13249
21
-3.7313
0
LINE
8
BLACK
6
CONTINUOUS
10
1.13249
20
-3.7313
11
1.12259
21
-3.75219
0
LINE
8
BLACK
6
CONTINUOUS
10
1.12259
20
-3.75219
11
1.11402
21
-3.77367
0
LINE
8
BLACK
6
CONTINUOUS
10
1.11402
20
-3.77367
11
1.10682
21
-3.79564
0
LINE
8
BLACK
6
CONTINUOUS
10
1.10682
20
-3.79564
11
1.10102
21
-3.81802
0
LINE
8
BLACK
6
CONTINUOUS
10
1.10102
20
-3.81802
11
1.09686
21
-3.83959
0
LINE
8
BLACK
6
CONTINUOUS
10
1.09686
20
-3.83959
11
1.09692
21
-3.83986
0
LINE
8
BLACK
6
CONTINUOUS
10
1.09692
20
-3.83986
11
1.09668
21
-3.84049
0
LINE
8
BLACK
6
CONTINUOUS
10
1.09668
20
-3.84049
11
1.09664
21
-3.84072
0
LINE
8
BLACK
6
CONTINUOUS
10
1.09664
20
-3.84072
11
1.0937
21
-3.86365
0
LINE
8
BLACK
6
CONTINUOUS
10
1.0937
20
-3.86365
11
1.09221
21
-3.88673
0
LINE
8
BLACK
6
CONTINUOUS
10
1.09221
20
-3.88673
11
1.09217
21
-3.90985
0
LINE
8
BLACK
6
CONTINUOUS
10
1.09217
20
-3.90985
11
1.09359
21
-3.93292
0
LINE
8
BLACK
6
CONTINUOUS
10
1.09359
20
-3.93292
11
1.09645
21
-3.95576
0
LINE
8
BLACK
6
CONTINUOUS
10
1.09645
20
-3.95576
11
1.09654
21
-3.95587
0
LINE
8
BLACK
6
CONTINUOUS
10
1.09654
20
-3.95587
11
1.09658
21
-3.95646
0
LINE
8
BLACK
6
CONTINUOUS
10
1.09658
20
-3.95646
11
1.10078
21
-3.97858
0
LINE
8
BLACK
6
CONTINUOUS
10
1.10078
20
-3.97858
11
1.10651
21
-4.00098
0
LINE
8
BLACK
6
CONTINUOUS
10
1.10651
20
-4.00098
11
1.11364
21
-4.02297
0
LINE
8
BLACK
6
CONTINUOUS
10
1.11364
20
-4.02297
11
1.12215
21
-4.04447
0
LINE
8
BLACK
6
CONTINUOUS
10
1.12215
20
-4.04447
11
1.13199
21
-4.06539
0
LINE
8
BLACK
6
CONTINUOUS
10
1.13199
20
-4.06539
11
1.14313
21
-4.08565
0
LINE
8
BLACK
6
CONTINUOUS
10
1.14313
20
-4.08565
11
1.15552
21
-4.10517
0
LINE
8
BLACK
6
CONTINUOUS
10
1.15552
20
-4.10517
11
1.16912
21
-4.12387
0
LINE
8
BLACK
6
CONTINUOUS
10
1.16912
20
-4.12387
11
1.18387
21
-4.14168
0
LINE
8
BLACK
6
CONTINUOUS
10
1.18387
20
-4.14168
11
1.18964
21
-4.14781
0
LINE
8
BLACK
6
CONTINUOUS
10
1.18964
20
-4.14781
11
1.4539
21
-4.14781
0
LINE
8
BLACK
6
CONTINUOUS
10
1.4539
20
-4.14781
11
1.4539
21
-3.90043
0
LINE
8
BLACK
6
CONTINUOUS
10
1.4539
20
-3.90043
11
1.45348
21
-3.89951
0
LINE
8
BLACK
6
CONTINUOUS
10
1.45348
20
-3.89951
11
1.45362
21
-3.89849
0
LINE
8
BLACK
6
CONTINUOUS
10
1.45362
20
-3.89849
11
1.45348
21
-3.89817
0
LINE
8
BLACK
6
CONTINUOUS
10
1.45348
20
-3.89817
11
1.45388
21
-3.89538
0
LINE
8
BLACK
6
CONTINUOUS
10
1.45388
20
-3.89538
11
1.4539
21
-3.89536
0
LINE
8
BLACK
6
CONTINUOUS
10
1.4539
20
-3.89536
11
1.4539
21
-3.69833
0
LINE
8
BLACK
6
CONTINUOUS
10
1.4539
20
-3.69833
11
1.4539
21
-3.64833
0
LINE
8
BLACK
6
CONTINUOUS
10
1.4539
20
-3.64833
11
1.19108
21
-3.64833
0
LINE
8
BLACK
6
CONTINUOUS
10
1.0772
20
-3.94686
11
1.07648
21
-3.9474
0
LINE
8
BLACK
6
CONTINUOUS
10
1.07648
20
-3.9474
11
1.07636
21
-3.94753
0
LINE
8
BLACK
6
CONTINUOUS
10
1.07636
20
-3.94753
11
1.07626
21
-3.94756
0
LINE
8
BLACK
6
CONTINUOUS
10
1.07626
20
-3.94756
11
1.07606
21
-3.94771
0
LINE
8
BLACK
6
CONTINUOUS
10
1.07606
20
-3.94771
11
1.07485
21
-3.94798
0
LINE
8
BLACK
6
CONTINUOUS
10
1.07485
20
-3.94798
11
1.07366
21
-3.94833
0
LINE
8
BLACK
6
CONTINUOUS
10
1.07366
20
-3.94833
11
1.04366
21
-3.94833
0
LINE
8
BLACK
6
CONTINUOUS
10
1.04366
20
-3.94833
11
1.04366
21
-3.96413
0
LINE
8
BLACK
6
CONTINUOUS
10
1.04366
20
-3.96413
11
1.07821
21
-3.96419
0
LINE
8
BLACK
6
CONTINUOUS
10
1.07821
20
-3.96419
11
1.08669
21
-3.95571
0
LINE
8
BLACK
6
CONTINUOUS
10
1.08669
20
-3.95571
11
1.0851
21
-3.94564
0
LINE
8
BLACK
6
CONTINUOUS
10
1.0851
20
-3.94564
11
1.08453
21
-3.93951
0
LINE
8
BLACK
6
CONTINUOUS
10
1.08453
20
-3.93951
11
1.0772
21
-3.94686
0
LINE
8
BLACK
6
CONTINUOUS
10
0.968976
20
-3.83271
11
0.968976
21
-3.964
0
LINE
8
BLACK
6
CONTINUOUS
10
0.968976
20
-3.964
11
1.03366
21
-3.96411
0
LINE
8
BLACK
6
CONTINUOUS
10
1.03366
20
-3.96411
11
1.03366
21
-3.94333
0
LINE
8
BLACK
6
CONTINUOUS
10
1.03366
20
-3.94333
11
1.03386
21
-3.94192
0
LINE
8
BLACK
6
CONTINUOUS
10
1.03386
20
-3.94192
11
1.03406
21
-3.94161
0
LINE
8
BLACK
6
CONTINUOUS
10
1.03406
20
-3.94161
11
1.03411
21
-3.94125
0
LINE
8
BLACK
6
CONTINUOUS
10
1.03411
20
-3.94125
11
1.03481
21
-3.94044
0
LINE
8
BLACK
6
CONTINUOUS
10
1.03481
20
-3.94044
11
1.03539
21
-3.93955
0
LINE
8
BLACK
6
CONTINUOUS
10
1.03539
20
-3.93955
11
1.03572
21
-3.9394
0
LINE
8
BLACK
6
CONTINUOUS
10
1.03572
20
-3.9394
11
1.03596
21
-3.93912
0
LINE
8
BLACK
6
CONTINUOUS
10
1.03596
20
-3.93912
11
1.03698
21
-3.93882
0
LINE
8
BLACK
6
CONTINUOUS
10
1.03698
20
-3.93882
11
1.03795
21
-3.93838
0
LINE
8
BLACK
6
CONTINUOUS
10
1.03795
20
-3.93838
11
1.03831
21
-3.93843
0
LINE
8
BLACK
6
CONTINUOUS
10
1.03831
20
-3.93843
11
1.03866
21
-3.93833
0
LINE
8
BLACK
6
CONTINUOUS
10
1.03866
20
-3.93833
11
1.07159
21
-3.93833
0
LINE
8
BLACK
6
CONTINUOUS
10
1.07159
20
-3.93833
11
1.08332
21
-3.92656
0
LINE
8
BLACK
6
CONTINUOUS
10
1.08332
20
-3.92656
11
1.0829
21
-3.922
0
LINE
8
BLACK
6
CONTINUOUS
10
1.0829
20
-3.922
11
1.08248
21
-3.90791
0
LINE
8
BLACK
6
CONTINUOUS
10
1.08248
20
-3.90791
11
1.08159
21
-3.91024
0
LINE
8
BLACK
6
CONTINUOUS
10
1.08159
20
-3.91024
11
1.07808
21
-3.91532
0
LINE
8
BLACK
6
CONTINUOUS
10
1.07808
20
-3.91532
11
1.07346
21
-3.91942
0
LINE
8
BLACK
6
CONTINUOUS
10
1.07346
20
-3.91942
11
1.06799
21
-3.92229
0
LINE
8
BLACK
6
CONTINUOUS
10
1.06799
20
-3.92229
11
1.06199
21
-3.92377
0
LINE
8
BLACK
6
CONTINUOUS
10
1.06199
20
-3.92377
11
1.05581
21
-3.92377
0
LINE
8
BLACK
6
CONTINUOUS
10
1.05581
20
-3.92377
11
1.04981
21
-3.92229
0
LINE
8
BLACK
6
CONTINUOUS
10
1.04981
20
-3.92229
11
1.04434
21
-3.91942
0
LINE
8
BLACK
6
CONTINUOUS
10
1.04434
20
-3.91942
11
1.03971
21
-3.91532
0
LINE
8
BLACK
6
CONTINUOUS
10
1.03971
20
-3.91532
11
1.0362
21
-3.91024
0
LINE
8
BLACK
6
CONTINUOUS
10
1.0362
20
-3.91024
11
1.03401
21
-3.90446
0
LINE
8
BLACK
6
CONTINUOUS
10
1.03401
20
-3.90446
11
1.03327
21
-3.89833
0
LINE
8
BLACK
6
CONTINUOUS
10
1.03327
20
-3.89833
11
1.03401
21
-3.89219
0
LINE
8
BLACK
6
CONTINUOUS
10
1.03401
20
-3.89219
11
1.0362
21
-3.88642
0
LINE
8
BLACK
6
CONTINUOUS
10
1.0362
20
-3.88642
11
1.03971
21
-3.88133
0
LINE
8
BLACK
6
CONTINUOUS
10
1.03971
20
-3.88133
11
1.04434
21
-3.87723
0
LINE
8
BLACK
6
CONTINUOUS
10
1.04434
20
-3.87723
11
1.04981
21
-3.87436
0
LINE
8
BLACK
6
CONTINUOUS
10
1.04981
20
-3.87436
11
1.05581
21
-3.87288
0
LINE
8
BLACK
6
CONTINUOUS
10
1.05581
20
-3.87288
11
1.06199
21
-3.87288
0
LINE
8
BLACK
6
CONTINUOUS
10
1.06199
20
-3.87288
11
1.06799
21
-3.87436
0
LINE
8
BLACK
6
CONTINUOUS
10
1.06799
20
-3.87436
11
1.07346
21
-3.87723
0
LINE
8
BLACK
6
CONTINUOUS
10
1.07346
20
-3.87723
11
1.07808
21
-3.88133
0
LINE
8
BLACK
6
CONTINUOUS
10
1.07808
20
-3.88133
11
1.08159
21
-3.88642
0
LINE
8
BLACK
6
CONTINUOUS
10
1.08159
20
-3.88642
11
1.0825
21
-3.88881
0
LINE
8
BLACK
6
CONTINUOUS
10
1.0825
20
-3.88881
11
1.08295
21
-3.87512
0
LINE
8
BLACK
6
CONTINUOUS
10
1.08295
20
-3.87512
11
1.07116
21
-3.86333
0
LINE
8
BLACK
6
CONTINUOUS
10
1.07116
20
-3.86333
11
1.03732
21
-3.86333
0
LINE
8
BLACK
6
CONTINUOUS
10
1.03732
20
-3.86333
11
1.03591
21
-3.86312
0
LINE
8
BLACK
6
CONTINUOUS
10
1.03591
20
-3.86312
11
1.03561
21
-3.86293
0
LINE
8
BLACK
6
CONTINUOUS
10
1.03561
20
-3.86293
11
1.03525
21
-3.86287
0
LINE
8
BLACK
6
CONTINUOUS
10
1.03525
20
-3.86287
11
1.03444
21
-3.86218
0
LINE
8
BLACK
6
CONTINUOUS
10
1.03444
20
-3.86218
11
1.03354
21
-3.8616
0
LINE
8
BLACK
6
CONTINUOUS
10
1.03354
20
-3.8616
11
1.03339
21
-3.86127
0
LINE
8
BLACK
6
CONTINUOUS
10
1.03339
20
-3.86127
11
1.03312
21
-3.86103
0
LINE
8
BLACK
6
CONTINUOUS
10
1.03312
20
-3.86103
11
1.03282
21
-3.86001
0
LINE
8
BLACK
6
CONTINUOUS
10
1.03282
20
-3.86001
11
1.03237
21
-3.85904
0
LINE
8
BLACK
6
CONTINUOUS
10
1.03237
20
-3.85904
11
1.03243
21
-3.85868
0
LINE
8
BLACK
6
CONTINUOUS
10
1.03243
20
-3.85868
11
1.03232
21
-3.85833
0
LINE
8
BLACK
6
CONTINUOUS
10
1.03232
20
-3.85833
11
1.03232
21
-3.83257
0
LINE
8
BLACK
6
CONTINUOUS
10
1.03232
20
-3.83257
11
0.968976
21
-3.83271
0
LINE
8
BLACK
6
CONTINUOUS
10
0.927953
20
-3.8328
11
0.927953
21
-3.96393
0
LINE
8
BLACK
6
CONTINUOUS
10
0.927953
20
-3.96393
11
0.958976
21
-3.96398
0
LINE
8
BLACK
6
CONTINUOUS
10
0.958976
20
-3.96398
11
0.958976
21
-3.83273
0
LINE
8
BLACK
6
CONTINUOUS
10
0.958976
20
-3.83273
11
0.927953
21
-3.8328
0
LINE
8
BLACK
6
CONTINUOUS
10
1.04232
20
-3.83254
11
1.04232
21
-3.85333
0
LINE
8
BLACK
6
CONTINUOUS
10
1.04232
20
-3.85333
11
1.07323
21
-3.85333
0
LINE
8
BLACK
6
CONTINUOUS
10
1.07323
20
-3.85333
11
1.07411
21
-3.85345
0
LINE
8
BLACK
6
CONTINUOUS
10
1.07411
20
-3.85345
11
1.07429
21
-3.85344
0
LINE
8
BLACK
6
CONTINUOUS
10
1.07429
20
-3.85344
11
1.07439
21
-3.85349
0
LINE
8
BLACK
6
CONTINUOUS
10
1.07439
20
-3.85349
11
1.07464
21
-3.85353
0
LINE
8
BLACK
6
CONTINUOUS
10
1.07464
20
-3.85353
11
1.07568
21
-3.8542
0
LINE
8
BLACK
6
CONTINUOUS
10
1.07568
20
-3.8542
11
1.07676
21
-3.85479
0
LINE
8
BLACK
6
CONTINUOUS
10
1.07676
20
-3.85479
11
1.08416
21
-3.86219
0
LINE
8
BLACK
6
CONTINUOUS
10
1.08416
20
-3.86219
11
1.08525
21
-3.85091
0
LINE
8
BLACK
6
CONTINUOUS
10
1.08525
20
-3.85091
11
1.08677
21
-3.84142
0
LINE
8
BLACK
6
CONTINUOUS
10
1.08677
20
-3.84142
11
1.07781
21
-3.83246
0
LINE
8
BLACK
6
CONTINUOUS
10
1.07781
20
-3.83246
11
1.04232
21
-3.83254
0
LINE
8
BLACK
6
CONTINUOUS
10
1.04385
20
-3.90322
11
1.0461
21
-3.90763
0
LINE
8
BLACK
6
CONTINUOUS
10
1.0461
20
-3.90763
11
1.0496
21
-3.91113
0
LINE
8
BLACK
6
CONTINUOUS
10
1.0496
20
-3.91113
11
1.05401
21
-3.91338
0
LINE
8
BLACK
6
CONTINUOUS
10
1.05401
20
-3.91338
11
1.0589
21
-3.91415
0
LINE
8
BLACK
6
CONTINUOUS
10
1.0589
20
-3.91415
11
1.06379
21
-3.91338
0
LINE
8
BLACK
6
CONTINUOUS
10
1.06379
20
-3.91338
11
1.0682
21
-3.91113
0
LINE
8
BLACK
6
CONTINUOUS
10
1.0682
20
-3.91113
11
1.0717
21
-3.90763
0
LINE
8
BLACK
6
CONTINUOUS
10
1.0717
20
-3.90763
11
1.07395
21
-3.90322
0
LINE
8
BLACK
6
CONTINUOUS
10
1.07395
20
-3.90322
11
1.07472
21
-3.89833
0
LINE
8
BLACK
6
CONTINUOUS
10
1.07472
20
-3.89833
11
1.07395
21
-3.89344
0
LINE
8
BLACK
6
CONTINUOUS
10
1.07395
20
-3.89344
11
1.0717
21
-3.88903
0
LINE
8
BLACK
6
CONTINUOUS
10
1.0717
20
-3.88903
11
1.0682
21
-3.88552
0
LINE
8
BLACK
6
CONTINUOUS
10
1.0682
20
-3.88552
11
1.06379
21
-3.88328
0
LINE
8
BLACK
6
CONTINUOUS
10
1.06379
20
-3.88328
11
1.0589
21
-3.8825
0
LINE
8
BLACK
6
CONTINUOUS
10
1.0589
20
-3.8825
11
1.05401
21
-3.88328
0
LINE
8
BLACK
6
CONTINUOUS
10
1.05401
20
-3.88328
11
1.0496
21
-3.88552
0
LINE
8
BLACK
6
CONTINUOUS
10
1.0496
20
-3.88552
11
1.0461
21
-3.88903
0
LINE
8
BLACK
6
CONTINUOUS
10
1.0461
20
-3.88903
11
1.04385
21
-3.89344
0
LINE
8
BLACK
6
CONTINUOUS
10
1.04385
20
-3.89344
11
1.04307
21
-3.89833
0
LINE
8
BLACK
6
CONTINUOUS
10
1.04307
20
-3.89833
11
1.04385
21
-3.90322
0
LINE
8
BLACK
6
CONTINUOUS
10
1.56961
20
-4.07943
11
1.5703
21
-4.0811
0
LINE
8
BLACK
6
CONTINUOUS
10
1.5703
20
-4.0811
11
1.56961
21
-4.08277
0
LINE
8
BLACK
6
CONTINUOUS
10
1.56961
20
-4.08277
11
1.56794
21
-4.08346
0
LINE
8
BLACK
6
CONTINUOUS
10
1.56794
20
-4.08346
11
1.55687
21
-4.08346
0
LINE
8
BLACK
6
CONTINUOUS
10
1.55687
20
-4.08346
11
1.5552
21
-4.08277
0
LINE
8
BLACK
6
CONTINUOUS
10
1.5552
20
-4.08277
11
1.5545
21
-4.0811
0
LINE
8
BLACK
6
CONTINUOUS
10
1.5545
20
-4.0811
11
1.5552
21
-4.07943
0
LINE
8
BLACK
6
CONTINUOUS
10
1.5552
20
-4.07943
11
1.55687
21
-4.07874
0
LINE
8
BLACK
6
CONTINUOUS
10
1.55687
20
-4.07874
11
1.56794
21
-4.07874
0
LINE
8
BLACK
6
CONTINUOUS
10
1.56794
20
-4.07874
11
1.56961
21
-4.07943
0
LINE
8
BLACK
6
CONTINUOUS
10
1.63986
20
-4.04589
11
1.63996
21
-4.04587
0
LINE
8
BLACK
6
CONTINUOUS
10
1.63996
20
-4.04587
11
1.63996
21
-4.04587
0
LINE
8
BLACK
6
CONTINUOUS
10
1.63996
20
-4.04587
11
1.64459
21
-4.04661
0
LINE
8
BLACK
6
CONTINUOUS
10
1.64459
20
-4.04661
11
1.64879
21
-4.04868
0
LINE
8
BLACK
6
CONTINUOUS
10
1.64879
20
-4.04868
11
1.6522
21
-4.0519
0
LINE
8
BLACK
6
CONTINUOUS
10
1.6522
20
-4.0519
11
1.65451
21
-4.05597
0
LINE
8
BLACK
6
CONTINUOUS
10
1.65451
20
-4.05597
11
1.65552
21
-4.06055
0
LINE
8
BLACK
6
CONTINUOUS
10
1.65552
20
-4.06055
11
1.65513
21
-4.06522
0
LINE
8
BLACK
6
CONTINUOUS
10
1.65513
20
-4.06522
11
1.6534
21
-4.06957
0
LINE
8
BLACK
6
CONTINUOUS
10
1.6534
20
-4.06957
11
1.65046
21
-4.07321
0
LINE
8
BLACK
6
CONTINUOUS
10
1.65046
20
-4.07321
11
1.64657
21
-4.07583
0
LINE
8
BLACK
6
CONTINUOUS
10
1.64657
20
-4.07583
11
1.64209
21
-4.0772
0
LINE
8
BLACK
6
CONTINUOUS
10
1.64209
20
-4.0772
11
1.6374
21
-4.07718
0
LINE
8
BLACK
6
CONTINUOUS
10
1.6374
20
-4.07718
11
1.63293
21
-4.07578
0
LINE
8
BLACK
6
CONTINUOUS
10
1.63293
20
-4.07578
11
1.62907
21
-4.07314
0
LINE
8
BLACK
6
CONTINUOUS
10
1.62907
20
-4.07314
11
1.62615
21
-4.06947
0
LINE
8
BLACK
6
CONTINUOUS
10
1.62615
20
-4.06947
11
1.62445
21
-4.0651
0
LINE
8
BLACK
6
CONTINUOUS
10
1.62445
20
-4.0651
11
1.6241
21
-4.06043
0
LINE
8
BLACK
6
CONTINUOUS
10
1.6241
20
-4.06043
11
1.62514
21
-4.05586
0
LINE
8
BLACK
6
CONTINUOUS
10
1.62514
20
-4.05586
11
1.62748
21
-4.05181
0
LINE
8
BLACK
6
CONTINUOUS
10
1.62748
20
-4.05181
11
1.63091
21
-4.04862
0
LINE
8
BLACK
6
CONTINUOUS
10
1.63091
20
-4.04862
11
1.63513
21
-4.04658
0
LINE
8
BLACK
6
CONTINUOUS
10
1.63513
20
-4.04658
11
1.63976
21
-4.04587
0
LINE
8
BLACK
6
CONTINUOUS
10
1.63976
20
-4.04587
11
1.63986
21
-4.04589
0
LINE
8
BLACK
6
CONTINUOUS
10
1.6398
20
-4.06161
11
1.6398
21
-4.06161
0
LINE
8
BLACK
6
CONTINUOUS
10
1.6398
20
-4.06161
11
1.6398
21
-4.06161
0
LINE
8
BLACK
6
CONTINUOUS
10
1.6398
20
-4.06161
11
1.6398
21
-4.06161
0
LINE
8
BLACK
6
CONTINUOUS
10
1.56961
20
-4.03927
11
1.5703
21
-4.04094
0
LINE
8
BLACK
6
CONTINUOUS
10
1.5703
20
-4.04094
11
1.56961
21
-4.04262
0
LINE
8
BLACK
6
CONTINUOUS
10
1.56961
20
-4.04262
11
1.56794
21
-4.04331
0
LINE
8
BLACK
6
CONTINUOUS
10
1.56794
20
-4.04331
11
1.55687
21
-4.04331
0
LINE
8
BLACK
6
CONTINUOUS
10
1.55687
20
-4.04331
11
1.5552
21
-4.04262
0
LINE
8
BLACK
6
CONTINUOUS
10
1.5552
20
-4.04262
11
1.5545
21
-4.04094
0
LINE
8
BLACK
6
CONTINUOUS
10
1.5545
20
-4.04094
11
1.5552
21
-4.03927
0
LINE
8
BLACK
6
CONTINUOUS
10
1.5552
20
-4.03927
11
1.55687
21
-4.03858
0
LINE
8
BLACK
6
CONTINUOUS
10
1.55687
20
-4.03858
11
1.56794
21
-4.03858
0
LINE
8
BLACK
6
CONTINUOUS
10
1.56794
20
-4.03858
11
1.56961
21
-4.03927
0
LINE
8
BLACK
6
CONTINUOUS
10
2.39262
20
-4.02429
11
2.39331
21
-4.02596
0
LINE
8
BLACK
6
CONTINUOUS
10
2.39331
20
-4.02596
11
2.39331
21
-4.03703
0
LINE
8
BLACK
6
CONTINUOUS
10
2.39331
20
-4.03703
11
2.39262
21
-4.0387
0
LINE
8
BLACK
6
CONTINUOUS
10
2.39262
20
-4.0387
11
2.39094
21
-4.03939
0
LINE
8
BLACK
6
CONTINUOUS
10
2.39094
20
-4.03939
11
2.38927
21
-4.0387
0
LINE
8
BLACK
6
CONTINUOUS
10
2.38927
20
-4.0387
11
2.38858
21
-4.03703
0
LINE
8
BLACK
6
CONTINUOUS
10
2.38858
20
-4.03703
11
2.38858
21
-4.02596
0
LINE
8
BLACK
6
CONTINUOUS
10
2.38858
20
-4.02596
11
2.38927
21
-4.02429
0
LINE
8
BLACK
6
CONTINUOUS
10
2.38927
20
-4.02429
11
2.39094
21
-4.0236
0
LINE
8
BLACK
6
CONTINUOUS
10
2.39094
20
-4.0236
11
2.39262
21
-4.02429
0
LINE
8
BLACK
6
CONTINUOUS
10
2.43277
20
-4.02429
11
2.43346
21
-4.02596
0
LINE
8
BLACK
6
CONTINUOUS
10
2.43346
20
-4.02596
11
2.43346
21
-4.03703
0
LINE
8
BLACK
6
CONTINUOUS
10
2.43346
20
-4.03703
11
2.43277
21
-4.0387
0
LINE
8
BLACK
6
CONTINUOUS
10
2.43277
20
-4.0387
11
2.4311
21
-4.03939
0
LINE
8
BLACK
6
CONTINUOUS
10
2.4311
20
-4.03939
11
2.42943
21
-4.0387
0
LINE
8
BLACK
6
CONTINUOUS
10
2.42943
20
-4.0387
11
2.42874
21
-4.03703
0
LINE
8
BLACK
6
CONTINUOUS
10
2.42874
20
-4.03703
11
2.42874
21
-4.02596
0
LINE
8
BLACK
6
CONTINUOUS
10
2.42874
20
-4.02596
11
2.42943
21
-4.02429
0
LINE
8
BLACK
6
CONTINUOUS
10
2.42943
20
-4.02429
11
2.4311
21
-4.0236
0
LINE
8
BLACK
6
CONTINUOUS
10
2.4311
20
-4.0236
11
2.43277
21
-4.02429
0
LINE
8
BLACK
6
CONTINUOUS
10
1.67593
20
-3.99519
11
1.67904
21
-3.9978
0
LINE
8
BLACK
6
CONTINUOUS
10
1.67904
20
-3.9978
11
1.68107
21
-4.00132
0
LINE
8
BLACK
6
CONTINUOUS
10
1.68107
20
-4.00132
11
1.68177
21
-4.00531
0
LINE
8
BLACK
6
CONTINUOUS
10
1.68177
20
-4.00531
11
1.68107
21
-4.00931
0
LINE
8
BLACK
6
CONTINUOUS
10
1.68107
20
-4.00931
11
1.67904
21
-4.01283
0
LINE
8
BLACK
6
CONTINUOUS
10
1.67904
20
-4.01283
11
1.67593
21
-4.01544
0
LINE
8
BLACK
6
CONTINUOUS
10
1.67593
20
-4.01544
11
1.67211
21
-4.01683
0
LINE
8
BLACK
6
CONTINUOUS
10
1.67211
20
-4.01683
11
1.66805
21
-4.01683
0
LINE
8
BLACK
6
CONTINUOUS
10
1.66805
20
-4.01683
11
1.66423
21
-4.01544
0
LINE
8
BLACK
6
CONTINUOUS
10
1.66423
20
-4.01544
11
1.66112
21
-4.01283
0
LINE
8
BLACK
6
CONTINUOUS
10
1.66112
20
-4.01283
11
1.65909
21
-4.00931
0
LINE
8
BLACK
6
CONTINUOUS
10
1.65909
20
-4.00931
11
1.65839
21
-4.00531
0
LINE
8
BLACK
6
CONTINUOUS
10
1.65839
20
-4.00531
11
1.65909
21
-4.00132
0
LINE
8
BLACK
6
CONTINUOUS
10
1.65909
20
-4.00132
11
1.66112
21
-3.9978
0
LINE
8
BLACK
6
CONTINUOUS
10
1.66112
20
-3.9978
11
1.66423
21
-3.99519
0
LINE
8
BLACK
6
CONTINUOUS
10
1.66423
20
-3.99519
11
1.66805
21
-3.9938
0
LINE
8
BLACK
6
CONTINUOUS
10
1.66805
20
-3.9938
11
1.67211
21
-3.9938
0
LINE
8
BLACK
6
CONTINUOUS
10
1.67211
20
-3.9938
11
1.67593
21
-3.99519
0
LINE
8
BLACK
6
CONTINUOUS
10
1.66878
20
-4.00661
11
1.67008
21
-4.00715
0
LINE
8
BLACK
6
CONTINUOUS
10
1.67008
20
-4.00715
11
1.67137
21
-4.00661
0
LINE
8
BLACK
6
CONTINUOUS
10
1.67137
20
-4.00661
11
1.67191
21
-4.00531
0
LINE
8
BLACK
6
CONTINUOUS
10
1.67191
20
-4.00531
11
1.67137
21
-4.00402
0
LINE
8
BLACK
6
CONTINUOUS
10
1.67137
20
-4.00402
11
1.67008
21
-4.00348
0
LINE
8
BLACK
6
CONTINUOUS
10
1.67008
20
-4.00348
11
1.66878
21
-4.00402
0
LINE
8
BLACK
6
CONTINUOUS
10
1.66878
20
-4.00402
11
1.66825
21
-4.00531
0
LINE
8
BLACK
6
CONTINUOUS
10
1.66825
20
-4.00531
11
1.66878
21
-4.00661
0
LINE
8
BLACK
6
CONTINUOUS
10
1.67224
20
-3.75846
11
1.90323
21
-3.75846
0
LINE
8
BLACK
6
CONTINUOUS
10
1.90323
20
-3.75846
11
1.90382
21
-3.75866
0
LINE
8
BLACK
6
CONTINUOUS
10
1.90382
20
-3.75866
11
1.90444
21
-3.75866
0
LINE
8
BLACK
6
CONTINUOUS
10
1.90444
20
-3.75866
11
1.90495
21
-3.75902
0
LINE
8
BLACK
6
CONTINUOUS
10
1.90495
20
-3.75902
11
1.90554
21
-3.75922
0
LINE
8
BLACK
6
CONTINUOUS
10
1.90554
20
-3.75922
11
1.90591
21
-3.75972
0
LINE
8
BLACK
6
CONTINUOUS
10
1.90591
20
-3.75972
11
1.90641
21
-3.76009
0
LINE
8
BLACK
6
CONTINUOUS
10
1.90641
20
-3.76009
11
1.90661
21
-3.76068
0
LINE
8
BLACK
6
CONTINUOUS
10
1.90661
20
-3.76068
11
1.90697
21
-3.76118
0
LINE
8
BLACK
6
CONTINUOUS
10
1.90697
20
-3.76118
11
1.90697
21
-3.76181
0
LINE
8
BLACK
6
CONTINUOUS
10
1.90697
20
-3.76181
11
1.90717
21
-3.7624
0
LINE
8
BLACK
6
CONTINUOUS
10
1.90717
20
-3.7624
11
1.90717
21
-4.02441
0
LINE
8
BLACK
6
CONTINUOUS
10
1.90717
20
-4.02441
11
1.90697
21
-4.025
0
LINE
8
BLACK
6
CONTINUOUS
10
1.90697
20
-4.025
11
1.90697
21
-4.02563
0
LINE
8
BLACK
6
CONTINUOUS
10
1.90697
20
-4.02563
11
1.90661
21
-4.02613
0
LINE
8
BLACK
6
CONTINUOUS
10
1.90661
20
-4.02613
11
1.90641
21
-4.02672
0
LINE
8
BLACK
6
CONTINUOUS
10
1.90641
20
-4.02672
11
1.90591
21
-4.02709
0
LINE
8
BLACK
6
CONTINUOUS
10
1.90591
20
-4.02709
11
1.90554
21
-4.02759
0
LINE
8
BLACK
6
CONTINUOUS
10
1.90554
20
-4.02759
11
1.90495
21
-4.02779
0
LINE
8
BLACK
6
CONTINUOUS
10
1.90495
20
-4.02779
11
1.90444
21
-4.02815
0
LINE
8
BLACK
6
CONTINUOUS
10
1.90444
20
-4.02815
11
1.90382
21
-4.02815
0
LINE
8
BLACK
6
CONTINUOUS
10
1.90382
20
-4.02815
11
1.90323
21
-4.02835
0
LINE
8
BLACK
6
CONTINUOUS
10
1.90323
20
-4.02835
11
1.64224
21
-4.02835
0
LINE
8
BLACK
6
CONTINUOUS
10
1.64224
20
-4.02835
11
1.64165
21
-4.02815
0
LINE
8
BLACK
6
CONTINUOUS
10
1.64165
20
-4.02815
11
1.64103
21
-4.02815
0
LINE
8
BLACK
6
CONTINUOUS
10
1.64103
20
-4.02815
11
1.64052
21
-4.02779
0
LINE
8
BLACK
6
CONTINUOUS
10
1.64052
20
-4.02779
11
1.63993
21
-4.02759
0
LINE
8
BLACK
6
CONTINUOUS
10
1.63993
20
-4.02759
11
1.63956
21
-4.02709
0
LINE
8
BLACK
6
CONTINUOUS
10
1.63956
20
-4.02709
11
1.63906
21
-4.02672
0
LINE
8
BLACK
6
CONTINUOUS
10
1.63906
20
-4.02672
11
1.63887
21
-4.02613
0
LINE
8
BLACK
6
CONTINUOUS
10
1.63887
20
-4.02613
11
1.6385
21
-4.02563
0
LINE
8
BLACK
6
CONTINUOUS
10
1.6385
20
-4.02563
11
1.6385
21
-4.025
0
LINE
8
BLACK
6
CONTINUOUS
10
1.6385
20
-4.025
11
1.63831
21
-4.02441
0
LINE
8
BLACK
6
CONTINUOUS
10
1.63831
20
-4.02441
11
1.63831
21
-3.7624
0
LINE
8
BLACK
6
CONTINUOUS
10
1.63831
20
-3.7624
11
1.6385
21
-3.76181
0
LINE
8
BLACK
6
CONTINUOUS
10
1.6385
20
-3.76181
11
1.6385
21
-3.76118
0
LINE
8
BLACK
6
CONTINUOUS
10
1.6385
20
-3.76118
11
1.63887
21
-3.76068
0
LINE
8
BLACK
6
CONTINUOUS
10
1.63887
20
-3.76068
11
1.63906
21
-3.76009
0
LINE
8
BLACK
6
CONTINUOUS
10
1.63906
20
-3.76009
11
1.63956
21
-3.75972
0
LINE
8
BLACK
6
CONTINUOUS
10
1.63956
20
-3.75972
11
1.63993
21
-3.75922
0
LINE
8
BLACK
6
CONTINUOUS
10
1.63993
20
-3.75922
11
1.64052
21
-3.75902
0
LINE
8
BLACK
6
CONTINUOUS
10
1.64052
20
-3.75902
11
1.64103
21
-3.75866
0
LINE
8
BLACK
6
CONTINUOUS
10
1.64103
20
-3.75866
11
1.64165
21
-3.75866
0
LINE
8
BLACK
6
CONTINUOUS
10
1.64165
20
-3.75866
11
1.64224
21
-3.75846
0
LINE
8
BLACK
6
CONTINUOUS
10
1.64224
20
-3.75846
11
1.67224
21
-3.75846
0
LINE
8
BLACK
6
CONTINUOUS
10
1.64618
20
-3.76634
11
1.64618
21
-4.02047
0
LINE
8
BLACK
6
CONTINUOUS
10
1.64618
20
-4.02047
11
1.89929
21
-4.02047
0
LINE
8
BLACK
6
CONTINUOUS
10
1.89929
20
-4.02047
11
1.89929
21
-3.76634
0
LINE
8
BLACK
6
CONTINUOUS
10
1.89929
20
-3.76634
11
1.65921
21
-3.76634
0
LINE
8
BLACK
6
CONTINUOUS
10
1.65921
20
-3.76634
11
1.64618
21
-3.76634
0
LINE
8
BLACK
6
CONTINUOUS
10
2.23248
20
-3.97657
11
2.30925
21
-3.97657
0
LINE
8
BLACK
6
CONTINUOUS
10
2.30925
20
-3.97657
11
2.31092
21
-3.97727
0
LINE
8
BLACK
6
CONTINUOUS
10
2.31092
20
-3.97727
11
2.31161
21
-3.97894
0
LINE
8
BLACK
6
CONTINUOUS
10
2.31161
20
-3.97894
11
2.31092
21
-3.98061
0
LINE
8
BLACK
6
CONTINUOUS
10
2.31092
20
-3.98061
11
2.30925
21
-3.9813
0
LINE
8
BLACK
6
CONTINUOUS
10
2.30925
20
-3.9813
11
2.23248
21
-3.9813
0
LINE
8
BLACK
6
CONTINUOUS
10
2.23248
20
-3.9813
11
2.09665
21
-3.9813
0
LINE
8
BLACK
6
CONTINUOUS
10
2.09665
20
-3.9813
11
2.09498
21
-3.98061
0
LINE
8
BLACK
6
CONTINUOUS
10
2.09498
20
-3.98061
11
2.09429
21
-3.97894
0
LINE
8
BLACK
6
CONTINUOUS
10
2.09429
20
-3.97894
11
2.09498
21
-3.97727
0
LINE
8
BLACK
6
CONTINUOUS
10
2.09498
20
-3.97727
11
2.09665
21
-3.97657
0
LINE
8
BLACK
6
CONTINUOUS
10
2.09665
20
-3.97657
11
2.23248
21
-3.97657
0
LINE
8
BLACK
6
CONTINUOUS
10
1.51299
20
-3.94293
11
1.51368
21
-3.9446
0
LINE
8
BLACK
6
CONTINUOUS
10
1.51368
20
-3.9446
11
1.51368
21
-3.96328
0
LINE
8
BLACK
6
CONTINUOUS
10
1.51368
20
-3.96328
11
1.51299
21
-3.96495
0
LINE
8
BLACK
6
CONTINUOUS
10
1.51299
20
-3.96495
11
1.51132
21
-3.96564
0
LINE
8
BLACK
6
CONTINUOUS
10
1.51132
20
-3.96564
11
1.50965
21
-3.96495
0
LINE
8
BLACK
6
CONTINUOUS
10
1.50965
20
-3.96495
11
1.50896
21
-3.96328
0
LINE
8
BLACK
6
CONTINUOUS
10
1.50896
20
-3.96328
11
1.50896
21
-3.9446
0
LINE
8
BLACK
6
CONTINUOUS
10
1.50896
20
-3.9446
11
1.50965
21
-3.94293
0
LINE
8
BLACK
6
CONTINUOUS
10
1.50965
20
-3.94293
11
1.51132
21
-3.94223
0
LINE
8
BLACK
6
CONTINUOUS
10
1.51132
20
-3.94223
11
1.51299
21
-3.94293
0
LINE
8
BLACK
6
CONTINUOUS
10
1.55413
20
-3.94293
11
1.55482
21
-3.9446
0
LINE
8
BLACK
6
CONTINUOUS
10
1.55482
20
-3.9446
11
1.55482
21
-3.96328
0
LINE
8
BLACK
6
CONTINUOUS
10
1.55482
20
-3.96328
11
1.55413
21
-3.96495
0
LINE
8
BLACK
6
CONTINUOUS
10
1.55413
20
-3.96495
11
1.55246
21
-3.96564
0
LINE
8
BLACK
6
CONTINUOUS
10
1.55246
20
-3.96564
11
1.55079
21
-3.96495
0
LINE
8
BLACK
6
CONTINUOUS
10
1.55079
20
-3.96495
11
1.5501
21
-3.96328
0
LINE
8
BLACK
6
CONTINUOUS
10
1.5501
20
-3.96328
11
1.5501
21
-3.9446
0
LINE
8
BLACK
6
CONTINUOUS
10
1.5501
20
-3.9446
11
1.55079
21
-3.94293
0
LINE
8
BLACK
6
CONTINUOUS
10
1.55079
20
-3.94293
11
1.55246
21
-3.94223
0
LINE
8
BLACK
6
CONTINUOUS
10
1.55246
20
-3.94223
11
1.55413
21
-3.94293
0
LINE
8
BLACK
6
CONTINUOUS
10
2.10176
20
-3.91378
11
2.10245
21
-3.91545
0
LINE
8
BLACK
6
CONTINUOUS
10
2.10245
20
-3.91545
11
2.10176
21
-3.91712
0
LINE
8
BLACK
6
CONTINUOUS
10
2.10176
20
-3.91712
11
2.10009
21
-3.91781
0
LINE
8
BLACK
6
CONTINUOUS
10
2.10009
20
-3.91781
11
2.08141
21
-3.91781
0
LINE
8
BLACK
6
CONTINUOUS
10
2.08141
20
-3.91781
11
2.07974
21
-3.91712
0
LINE
8
BLACK
6
CONTINUOUS
10
2.07974
20
-3.91712
11
2.07904
21
-3.91545
0
LINE
8
BLACK
6
CONTINUOUS
10
2.07904
20
-3.91545
11
2.07974
21
-3.91378
0
LINE
8
BLACK
6
CONTINUOUS
10
2.07974
20
-3.91378
11
2.08141
21
-3.91309
0
LINE
8
BLACK
6
CONTINUOUS
10
2.08141
20
-3.91309
11
2.10009
21
-3.91309
0
LINE
8
BLACK
6
CONTINUOUS
10
2.10009
20
-3.91309
11
2.10176
21
-3.91378
0
LINE
8
BLACK
6
CONTINUOUS
10
2.47857
20
-3.70288
11
2.47888
21
-3.70308
0
LINE
8
BLACK
6
CONTINUOUS
10
2.47888
20
-3.70308
11
2.47924
21
-3.70313
0
LINE
8
BLACK
6
CONTINUOUS
10
2.47924
20
-3.70313
11
2.48005
21
-3.70383
0
LINE
8
BLACK
6
CONTINUOUS
10
2.48005
20
-3.70383
11
2.48094
21
-3.7044
0
LINE
8
BLACK
6
CONTINUOUS
10
2.48094
20
-3.7044
11
2.4811
21
-3.70473
0
LINE
8
BLACK
6
CONTINUOUS
10
2.4811
20
-3.70473
11
2.48137
21
-3.70497
0
LINE
8
BLACK
6
CONTINUOUS
10
2.48137
20
-3.70497
11
2.48167
21
-3.706
0
LINE
8
BLACK
6
CONTINUOUS
10
2.48167
20
-3.706
11
2.48211
21
-3.70697
0
LINE
8
BLACK
6
CONTINUOUS
10
2.48211
20
-3.70697
11
2.48206
21
-3.70733
0
LINE
8
BLACK
6
CONTINUOUS
10
2.48206
20
-3.70733
11
2.48217
21
-3.70768
0
LINE
8
BLACK
6
CONTINUOUS
10
2.48217
20
-3.70768
11
2.48217
21
-3.75484
0
LINE
8
BLACK
6
CONTINUOUS
10
2.48217
20
-3.75484
11
2.52047
21
-3.75484
0
LINE
8
BLACK
6
CONTINUOUS
10
2.52047
20
-3.75484
11
2.52188
21
-3.75505
0
LINE
8
BLACK
6
CONTINUOUS
10
2.52188
20
-3.75505
11
2.52219
21
-3.75524
0
LINE
8
BLACK
6
CONTINUOUS
10
2.52219
20
-3.75524
11
2.52255
21
-3.75529
0
LINE
8
BLACK
6
CONTINUOUS
10
2.52255
20
-3.75529
11
2.52335
21
-3.75599
0
LINE
8
BLACK
6
CONTINUOUS
10
2.52335
20
-3.75599
11
2.52425
21
-3.75657
0
LINE
8
BLACK
6
CONTINUOUS
10
2.52425
20
-3.75657
11
2.5244
21
-3.7569
0
LINE
8
BLACK
6
CONTINUOUS
10
2.5244
20
-3.7569
11
2.52468
21
-3.75714
0
LINE
8
BLACK
6
CONTINUOUS
10
2.52468
20
-3.75714
11
2.52498
21
-3.75816
0
LINE
8
BLACK
6
CONTINUOUS
10
2.52498
20
-3.75816
11
2.52542
21
-3.75913
0
LINE
8
BLACK
6
CONTINUOUS
10
2.52542
20
-3.75913
11
2.52537
21
-3.75949
0
LINE
8
BLACK
6
CONTINUOUS
10
2.52537
20
-3.75949
11
2.52547
21
-3.75984
0
LINE
8
BLACK
6
CONTINUOUS
10
2.52547
20
-3.75984
11
2.52547
21
-3.83858
0
LINE
8
BLACK
6
CONTINUOUS
10
2.52547
20
-3.83858
11
2.52527
21
-3.83999
0
LINE
8
BLACK
6
CONTINUOUS
10
2.52527
20
-3.83999
11
2.52507
21
-3.8403
0
LINE
8
BLACK
6
CONTINUOUS
10
2.52507
20
-3.8403
11
2.52502
21
-3.84066
0
LINE
8
BLACK
6
CONTINUOUS
10
2.52502
20
-3.84066
11
2.52432
21
-3.84146
0
LINE
8
BLACK
6
CONTINUOUS
10
2.52432
20
-3.84146
11
2.52375
21
-3.84236
0
LINE
8
BLACK
6
CONTINUOUS
10
2.52375
20
-3.84236
11
2.52341
21
-3.84251
0
LINE
8
BLACK
6
CONTINUOUS
10
2.52341
20
-3.84251
11
2.52318
21
-3.84279
0
LINE
8
BLACK
6
CONTINUOUS
10
2.52318
20
-3.84279
11
2.52215
21
-3.84309
0
LINE
8
BLACK
6
CONTINUOUS
10
2.52215
20
-3.84309
11
2.52118
21
-3.84353
0
LINE
8
BLACK
6
CONTINUOUS
10
2.52118
20
-3.84353
11
2.52082
21
-3.84348
0
LINE
8
BLACK
6
CONTINUOUS
10
2.52082
20
-3.84348
11
2.52047
21
-3.84358
0
LINE
8
BLACK
6
CONTINUOUS
10
2.52047
20
-3.84358
11
2.48217
21
-3.84358
0
LINE
8
BLACK
6
CONTINUOUS
10
2.48217
20
-3.84358
11
2.48217
21
-3.89075
0
LINE
8
BLACK
6
CONTINUOUS
10
2.48217
20
-3.89075
11
2.48196
21
-3.89216
0
LINE
8
BLACK
6
CONTINUOUS
10
2.48196
20
-3.89216
11
2.48177
21
-3.89246
0
LINE
8
BLACK
6
CONTINUOUS
10
2.48177
20
-3.89246
11
2.48171
21
-3.89283
0
LINE
8
BLACK
6
CONTINUOUS
10
2.48171
20
-3.89283
11
2.48102
21
-3.89363
0
LINE
8
BLACK
6
CONTINUOUS
10
2.48102
20
-3.89363
11
2.48044
21
-3.89453
0
LINE
8
BLACK
6
CONTINUOUS
10
2.48044
20
-3.89453
11
2.48011
21
-3.89468
0
LINE
8
BLACK
6
CONTINUOUS
10
2.48011
20
-3.89468
11
2.47987
21
-3.89495
0
LINE
8
BLACK
6
CONTINUOUS
10
2.47987
20
-3.89495
11
2.47885
21
-3.89525
0
LINE
8
BLACK
6
CONTINUOUS
10
2.47885
20
-3.89525
11
2.47788
21
-3.8957
0
LINE
8
BLACK
6
CONTINUOUS
10
2.47788
20
-3.8957
11
2.47752
21
-3.89565
0
LINE
8
BLACK
6
CONTINUOUS
10
2.47752
20
-3.89565
11
2.47717
21
-3.89575
0
LINE
8
BLACK
6
CONTINUOUS
10
2.47717
20
-3.89575
11
2.38268
21
-3.89575
0
LINE
8
BLACK
6
CONTINUOUS
10
2.38268
20
-3.89575
11
2.38127
21
-3.89555
0
LINE
8
BLACK
6
CONTINUOUS
10
2.38127
20
-3.89555
11
2.38096
21
-3.89535
0
LINE
8
BLACK
6
CONTINUOUS
10
2.38096
20
-3.89535
11
2.3806
21
-3.8953
0
LINE
8
BLACK
6
CONTINUOUS
10
2.3806
20
-3.8953
11
2.37979
21
-3.8946
0
LINE
8
BLACK
6
CONTINUOUS
10
2.37979
20
-3.8946
11
2.3789
21
-3.89402
0
LINE
8
BLACK
6
CONTINUOUS
10
2.3789
20
-3.89402
11
2.37875
21
-3.89369
0
LINE
8
BLACK
6
CONTINUOUS
10
2.37875
20
-3.89369
11
2.37847
21
-3.89345
0
LINE
8
BLACK
6
CONTINUOUS
10
2.37847
20
-3.89345
11
2.37817
21
-3.89243
0
LINE
8
BLACK
6
CONTINUOUS
10
2.37817
20
-3.89243
11
2.37773
21
-3.89146
0
LINE
8
BLACK
6
CONTINUOUS
10
2.37773
20
-3.89146
11
2.37778
21
-3.8911
0
LINE
8
BLACK
6
CONTINUOUS
10
2.37778
20
-3.8911
11
2.37768
21
-3.89075
0
LINE
8
BLACK
6
CONTINUOUS
10
2.37768
20
-3.89075
11
2.37768
21
-3.88705
0
LINE
8
BLACK
6
CONTINUOUS
10
2.37768
20
-3.88705
11
2.37788
21
-3.88564
0
LINE
8
BLACK
6
CONTINUOUS
10
2.37788
20
-3.88564
11
2.3794
21
-3.88327
0
LINE
8
BLACK
6
CONTINUOUS
10
2.3794
20
-3.88327
11
2.38197
21
-3.8821
0
LINE
8
BLACK
6
CONTINUOUS
10
2.38197
20
-3.8821
11
2.38475
21
-3.8825
0
LINE
8
BLACK
6
CONTINUOUS
10
2.38475
20
-3.8825
11
2.38688
21
-3.88434
0
LINE
8
BLACK
6
CONTINUOUS
10
2.38688
20
-3.88434
11
2.3873
21
-3.88575
0
LINE
8
BLACK
6
CONTINUOUS
10
2.3873
20
-3.88575
11
2.47217
21
-3.88575
0
LINE
8
BLACK
6
CONTINUOUS
10
2.47217
20
-3.88575
11
2.47217
21
-3.71268
0
LINE
8
BLACK
6
CONTINUOUS
10
2.47217
20
-3.71268
11
2.38749
21
-3.71268
0
LINE
8
BLACK
6
CONTINUOUS
10
2.38749
20
-3.71268
11
2.38747
21
-3.71279
0
LINE
8
BLACK
6
CONTINUOUS
10
2.38747
20
-3.71279
11
2.38595
21
-3.71516
0
LINE
8
BLACK
6
CONTINUOUS
10
2.38595
20
-3.71516
11
2.38339
21
-3.71633
0
LINE
8
BLACK
6
CONTINUOUS
10
2.38339
20
-3.71633
11
2.3806
21
-3.71593
0
LINE
8
BLACK
6
CONTINUOUS
10
2.3806
20
-3.71593
11
2.37847
21
-3.71408
0
LINE
8
BLACK
6
CONTINUOUS
10
2.37847
20
-3.71408
11
2.37768
21
-3.71138
0
LINE
8
BLACK
6
CONTINUOUS
10
2.37768
20
-3.71138
11
2.37768
21
-3.70768
0
LINE
8
BLACK
6
CONTINUOUS
10
2.37768
20
-3.70768
11
2.37788
21
-3.70627
0
LINE
8
BLACK
6
CONTINUOUS
10
2.37788
20
-3.70627
11
2.37808
21
-3.70596
0
LINE
8
BLACK
6
CONTINUOUS
10
2.37808
20
-3.70596
11
2.37813
21
-3.7056
0
LINE
8
BLACK
6
CONTINUOUS
10
2.37813
20
-3.7056
11
2.37883
21
-3.70479
0
LINE
8
BLACK
6
CONTINUOUS
10
2.37883
20
-3.70479
11
2.3794
21
-3.7039
0
LINE
8
BLACK
6
CONTINUOUS
10
2.3794
20
-3.7039
11
2.37973
21
-3.70375
0
LINE
8
BLACK
6
CONTINUOUS
10
2.37973
20
-3.70375
11
2.37997
21
-3.70347
0
LINE
8
BLACK
6
CONTINUOUS
10
2.37997
20
-3.70347
11
2.381
21
-3.70317
0
LINE
8
BLACK
6
CONTINUOUS
10
2.381
20
-3.70317
11
2.38197
21
-3.70273
0
LINE
8
BLACK
6
CONTINUOUS
10
2.38197
20
-3.70273
11
2.38233
21
-3.70278
0
LINE
8
BLACK
6
CONTINUOUS
10
2.38233
20
-3.70278
11
2.38268
21
-3.70268
0
LINE
8
BLACK
6
CONTINUOUS
10
2.38268
20
-3.70268
11
2.47717
21
-3.70268
0
LINE
8
BLACK
6
CONTINUOUS
10
2.47717
20
-3.70268
11
2.47857
21
-3.70288
0
LINE
8
BLACK
6
CONTINUOUS
10
2.48217
20
-3.76484
11
2.48217
21
-3.83358
0
LINE
8
BLACK
6
CONTINUOUS
10
2.48217
20
-3.83358
11
2.51547
21
-3.83358
0
LINE
8
BLACK
6
CONTINUOUS
10
2.51547
20
-3.83358
11
2.51547
21
-3.76484
0
LINE
8
BLACK
6
CONTINUOUS
10
2.51547
20
-3.76484
11
2.48217
21
-3.76484
0
LINE
8
BLACK
6
CONTINUOUS
10
2.10176
20
-3.87264
11
2.10245
21
-3.87431
0
LINE
8
BLACK
6
CONTINUOUS
10
2.10245
20
-3.87431
11
2.10176
21
-3.87598
0
LINE
8
BLACK
6
CONTINUOUS
10
2.10176
20
-3.87598
11
2.10009
21
-3.87667
0
LINE
8
BLACK
6
CONTINUOUS
10
2.10009
20
-3.87667
11
2.08141
21
-3.87667
0
LINE
8
BLACK
6
CONTINUOUS
10
2.08141
20
-3.87667
11
2.07974
21
-3.87598
0
LINE
8
BLACK
6
CONTINUOUS
10
2.07974
20
-3.87598
11
2.07904
21
-3.87431
0
LINE
8
BLACK
6
CONTINUOUS
10
2.07904
20
-3.87431
11
2.07974
21
-3.87264
0
LINE
8
BLACK
6
CONTINUOUS
10
2.07974
20
-3.87264
11
2.08141
21
-3.87195
0
LINE
8
BLACK
6
CONTINUOUS
10
2.08141
20
-3.87195
11
2.10009
21
-3.87195
0
LINE
8
BLACK
6
CONTINUOUS
10
2.10009
20
-3.87195
11
2.10176
21
-3.87264
0
LINE
8
BLACK
6
CONTINUOUS
10
2.10176
20
-3.85394
11
2.10245
21
-3.85561
0
LINE
8
BLACK
6
CONTINUOUS
10
2.10245
20
-3.85561
11
2.10176
21
-3.85728
0
LINE
8
BLACK
6
CONTINUOUS
10
2.10176
20
-3.85728
11
2.10009
21
-3.85797
0
LINE
8
BLACK
6
CONTINUOUS
10
2.10009
20
-3.85797
11
2.08141
21
-3.85797
0
LINE
8
BLACK
6
CONTINUOUS
10
2.08141
20
-3.85797
11
2.07974
21
-3.85728
0
LINE
8
BLACK
6
CONTINUOUS
10
2.07974
20
-3.85728
11
2.07904
21
-3.85561
0
LINE
8
BLACK
6
CONTINUOUS
10
2.07904
20
-3.85561
11
2.07974
21
-3.85394
0
LINE
8
BLACK
6
CONTINUOUS
10
2.07974
20
-3.85394
11
2.08141
21
-3.85325
0
LINE
8
BLACK
6
CONTINUOUS
10
2.08141
20
-3.85325
11
2.10009
21
-3.85325
0
LINE
8
BLACK
6
CONTINUOUS
10
2.10009
20
-3.85325
11
2.10176
21
-3.85394
0
LINE
8
BLACK
6
CONTINUOUS
10
2.38475
20
-3.74864
11
2.38688
21
-3.75049
0
LINE
8
BLACK
6
CONTINUOUS
10
2.38688
20
-3.75049
11
2.38768
21
-3.75319
0
LINE
8
BLACK
6
CONTINUOUS
10
2.38768
20
-3.75319
11
2.38768
21
-3.84524
0
LINE
8
BLACK
6
CONTINUOUS
10
2.38768
20
-3.84524
11
2.38747
21
-3.84664
0
LINE
8
BLACK
6
CONTINUOUS
10
2.38747
20
-3.84664
11
2.38595
21
-3.84901
0
LINE
8
BLACK
6
CONTINUOUS
10
2.38595
20
-3.84901
11
2.38339
21
-3.85019
0
LINE
8
BLACK
6
CONTINUOUS
10
2.38339
20
-3.85019
11
2.3806
21
-3.84978
0
LINE
8
BLACK
6
CONTINUOUS
10
2.3806
20
-3.84978
11
2.37847
21
-3.84794
0
LINE
8
BLACK
6
CONTINUOUS
10
2.37847
20
-3.84794
11
2.37768
21
-3.84524
0
LINE
8
BLACK
6
CONTINUOUS
10
2.37768
20
-3.84524
11
2.37768
21
-3.75319
0
LINE
8
BLACK
6
CONTINUOUS
10
2.37768
20
-3.75319
11
2.37788
21
-3.75178
0
LINE
8
BLACK
6
CONTINUOUS
10
2.37788
20
-3.75178
11
2.3794
21
-3.74941
0
LINE
8
BLACK
6
CONTINUOUS
10
2.3794
20
-3.74941
11
2.38197
21
-3.74824
0
LINE
8
BLACK
6
CONTINUOUS
10
2.38197
20
-3.74824
11
2.38475
21
-3.74864
0
LINE
8
BLACK
6
CONTINUOUS
10
2.10176
20
-3.8128
11
2.10245
21
-3.81447
0
LINE
8
BLACK
6
CONTINUOUS
10
2.10245
20
-3.81447
11
2.10176
21
-3.81614
0
LINE
8
BLACK
6
CONTINUOUS
10
2.10176
20
-3.81614
11
2.10009
21
-3.81683
0
LINE
8
BLACK
6
CONTINUOUS
10
2.10009
20
-3.81683
11
2.08141
21
-3.81683
0
LINE
8
BLACK
6
CONTINUOUS
10
2.08141
20
-3.81683
11
2.07974
21
-3.81614
0
LINE
8
BLACK
6
CONTINUOUS
10
2.07974
20
-3.81614
11
2.07904
21
-3.81447
0
LINE
8
BLACK
6
CONTINUOUS
10
2.07904
20
-3.81447
11
2.07974
21
-3.8128
0
LINE
8
BLACK
6
CONTINUOUS
10
2.07974
20
-3.8128
11
2.08141
21
-3.81211
0
LINE
8
BLACK
6
CONTINUOUS
10
2.08141
20
-3.81211
11
2.10009
21
-3.81211
0
LINE
8
BLACK
6
CONTINUOUS
10
2.10009
20
-3.81211
11
2.10176
21
-3.8128
0
LINE
8
BLACK
6
CONTINUOUS
10
2.00248
20
-3.74636
11
2.00317
21
-3.74803
0
LINE
8
BLACK
6
CONTINUOUS
10
2.00317
20
-3.74803
11
2.00248
21
-3.7497
0
LINE
8
BLACK
6
CONTINUOUS
10
2.00248
20
-3.7497
11
2.00081
21
-3.75039
0
LINE
8
BLACK
6
CONTINUOUS
10
2.00081
20
-3.75039
11
1.98974
21
-3.75039
0
LINE
8
BLACK
6
CONTINUOUS
10
1.98974
20
-3.75039
11
1.98807
21
-3.7497
0
LINE
8
BLACK
6
CONTINUOUS
10
1.98807
20
-3.7497
11
1.98738
21
-3.74803
0
LINE
8
BLACK
6
CONTINUOUS
10
1.98738
20
-3.74803
11
1.98807
21
-3.74636
0
LINE
8
BLACK
6
CONTINUOUS
10
1.98807
20
-3.74636
11
1.98974
21
-3.74567
0
LINE
8
BLACK
6
CONTINUOUS
10
1.98974
20
-3.74567
11
2.00081
21
-3.74567
0
LINE
8
BLACK
6
CONTINUOUS
10
2.00081
20
-3.74567
11
2.00248
21
-3.74636
0
LINE
8
BLACK
6
CONTINUOUS
10
2.00248
20
-3.7062
11
2.00317
21
-3.70787
0
LINE
8
BLACK
6
CONTINUOUS
10
2.00317
20
-3.70787
11
2.00248
21
-3.70954
0
LINE
8
BLACK
6
CONTINUOUS
10
2.00248
20
-3.70954
11
2.00081
21
-3.71024
0
LINE
8
BLACK
6
CONTINUOUS
10
2.00081
20
-3.71024
11
1.98974
21
-3.71024
0
LINE
8
BLACK
6
CONTINUOUS
10
1.98974
20
-3.71024
11
1.98807
21
-3.70954
0
LINE
8
BLACK
6
CONTINUOUS
10
1.98807
20
-3.70954
11
1.98738
21
-3.70787
0
LINE
8
BLACK
6
CONTINUOUS
10
1.98738
20
-3.70787
11
1.98807
21
-3.7062
0
LINE
8
BLACK
6
CONTINUOUS
10
1.98807
20
-3.7062
11
1.98974
21
-3.70551
0
LINE
8
BLACK
6
CONTINUOUS
10
1.98974
20
-3.70551
11
2.00081
21
-3.70551
0
LINE
8
BLACK
6
CONTINUOUS
10
2.00081
20
-3.70551
11
2.00248
21
-3.7062
0
LINE
8
BLACK
6
CONTINUOUS
10
1.79152
20
-3.68544
11
1.79221
21
-3.68711
0
LINE
8
BLACK
6
CONTINUOUS
10
1.79221
20
-3.68711
11
1.79152
21
-3.68878
0
LINE
8
BLACK
6
CONTINUOUS
10
1.79152
20
-3.68878
11
1.78985
21
-3.68947
0
LINE
8
BLACK
6
CONTINUOUS
10
1.78985
20
-3.68947
11
1.77117
21
-3.68947
0
LINE
8
BLACK
6
CONTINUOUS
10
1.77117
20
-3.68947
11
1.7695
21
-3.68878
0
LINE
8
BLACK
6
CONTINUOUS
10
1.7695
20
-3.68878
11
1.76881
21
-3.68711
0
LINE
8
BLACK
6
CONTINUOUS
10
1.76881
20
-3.68711
11
1.7695
21
-3.68544
0
LINE
8
BLACK
6
CONTINUOUS
10
1.7695
20
-3.68544
11
1.77117
21
-3.68474
0
LINE
8
BLACK
6
CONTINUOUS
10
1.77117
20
-3.68474
11
1.78985
21
-3.68474
0
LINE
8
BLACK
6
CONTINUOUS
10
1.78985
20
-3.68474
11
1.79152
21
-3.68544
0
LINE
8
BLACK
6
CONTINUOUS
10
1.91081
20
-3.68504
11
1.91151
21
-3.68671
0
LINE
8
BLACK
6
CONTINUOUS
10
1.91151
20
-3.68671
11
1.91081
21
-3.68838
0
LINE
8
BLACK
6
CONTINUOUS
10
1.91081
20
-3.68838
11
1.90914
21
-3.68907
0
LINE
8
BLACK
6
CONTINUOUS
10
1.90914
20
-3.68907
11
1.89046
21
-3.68907
0
LINE
8
BLACK
6
CONTINUOUS
10
1.89046
20
-3.68907
11
1.88879
21
-3.68838
0
LINE
8
BLACK
6
CONTINUOUS
10
1.88879
20
-3.68838
11
1.8881
21
-3.68671
0
LINE
8
BLACK
6
CONTINUOUS
10
1.8881
20
-3.68671
11
1.88879
21
-3.68504
0
LINE
8
BLACK
6
CONTINUOUS
10
1.88879
20
-3.68504
11
1.89046
21
-3.68435
0
LINE
8
BLACK
6
CONTINUOUS
10
1.89046
20
-3.68435
11
1.90914
21
-3.68435
0
LINE
8
BLACK
6
CONTINUOUS
10
1.90914
20
-3.68435
11
1.91081
21
-3.68504
0
LINE
8
BLACK
6
CONTINUOUS
10
2.04646
20
-3.50669
11
2.04813
21
-3.50738
0
LINE
8
BLACK
6
CONTINUOUS
10
2.04813
20
-3.50738
11
2.04882
21
-3.50906
0
LINE
8
BLACK
6
CONTINUOUS
10
2.04882
20
-3.50906
11
2.04882
21
-3.66693
0
LINE
8
BLACK
6
CONTINUOUS
10
2.04882
20
-3.66693
11
2.04813
21
-3.6686
0
LINE
8
BLACK
6
CONTINUOUS
10
2.04813
20
-3.6686
11
2.04646
21
-3.66929
0
LINE
8
BLACK
6
CONTINUOUS
10
2.04646
20
-3.66929
11
2.04479
21
-3.6686
0
LINE
8
BLACK
6
CONTINUOUS
10
2.04479
20
-3.6686
11
2.04409
21
-3.66693
0
LINE
8
BLACK
6
CONTINUOUS
10
2.04409
20
-3.66693
11
2.04409
21
-3.51142
0
LINE
8
BLACK
6
CONTINUOUS
10
2.04409
20
-3.51142
11
1.97008
21
-3.51142
0
LINE
8
BLACK
6
CONTINUOUS
10
1.97008
20
-3.51142
11
1.97008
21
-3.66693
0
LINE
8
BLACK
6
CONTINUOUS
10
1.97008
20
-3.66693
11
1.96939
21
-3.6686
0
LINE
8
BLACK
6
CONTINUOUS
10
1.96939
20
-3.6686
11
1.96772
21
-3.66929
0
LINE
8
BLACK
6
CONTINUOUS
10
1.96772
20
-3.66929
11
1.96605
21
-3.6686
0
LINE
8
BLACK
6
CONTINUOUS
10
1.96605
20
-3.6686
11
1.96535
21
-3.66693
0
LINE
8
BLACK
6
CONTINUOUS
10
1.96535
20
-3.66693
11
1.96535
21
-3.50906
0
LINE
8
BLACK
6
CONTINUOUS
10
1.96535
20
-3.50906
11
1.96605
21
-3.50738
0
LINE
8
BLACK
6
CONTINUOUS
10
1.96605
20
-3.50738
11
1.96772
21
-3.50669
0
LINE
8
BLACK
6
CONTINUOUS
10
1.96772
20
-3.50669
11
2.04646
21
-3.50669
0
LINE
8
BLACK
6
CONTINUOUS
10
1.79152
20
-3.64429
11
1.79221
21
-3.64596
0
LINE
8
BLACK
6
CONTINUOUS
10
1.79221
20
-3.64596
11
1.79152
21
-3.64763
0
LINE
8
BLACK
6
CONTINUOUS
10
1.79152
20
-3.64763
11
1.78985
21
-3.64833
0
LINE
8
BLACK
6
CONTINUOUS
10
1.78985
20
-3.64833
11
1.77117
21
-3.64833
0
LINE
8
BLACK
6
CONTINUOUS
10
1.77117
20
-3.64833
11
1.7695
21
-3.64763
0
LINE
8
BLACK
6
CONTINUOUS
10
1.7695
20
-3.64763
11
1.76881
21
-3.64596
0
LINE
8
BLACK
6
CONTINUOUS
10
1.76881
20
-3.64596
11
1.7695
21
-3.64429
0
LINE
8
BLACK
6
CONTINUOUS
10
1.7695
20
-3.64429
11
1.77117
21
-3.6436
0
LINE
8
BLACK
6
CONTINUOUS
10
1.77117
20
-3.6436
11
1.78985
21
-3.6436
0
LINE
8
BLACK
6
CONTINUOUS
10
1.78985
20
-3.6436
11
1.79152
21
-3.64429
0
LINE
8
BLACK
6
CONTINUOUS
10
1.91081
20
-3.6439
11
1.91151
21
-3.64557
0
LINE
8
BLACK
6
CONTINUOUS
10
1.91151
20
-3.64557
11
1.91081
21
-3.64724
0
LINE
8
BLACK
6
CONTINUOUS
10
1.91081
20
-3.64724
11
1.90914
21
-3.64793
0
LINE
8
BLACK
6
CONTINUOUS
10
1.90914
20
-3.64793
11
1.89046
21
-3.64793
0
LINE
8
BLACK
6
CONTINUOUS
10
1.89046
20
-3.64793
11
1.88879
21
-3.64724
0
LINE
8
BLACK
6
CONTINUOUS
10
1.88879
20
-3.64724
11
1.8881
21
-3.64557
0
LINE
8
BLACK
6
CONTINUOUS
10
1.8881
20
-3.64557
11
1.88879
21
-3.6439
0
LINE
8
BLACK
6
CONTINUOUS
10
1.88879
20
-3.6439
11
1.89046
21
-3.64321
0
LINE
8
BLACK
6
CONTINUOUS
10
1.89046
20
-3.64321
11
1.90914
21
-3.64321
0
LINE
8
BLACK
6
CONTINUOUS
10
1.90914
20
-3.64321
11
1.91081
21
-3.6439
0
LINE
8
BLACK
6
CONTINUOUS
10
2.47953
20
-3.43819
11
2.48092
21
-3.43877
0
LINE
8
BLACK
6
CONTINUOUS
10
2.48092
20
-3.43877
11
2.4815
21
-3.44016
0
LINE
8
BLACK
6
CONTINUOUS
10
2.4815
20
-3.44016
11
2.4815
21
-3.61614
0
LINE
8
BLACK
6
CONTINUOUS
10
2.4815
20
-3.61614
11
2.48092
21
-3.61753
0
LINE
8
BLACK
6
CONTINUOUS
10
2.48092
20
-3.61753
11
2.47953
21
-3.61811
0
LINE
8
BLACK
6
CONTINUOUS
10
2.47953
20
-3.61811
11
2.43268
21
-3.61811
0
LINE
8
BLACK
6
CONTINUOUS
10
2.43268
20
-3.61811
11
2.43129
21
-3.61753
0
LINE
8
BLACK
6
CONTINUOUS
10
2.43129
20
-3.61753
11
2.43071
21
-3.61614
0
LINE
8
BLACK
6
CONTINUOUS
10
2.43071
20
-3.61614
11
2.43071
21
-3.61614
0
LINE
8
BLACK
6
CONTINUOUS
10
2.43071
20
-3.61614
11
2.43071
21
-3.44016
0
LINE
8
BLACK
6
CONTINUOUS
10
2.43071
20
-3.44016
11
2.43129
21
-3.43877
0
LINE
8
BLACK
6
CONTINUOUS
10
2.43129
20
-3.43877
11
2.43268
21
-3.43819
0
LINE
8
BLACK
6
CONTINUOUS
10
2.43268
20
-3.43819
11
2.47953
21
-3.43819
0
LINE
8
BLACK
6
CONTINUOUS
10
2.43465
20
-3.44213
11
2.43465
21
-3.61417
0
LINE
8
BLACK
6
CONTINUOUS
10
2.43465
20
-3.61417
11
2.47756
21
-3.61417
0
LINE
8
BLACK
6
CONTINUOUS
10
2.47756
20
-3.61417
11
2.47756
21
-3.44213
0
LINE
8
BLACK
6
CONTINUOUS
10
2.47756
20
-3.44213
11
2.43465
21
-3.44213
0
LINE
8
BLACK
6
CONTINUOUS
10
1.61141
20
-3.5571
11
1.61211
21
-3.55877
0
LINE
8
BLACK
6
CONTINUOUS
10
1.61211
20
-3.55877
11
1.61211
21
-3.57745
0
LINE
8
BLACK
6
CONTINUOUS
10
1.61211
20
-3.57745
11
1.61141
21
-3.57912
0
LINE
8
BLACK
6
CONTINUOUS
10
1.61141
20
-3.57912
11
1.60974
21
-3.57981
0
LINE
8
BLACK
6
CONTINUOUS
10
1.60974
20
-3.57981
11
1.60807
21
-3.57912
0
LINE
8
BLACK
6
CONTINUOUS
10
1.60807
20
-3.57912
11
1.60738
21
-3.57745
0
LINE
8
BLACK
6
CONTINUOUS
10
1.60738
20
-3.57745
11
1.60738
21
-3.55877
0
LINE
8
BLACK
6
CONTINUOUS
10
1.60738
20
-3.55877
11
1.60807
21
-3.5571
0
LINE
8
BLACK
6
CONTINUOUS
10
1.60807
20
-3.5571
11
1.60974
21
-3.55641
0
LINE
8
BLACK
6
CONTINUOUS
10
1.60974
20
-3.55641
11
1.61141
21
-3.5571
0
LINE
8
BLACK
6
CONTINUOUS
10
1.65256
20
-3.5571
11
1.65325
21
-3.55877
0
LINE
8
BLACK
6
CONTINUOUS
10
1.65325
20
-3.55877
11
1.65325
21
-3.57745
0
LINE
8
BLACK
6
CONTINUOUS
10
1.65325
20
-3.57745
11
1.65256
21
-3.57912
0
LINE
8
BLACK
6
CONTINUOUS
10
1.65256
20
-3.57912
11
1.65089
21
-3.57981
0
LINE
8
BLACK
6
CONTINUOUS
10
1.65089
20
-3.57981
11
1.64922
21
-3.57912
0
LINE
8
BLACK
6
CONTINUOUS
10
1.64922
20
-3.57912
11
1.64852
21
-3.57745
0
LINE
8
BLACK
6
CONTINUOUS
10
1.64852
20
-3.57745
11
1.64852
21
-3.55877
0
LINE
8
BLACK
6
CONTINUOUS
10
1.64852
20
-3.55877
11
1.64922
21
-3.5571
0
LINE
8
BLACK
6
CONTINUOUS
10
1.64922
20
-3.5571
11
1.65089
21
-3.55641
0
LINE
8
BLACK
6
CONTINUOUS
10
1.65089
20
-3.55641
11
1.65256
21
-3.5571
0
LINE
8
BLACK
6
CONTINUOUS
10
1.67126
20
-3.5571
11
1.67195
21
-3.55877
0
LINE
8
BLACK
6
CONTINUOUS
10
1.67195
20
-3.55877
11
1.67195
21
-3.57745
0
LINE
8
BLACK
6
CONTINUOUS
10
1.67195
20
-3.57745
11
1.67126
21
-3.57912
0
LINE
8
BLACK
6
CONTINUOUS
10
1.67126
20
-3.57912
11
1.66959
21
-3.57981
0
LINE
8
BLACK
6
CONTINUOUS
10
1.66959
20
-3.57981
11
1.66792
21
-3.57912
0
LINE
8
BLACK
6
CONTINUOUS
10
1.66792
20
-3.57912
11
1.66722
21
-3.57745
0
LINE
8
BLACK
6
CONTINUOUS
10
1.66722
20
-3.57745
11
1.66722
21
-3.55877
0
LINE
8
BLACK
6
CONTINUOUS
10
1.66722
20
-3.55877
11
1.66792
21
-3.5571
0
LINE
8
BLACK
6
CONTINUOUS
10
1.66792
20
-3.5571
11
1.66959
21
-3.55641
0
LINE
8
BLACK
6
CONTINUOUS
10
1.66959
20
-3.55641
11
1.67126
21
-3.5571
0
LINE
8
BLACK
6
CONTINUOUS
10
1.7124
20
-3.5571
11
1.71309
21
-3.55877
0
LINE
8
BLACK
6
CONTINUOUS
10
1.71309
20
-3.55877
11
1.71309
21
-3.57745
0
LINE
8
BLACK
6
CONTINUOUS
10
1.71309
20
-3.57745
11
1.7124
21
-3.57912
0
LINE
8
BLACK
6
CONTINUOUS
10
1.7124
20
-3.57912
11
1.71073
21
-3.57981
0
LINE
8
BLACK
6
CONTINUOUS
10
1.71073
20
-3.57981
11
1.70906
21
-3.57912
0
LINE
8
BLACK
6
CONTINUOUS
10
1.70906
20
-3.57912
11
1.70837
21
-3.57745
0
LINE
8
BLACK
6
CONTINUOUS
10
1.70837
20
-3.57745
11
1.70837
21
-3.55877
0
LINE
8
BLACK
6
CONTINUOUS
10
1.70837
20
-3.55877
11
1.70906
21
-3.5571
0
LINE
8
BLACK
6
CONTINUOUS
10
1.70906
20
-3.5571
11
1.71073
21
-3.55641
0
LINE
8
BLACK
6
CONTINUOUS
10
1.71073
20
-3.55641
11
1.7124
21
-3.5571
0
LINE
8
BLACK
6
CONTINUOUS
10
1.79094
20
-3.5571
11
1.79163
21
-3.55877
0
LINE
8
BLACK
6
CONTINUOUS
10
1.79163
20
-3.55877
11
1.79163
21
-3.57745
0
LINE
8
BLACK
6
CONTINUOUS
10
1.79163
20
-3.57745
11
1.79094
21
-3.57912
0
LINE
8
BLACK
6
CONTINUOUS
10
1.79094
20
-3.57912
11
1.78927
21
-3.57981
0
LINE
8
BLACK
6
CONTINUOUS
10
1.78927
20
-3.57981
11
1.7876
21
-3.57912
0
LINE
8
BLACK
6
CONTINUOUS
10
1.7876
20
-3.57912
11
1.78691
21
-3.57745
0
LINE
8
BLACK
6
CONTINUOUS
10
1.78691
20
-3.57745
11
1.78691
21
-3.55877
0
LINE
8
BLACK
6
CONTINUOUS
10
1.78691
20
-3.55877
11
1.7876
21
-3.5571
0
LINE
8
BLACK
6
CONTINUOUS
10
1.7876
20
-3.5571
11
1.78927
21
-3.55641
0
LINE
8
BLACK
6
CONTINUOUS
10
1.78927
20
-3.55641
11
1.79094
21
-3.5571
0
LINE
8
BLACK
6
CONTINUOUS
10
1.83208
20
-3.5571
11
1.83278
21
-3.55877
0
LINE
8
BLACK
6
CONTINUOUS
10
1.83278
20
-3.55877
11
1.83278
21
-3.57745
0
LINE
8
BLACK
6
CONTINUOUS
10
1.83278
20
-3.57745
11
1.83208
21
-3.57912
0
LINE
8
BLACK
6
CONTINUOUS
10
1.83208
20
-3.57912
11
1.83041
21
-3.57981
0
LINE
8
BLACK
6
CONTINUOUS
10
1.83041
20
-3.57981
11
1.82874
21
-3.57912
0
LINE
8
BLACK
6
CONTINUOUS
10
1.82874
20
-3.57912
11
1.82805
21
-3.57745
0
LINE
8
BLACK
6
CONTINUOUS
10
1.82805
20
-3.57745
11
1.82805
21
-3.55877
0
LINE
8
BLACK
6
CONTINUOUS
10
1.82805
20
-3.55877
11
1.82874
21
-3.5571
0
LINE
8
BLACK
6
CONTINUOUS
10
1.82874
20
-3.5571
11
1.83041
21
-3.55641
0
LINE
8
BLACK
6
CONTINUOUS
10
1.83041
20
-3.55641
11
1.83208
21
-3.5571
0
LINE
8
BLACK
6
CONTINUOUS
10
1.85078
20
-3.5571
11
1.85148
21
-3.55877
0
LINE
8
BLACK
6
CONTINUOUS
10
1.85148
20
-3.55877
11
1.85148
21
-3.57745
0
LINE
8
BLACK
6
CONTINUOUS
10
1.85148
20
-3.57745
11
1.85078
21
-3.57912
0
LINE
8
BLACK
6
CONTINUOUS
10
1.85078
20
-3.57912
11
1.84911
21
-3.57981
0
LINE
8
BLACK
6
CONTINUOUS
10
1.84911
20
-3.57981
11
1.84744
21
-3.57912
0
LINE
8
BLACK
6
CONTINUOUS
10
1.84744
20
-3.57912
11
1.84675
21
-3.57745
0
LINE
8
BLACK
6
CONTINUOUS
10
1.84675
20
-3.57745
11
1.84675
21
-3.55877
0
LINE
8
BLACK
6
CONTINUOUS
10
1.84675
20
-3.55877
11
1.84744
21
-3.5571
0
LINE
8
BLACK
6
CONTINUOUS
10
1.84744
20
-3.5571
11
1.84911
21
-3.55641
0
LINE
8
BLACK
6
CONTINUOUS
10
1.84911
20
-3.55641
11
1.85078
21
-3.5571
0
LINE
8
BLACK
6
CONTINUOUS
10
1.89193
20
-3.5571
11
1.89262
21
-3.55877
0
LINE
8
BLACK
6
CONTINUOUS
10
1.89262
20
-3.55877
11
1.89262
21
-3.57745
0
LINE
8
BLACK
6
CONTINUOUS
10
1.89262
20
-3.57745
11
1.89193
21
-3.57912
0
LINE
8
BLACK
6
CONTINUOUS
10
1.89193
20
-3.57912
11
1.89026
21
-3.57981
0
LINE
8
BLACK
6
CONTINUOUS
10
1.89026
20
-3.57981
11
1.88859
21
-3.57912
0
LINE
8
BLACK
6
CONTINUOUS
10
1.88859
20
-3.57912
11
1.88789
21
-3.57745
0
LINE
8
BLACK
6
CONTINUOUS
10
1.88789
20
-3.57745
11
1.88789
21
-3.55877
0
LINE
8
BLACK
6
CONTINUOUS
10
1.88789
20
-3.55877
11
1.88859
21
-3.5571
0
LINE
8
BLACK
6
CONTINUOUS
10
1.88859
20
-3.5571
11
1.89026
21
-3.55641
0
LINE
8
BLACK
6
CONTINUOUS
10
1.89026
20
-3.55641
11
1.89193
21
-3.5571
0
LINE
8
BLACK
6
CONTINUOUS
10
1.91063
20
-3.5571
11
1.91132
21
-3.55877
0
LINE
8
BLACK
6
CONTINUOUS
10
1.91132
20
-3.55877
11
1.91132
21
-3.57745
0
LINE
8
BLACK
6
CONTINUOUS
10
1.91132
20
-3.57745
11
1.91063
21
-3.57912
0
LINE
8
BLACK
6
CONTINUOUS
10
1.91063
20
-3.57912
11
1.90896
21
-3.57981
0
LINE
8
BLACK
6
CONTINUOUS
10
1.90896
20
-3.57981
11
1.90729
21
-3.57912
0
LINE
8
BLACK
6
CONTINUOUS
10
1.90729
20
-3.57912
11
1.90659
21
-3.57745
0
LINE
8
BLACK
6
CONTINUOUS
10
1.90659
20
-3.57745
11
1.90659
21
-3.55877
0
LINE
8
BLACK
6
CONTINUOUS
10
1.90659
20
-3.55877
11
1.90729
21
-3.5571
0
LINE
8
BLACK
6
CONTINUOUS
10
1.90729
20
-3.5571
11
1.90896
21
-3.55641
0
LINE
8
BLACK
6
CONTINUOUS
10
1.90896
20
-3.55641
11
1.91063
21
-3.5571
0
LINE
8
BLACK
6
CONTINUOUS
10
1.95177
20
-3.5571
11
1.95246
21
-3.55877
0
LINE
8
BLACK
6
CONTINUOUS
10
1.95246
20
-3.55877
11
1.95246
21
-3.57745
0
LINE
8
BLACK
6
CONTINUOUS
10
1.95246
20
-3.57745
11
1.95177
21
-3.57912
0
LINE
8
BLACK
6
CONTINUOUS
10
1.95177
20
-3.57912
11
1.9501
21
-3.57981
0
LINE
8
BLACK
6
CONTINUOUS
10
1.9501
20
-3.57981
11
1.94843
21
-3.57912
0
LINE
8
BLACK
6
CONTINUOUS
10
1.94843
20
-3.57912
11
1.94774
21
-3.57745
0
LINE
8
BLACK
6
CONTINUOUS
10
1.94774
20
-3.57745
11
1.94774
21
-3.55877
0
LINE
8
BLACK
6
CONTINUOUS
10
1.94774
20
-3.55877
11
1.94843
21
-3.5571
0
LINE
8
BLACK
6
CONTINUOUS
10
1.94843
20
-3.5571
11
1.9501
21
-3.55641
0
LINE
8
BLACK
6
CONTINUOUS
10
1.9501
20
-3.55641
11
1.95177
21
-3.5571
0
LINE
8
BLACK
6
CONTINUOUS
10
2.11151
20
-3.56287
11
2.1122
21
-3.56454
0
LINE
8
BLACK
6
CONTINUOUS
10
2.1122
20
-3.56454
11
2.1122
21
-3.57561
0
LINE
8
BLACK
6
CONTINUOUS
10
2.1122
20
-3.57561
11
2.11151
21
-3.57728
0
LINE
8
BLACK
6
CONTINUOUS
10
2.11151
20
-3.57728
11
2.10984
21
-3.57798
0
LINE
8
BLACK
6
CONTINUOUS
10
2.10984
20
-3.57798
11
2.10817
21
-3.57728
0
LINE
8
BLACK
6
CONTINUOUS
10
2.10817
20
-3.57728
11
2.10748
21
-3.57561
0
LINE
8
BLACK
6
CONTINUOUS
10
2.10748
20
-3.57561
11
2.10748
21
-3.56454
0
LINE
8
BLACK
6
CONTINUOUS
10
2.10748
20
-3.56454
11
2.10817
21
-3.56287
0
LINE
8
BLACK
6
CONTINUOUS
10
2.10817
20
-3.56287
11
2.10984
21
-3.56218
0
LINE
8
BLACK
6
CONTINUOUS
10
2.10984
20
-3.56218
11
2.11151
21
-3.56287
0
LINE
8
BLACK
6
CONTINUOUS
10
2.15167
20
-3.56287
11
2.15236
21
-3.56454
0
LINE
8
BLACK
6
CONTINUOUS
10
2.15236
20
-3.56454
11
2.15236
21
-3.57561
0
LINE
8
BLACK
6
CONTINUOUS
10
2.15236
20
-3.57561
11
2.15167
21
-3.57728
0
LINE
8
BLACK
6
CONTINUOUS
10
2.15167
20
-3.57728
11
2.15
21
-3.57798
0
LINE
8
BLACK
6
CONTINUOUS
10
2.15
20
-3.57798
11
2.14833
21
-3.57728
0
LINE
8
BLACK
6
CONTINUOUS
10
2.14833
20
-3.57728
11
2.14764
21
-3.57561
0
LINE
8
BLACK
6
CONTINUOUS
10
2.14764
20
-3.57561
11
2.14764
21
-3.56454
0
LINE
8
BLACK
6
CONTINUOUS
10
2.14764
20
-3.56454
11
2.14833
21
-3.56287
0
LINE
8
BLACK
6
CONTINUOUS
10
2.14833
20
-3.56287
11
2.15
21
-3.56218
0
LINE
8
BLACK
6
CONTINUOUS
10
2.15
20
-3.56218
11
2.15167
21
-3.56287
0
LINE
8
BLACK
6
CONTINUOUS
10
2.17136
20
-3.56287
11
2.17205
21
-3.56454
0
LINE
8
BLACK
6
CONTINUOUS
10
2.17205
20
-3.56454
11
2.17205
21
-3.57561
0
LINE
8
BLACK
6
CONTINUOUS
10
2.17205
20
-3.57561
11
2.17136
21
-3.57728
0
LINE
8
BLACK
6
CONTINUOUS
10
2.17136
20
-3.57728
11
2.16969
21
-3.57798
0
LINE
8
BLACK
6
CONTINUOUS
10
2.16969
20
-3.57798
11
2.16801
21
-3.57728
0
LINE
8
BLACK
6
CONTINUOUS
10
2.16801
20
-3.57728
11
2.16732
21
-3.57561
0
LINE
8
BLACK
6
CONTINUOUS
10
2.16732
20
-3.57561
11
2.16732
21
-3.56454
0
LINE
8
BLACK
6
CONTINUOUS
10
2.16732
20
-3.56454
11
2.16801
21
-3.56287
0
LINE
8
BLACK
6
CONTINUOUS
10
2.16801
20
-3.56287
11
2.16969
21
-3.56218
0
LINE
8
BLACK
6
CONTINUOUS
10
2.16969
20
-3.56218
11
2.17136
21
-3.56287
0
LINE
8
BLACK
6
CONTINUOUS
10
2.21151
20
-3.56287
11
2.2122
21
-3.56454
0
LINE
8
BLACK
6
CONTINUOUS
10
2.2122
20
-3.56454
11
2.2122
21
-3.57561
0
LINE
8
BLACK
6
CONTINUOUS
10
2.2122
20
-3.57561
11
2.21151
21
-3.57728
0
LINE
8
BLACK
6
CONTINUOUS
10
2.21151
20
-3.57728
11
2.20984
21
-3.57798
0
LINE
8
BLACK
6
CONTINUOUS
10
2.20984
20
-3.57798
11
2.20817
21
-3.57728
0
LINE
8
BLACK
6
CONTINUOUS
10
2.20817
20
-3.57728
11
2.20748
21
-3.57561
0
LINE
8
BLACK
6
CONTINUOUS
10
2.20748
20
-3.57561
11
2.20748
21
-3.56454
0
LINE
8
BLACK
6
CONTINUOUS
10
2.20748
20
-3.56454
11
2.20817
21
-3.56287
0
LINE
8
BLACK
6
CONTINUOUS
10
2.20817
20
-3.56287
11
2.20984
21
-3.56218
0
LINE
8
BLACK
6
CONTINUOUS
10
2.20984
20
-3.56218
11
2.21151
21
-3.56287
0
LINE
8
BLACK
6
CONTINUOUS
10
1.42214
20
-3.56248
11
1.42283
21
-3.56415
0
LINE
8
BLACK
6
CONTINUOUS
10
1.42283
20
-3.56415
11
1.42283
21
-3.57522
0
LINE
8
BLACK
6
CONTINUOUS
10
1.42283
20
-3.57522
11
1.42214
21
-3.57689
0
LINE
8
BLACK
6
CONTINUOUS
10
1.42214
20
-3.57689
11
1.42047
21
-3.57758
0
LINE
8
BLACK
6
CONTINUOUS
10
1.42047
20
-3.57758
11
1.4188
21
-3.57689
0
LINE
8
BLACK
6
CONTINUOUS
10
1.4188
20
-3.57689
11
1.41811
21
-3.57522
0
LINE
8
BLACK
6
CONTINUOUS
10
1.41811
20
-3.57522
11
1.41811
21
-3.56415
0
LINE
8
BLACK
6
CONTINUOUS
10
1.41811
20
-3.56415
11
1.4188
21
-3.56248
0
LINE
8
BLACK
6
CONTINUOUS
10
1.4188
20
-3.56248
11
1.42047
21
-3.56179
0
LINE
8
BLACK
6
CONTINUOUS
10
1.42047
20
-3.56179
11
1.42214
21
-3.56248
0
LINE
8
BLACK
6
CONTINUOUS
10
1.4623
20
-3.56248
11
1.46299
21
-3.56415
0
LINE
8
BLACK
6
CONTINUOUS
10
1.46299
20
-3.56415
11
1.46299
21
-3.57522
0
LINE
8
BLACK
6
CONTINUOUS
10
1.46299
20
-3.57522
11
1.4623
21
-3.57689
0
LINE
8
BLACK
6
CONTINUOUS
10
1.4623
20
-3.57689
11
1.46063
21
-3.57758
0
LINE
8
BLACK
6
CONTINUOUS
10
1.46063
20
-3.57758
11
1.45896
21
-3.57689
0
LINE
8
BLACK
6
CONTINUOUS
10
1.45896
20
-3.57689
11
1.45827
21
-3.57522
0
LINE
8
BLACK
6
CONTINUOUS
10
1.45827
20
-3.57522
11
1.45827
21
-3.56415
0
LINE
8
BLACK
6
CONTINUOUS
10
1.45827
20
-3.56415
11
1.45896
21
-3.56248
0
LINE
8
BLACK
6
CONTINUOUS
10
1.45896
20
-3.56248
11
1.46063
21
-3.56179
0
LINE
8
BLACK
6
CONTINUOUS
10
1.46063
20
-3.56179
11
1.4623
21
-3.56248
0
LINE
8
BLACK
6
CONTINUOUS
10
1.48238
20
-3.56228
11
1.48307
21
-3.56395
0
LINE
8
BLACK
6
CONTINUOUS
10
1.48307
20
-3.56395
11
1.48307
21
-3.57502
0
LINE
8
BLACK
6
CONTINUOUS
10
1.48307
20
-3.57502
11
1.48238
21
-3.57669
0
LINE
8
BLACK
6
CONTINUOUS
10
1.48238
20
-3.57669
11
1.48071
21
-3.57739
0
LINE
8
BLACK
6
CONTINUOUS
10
1.48071
20
-3.57739
11
1.47904
21
-3.57669
0
LINE
8
BLACK
6
CONTINUOUS
10
1.47904
20
-3.57669
11
1.47835
21
-3.57502
0
LINE
8
BLACK
6
CONTINUOUS
10
1.47835
20
-3.57502
11
1.47835
21
-3.56395
0
LINE
8
BLACK
6
CONTINUOUS
10
1.47835
20
-3.56395
11
1.47904
21
-3.56228
0
LINE
8
BLACK
6
CONTINUOUS
10
1.47904
20
-3.56228
11
1.48071
21
-3.56159
0
LINE
8
BLACK
6
CONTINUOUS
10
1.48071
20
-3.56159
11
1.48238
21
-3.56228
0
LINE
8
BLACK
6
CONTINUOUS
10
1.52254
20
-3.56228
11
1.52323
21
-3.56395
0
LINE
8
BLACK
6
CONTINUOUS
10
1.52323
20
-3.56395
11
1.52323
21
-3.57502
0
LINE
8
BLACK
6
CONTINUOUS
10
1.52323
20
-3.57502
11
1.52254
21
-3.57669
0
LINE
8
BLACK
6
CONTINUOUS
10
1.52254
20
-3.57669
11
1.52087
21
-3.57739
0
LINE
8
BLACK
6
CONTINUOUS
10
1.52087
20
-3.57739
11
1.5192
21
-3.57669
0
LINE
8
BLACK
6
CONTINUOUS
10
1.5192
20
-3.57669
11
1.5185
21
-3.57502
0
LINE
8
BLACK
6
CONTINUOUS
10
1.5185
20
-3.57502
11
1.5185
21
-3.56395
0
LINE
8
BLACK
6
CONTINUOUS
10
1.5185
20
-3.56395
11
1.5192
21
-3.56228
0
LINE
8
BLACK
6
CONTINUOUS
10
1.5192
20
-3.56228
11
1.52087
21
-3.56159
0
LINE
8
BLACK
6
CONTINUOUS
10
1.52087
20
-3.56159
11
1.52254
21
-3.56228
0
LINE
8
BLACK
6
CONTINUOUS
10
1.73159
20
-3.56091
11
1.73228
21
-3.56258
0
LINE
8
BLACK
6
CONTINUOUS
10
1.73228
20
-3.56258
11
1.73228
21
-3.57364
0
LINE
8
BLACK
6
CONTINUOUS
10
1.73228
20
-3.57364
11
1.73159
21
-3.57532
0
LINE
8
BLACK
6
CONTINUOUS
10
1.73159
20
-3.57532
11
1.72992
21
-3.57601
0
LINE
8
BLACK
6
CONTINUOUS
10
1.72992
20
-3.57601
11
1.72825
21
-3.57532
0
LINE
8
BLACK
6
CONTINUOUS
10
1.72825
20
-3.57532
11
1.72756
21
-3.57364
0
LINE
8
BLACK
6
CONTINUOUS
10
1.72756
20
-3.57364
11
1.72756
21
-3.56258
0
LINE
8
BLACK
6
CONTINUOUS
10
1.72756
20
-3.56258
11
1.72825
21
-3.56091
0
LINE
8
BLACK
6
CONTINUOUS
10
1.72825
20
-3.56091
11
1.72992
21
-3.56021
0
LINE
8
BLACK
6
CONTINUOUS
10
1.72992
20
-3.56021
11
1.73159
21
-3.56091
0
LINE
8
BLACK
6
CONTINUOUS
10
1.77175
20
-3.56091
11
1.77244
21
-3.56258
0
LINE
8
BLACK
6
CONTINUOUS
10
1.77244
20
-3.56258
11
1.77244
21
-3.57364
0
LINE
8
BLACK
6
CONTINUOUS
10
1.77244
20
-3.57364
11
1.77175
21
-3.57532
0
LINE
8
BLACK
6
CONTINUOUS
10
1.77175
20
-3.57532
11
1.77008
21
-3.57601
0
LINE
8
BLACK
6
CONTINUOUS
10
1.77008
20
-3.57601
11
1.76841
21
-3.57532
0
LINE
8
BLACK
6
CONTINUOUS
10
1.76841
20
-3.57532
11
1.76772
21
-3.57364
0
LINE
8
BLACK
6
CONTINUOUS
10
1.76772
20
-3.57364
11
1.76772
21
-3.56258
0
LINE
8
BLACK
6
CONTINUOUS
10
1.76772
20
-3.56258
11
1.76841
21
-3.56091
0
LINE
8
BLACK
6
CONTINUOUS
10
1.76841
20
-3.56091
11
1.77008
21
-3.56021
0
LINE
8
BLACK
6
CONTINUOUS
10
1.77008
20
-3.56021
11
1.77175
21
-3.56091
0
LINE
8
BLACK
6
CONTINUOUS
10
1.31789
20
-2.24746
11
2.30608
21
-2.24746
0
LINE
8
BLACK
6
CONTINUOUS
10
2.30608
20
-2.24746
11
2.30749
21
-2.24766
0
LINE
8
BLACK
6
CONTINUOUS
10
2.30749
20
-2.24766
11
2.3078
21
-2.24786
0
LINE
8
BLACK
6
CONTINUOUS
10
2.3078
20
-2.24786
11
2.30816
21
-2.24791
0
LINE
8
BLACK
6
CONTINUOUS
10
2.30816
20
-2.24791
11
2.30897
21
-2.24861
0
LINE
8
BLACK
6
CONTINUOUS
10
2.30897
20
-2.24861
11
2.30986
21
-2.24919
0
LINE
8
BLACK
6
CONTINUOUS
10
2.30986
20
-2.24919
11
2.31001
21
-2.24952
0
LINE
8
BLACK
6
CONTINUOUS
10
2.31001
20
-2.24952
11
2.31029
21
-2.24976
0
LINE
8
BLACK
6
CONTINUOUS
10
2.31029
20
-2.24976
11
2.31059
21
-2.25078
0
LINE
8
BLACK
6
CONTINUOUS
10
2.31059
20
-2.25078
11
2.31103
21
-2.25175
0
LINE
8
BLACK
6
CONTINUOUS
10
2.31103
20
-2.25175
11
2.31098
21
-2.25211
0
LINE
8
BLACK
6
CONTINUOUS
10
2.31098
20
-2.25211
11
2.31108
21
-2.25246
0
LINE
8
BLACK
6
CONTINUOUS
10
2.31108
20
-2.25246
11
2.31108
21
-2.906
0
LINE
8
BLACK
6
CONTINUOUS
10
2.31108
20
-2.906
11
2.31088
21
-2.90741
0
LINE
8
BLACK
6
CONTINUOUS
10
2.31088
20
-2.90741
11
2.31068
21
-2.90772
0
LINE
8
BLACK
6
CONTINUOUS
10
2.31068
20
-2.90772
11
2.31063
21
-2.90808
0
LINE
8
BLACK
6
CONTINUOUS
10
2.31063
20
-2.90808
11
2.30993
21
-2.90889
0
LINE
8
BLACK
6
CONTINUOUS
10
2.30993
20
-2.90889
11
2.30936
21
-2.90978
0
LINE
8
BLACK
6
CONTINUOUS
10
2.30936
20
-2.90978
11
2.30902
21
-2.90993
0
LINE
8
BLACK
6
CONTINUOUS
10
2.30902
20
-2.90993
11
2.30879
21
-2.91021
0
LINE
8
BLACK
6
CONTINUOUS
10
2.30879
20
-2.91021
11
2.30776
21
-2.91051
0
LINE
8
BLACK
6
CONTINUOUS
10
2.30776
20
-2.91051
11
2.30679
21
-2.91095
0
LINE
8
BLACK
6
CONTINUOUS
10
2.30679
20
-2.91095
11
2.30643
21
-2.9109
0
LINE
8
BLACK
6
CONTINUOUS
10
2.30643
20
-2.9109
11
2.30608
21
-2.911
0
LINE
8
BLACK
6
CONTINUOUS
10
2.30608
20
-2.911
11
1.31002
21
-2.911
0
LINE
8
BLACK
6
CONTINUOUS
10
1.31002
20
-2.911
11
1.30861
21
-2.9108
0
LINE
8
BLACK
6
CONTINUOUS
10
1.30861
20
-2.9108
11
1.3083
21
-2.9106
0
LINE
8
BLACK
6
CONTINUOUS
10
1.3083
20
-2.9106
11
1.30794
21
-2.91055
0
LINE
8
BLACK
6
CONTINUOUS
10
1.30794
20
-2.91055
11
1.30714
21
-2.90985
0
LINE
8
BLACK
6
CONTINUOUS
10
1.30714
20
-2.90985
11
1.30624
21
-2.90928
0
LINE
8
BLACK
6
CONTINUOUS
10
1.30624
20
-2.90928
11
1.30609
21
-2.90895
0
LINE
8
BLACK
6
CONTINUOUS
10
1.30609
20
-2.90895
11
1.30581
21
-2.90871
0
LINE
8
BLACK
6
CONTINUOUS
10
1.30581
20
-2.90871
11
1.30551
21
-2.90768
0
LINE
8
BLACK
6
CONTINUOUS
10
1.30551
20
-2.90768
11
1.30507
21
-2.90672
0
LINE
8
BLACK
6
CONTINUOUS
10
1.30507
20
-2.90672
11
1.30512
21
-2.90635
0
LINE
8
BLACK
6
CONTINUOUS
10
1.30512
20
-2.90635
11
1.30502
21
-2.906
0
LINE
8
BLACK
6
CONTINUOUS
10
1.30502
20
-2.906
11
1.30502
21
-2.25847
0
LINE
8
BLACK
6
CONTINUOUS
10
1.30502
20
-2.25847
11
1.30255
21
-2.256
0
LINE
8
BLACK
6
CONTINUOUS
10
1.30255
20
-2.256
11
1.3024
21
-2.25579
0
LINE
8
BLACK
6
CONTINUOUS
10
1.3024
20
-2.25579
11
1.3023
21
-2.25573
0
LINE
8
BLACK
6
CONTINUOUS
10
1.3023
20
-2.25573
11
1.30223
21
-2.25557
0
LINE
8
BLACK
6
CONTINUOUS
10
1.30223
20
-2.25557
11
1.30169
21
-2.25486
0
LINE
8
BLACK
6
CONTINUOUS
10
1.30169
20
-2.25486
11
1.3015
21
-2.25398
0
LINE
8
BLACK
6
CONTINUOUS
10
1.3015
20
-2.25398
11
1.30113
21
-2.25317
0
LINE
8
BLACK
6
CONTINUOUS
10
1.30113
20
-2.25317
11
1.30121
21
-2.25263
0
LINE
8
BLACK
6
CONTINUOUS
10
1.30121
20
-2.25263
11
1.3011
21
-2.2521
0
LINE
8
BLACK
6
CONTINUOUS
10
1.3011
20
-2.2521
11
1.30141
21
-2.25127
0
LINE
8
BLACK
6
CONTINUOUS
10
1.30141
20
-2.25127
11
1.30153
21
-2.25038
0
LINE
8
BLACK
6
CONTINUOUS
10
1.30153
20
-2.25038
11
1.30189
21
-2.24997
0
LINE
8
BLACK
6
CONTINUOUS
10
1.30189
20
-2.24997
11
1.30208
21
-2.24946
0
LINE
8
BLACK
6
CONTINUOUS
10
1.30208
20
-2.24946
11
1.30279
21
-2.24893
0
LINE
8
BLACK
6
CONTINUOUS
10
1.30279
20
-2.24893
11
1.30338
21
-2.24825
0
LINE
8
BLACK
6
CONTINUOUS
10
1.30338
20
-2.24825
11
1.3039
21
-2.2481
0
LINE
8
BLACK
6
CONTINUOUS
10
1.3039
20
-2.2481
11
1.30434
21
-2.24778
0
LINE
8
BLACK
6
CONTINUOUS
10
1.30434
20
-2.24778
11
1.30523
21
-2.24771
0
LINE
8
BLACK
6
CONTINUOUS
10
1.30523
20
-2.24771
11
1.30608
21
-2.24746
0
LINE
8
BLACK
6
CONTINUOUS
10
1.30608
20
-2.24746
11
1.31789
21
-2.24746
0
LINE
8
BLACK
6
CONTINUOUS
10
1.33364
20
-2.25746
11
1.31789
21
-2.25746
0
LINE
8
BLACK
6
CONTINUOUS
10
1.31789
20
-2.25746
11
1.31502
21
-2.25746
0
LINE
8
BLACK
6
CONTINUOUS
10
1.31502
20
-2.25746
11
1.31502
21
-2.901
0
LINE
8
BLACK
6
CONTINUOUS
10
1.31502
20
-2.901
11
2.30108
21
-2.901
0
LINE
8
BLACK
6
CONTINUOUS
10
2.30108
20
-2.901
11
2.30108
21
-2.25746
0
LINE
8
BLACK
6
CONTINUOUS
10
2.30108
20
-2.25746
11
1.33364
21
-2.25746
0
LINE
8
BLACK
6
CONTINUOUS
10
2.3367
20
-2.2264
11
2.33701
21
-2.2266
0
LINE
8
BLACK
6
CONTINUOUS
10
2.33701
20
-2.2266
11
2.33737
21
-2.22665
0
LINE
8
BLACK
6
CONTINUOUS
10
2.33737
20
-2.22665
11
2.33818
21
-2.22735
0
LINE
8
BLACK
6
CONTINUOUS
10
2.33818
20
-2.22735
11
2.33907
21
-2.22793
0
LINE
8
BLACK
6
CONTINUOUS
10
2.33907
20
-2.22793
11
2.33923
21
-2.22826
0
LINE
8
BLACK
6
CONTINUOUS
10
2.33923
20
-2.22826
11
2.3395
21
-2.2285
0
LINE
8
BLACK
6
CONTINUOUS
10
2.3395
20
-2.2285
11
2.3398
21
-2.22952
0
LINE
8
BLACK
6
CONTINUOUS
10
2.3398
20
-2.22952
11
2.34024
21
-2.23049
0
LINE
8
BLACK
6
CONTINUOUS
10
2.34024
20
-2.23049
11
2.34019
21
-2.23085
0
LINE
8
BLACK
6
CONTINUOUS
10
2.34019
20
-2.23085
11
2.3403
21
-2.2312
0
LINE
8
BLACK
6
CONTINUOUS
10
2.3403
20
-2.2312
11
2.3403
21
-2.98947
0
LINE
8
BLACK
6
CONTINUOUS
10
2.3403
20
-2.98947
11
2.34009
21
-2.99088
0
LINE
8
BLACK
6
CONTINUOUS
10
2.34009
20
-2.99088
11
2.3399
21
-2.99118
0
LINE
8
BLACK
6
CONTINUOUS
10
2.3399
20
-2.99118
11
2.33984
21
-2.99155
0
LINE
8
BLACK
6
CONTINUOUS
10
2.33984
20
-2.99155
11
2.33915
21
-2.99235
0
LINE
8
BLACK
6
CONTINUOUS
10
2.33915
20
-2.99235
11
2.33857
21
-2.99325
0
LINE
8
BLACK
6
CONTINUOUS
10
2.33857
20
-2.99325
11
2.33824
21
-2.9934
0
LINE
8
BLACK
6
CONTINUOUS
10
2.33824
20
-2.9934
11
2.338
21
-2.99367
0
LINE
8
BLACK
6
CONTINUOUS
10
2.338
20
-2.99367
11
2.33698
21
-2.99397
0
LINE
8
BLACK
6
CONTINUOUS
10
2.33698
20
-2.99397
11
2.33601
21
-2.99442
0
LINE
8
BLACK
6
CONTINUOUS
10
2.33601
20
-2.99442
11
2.33565
21
-2.99437
0
LINE
8
BLACK
6
CONTINUOUS
10
2.33565
20
-2.99437
11
2.3353
21
-2.99447
0
LINE
8
BLACK
6
CONTINUOUS
10
2.3353
20
-2.99447
11
2.03943
21
-2.99447
0
LINE
8
BLACK
6
CONTINUOUS
10
2.03943
20
-2.99447
11
2.03943
21
-3.27108
0
LINE
8
BLACK
6
CONTINUOUS
10
2.03943
20
-3.27108
11
2.21972
21
-3.27108
0
LINE
8
BLACK
6
CONTINUOUS
10
2.21972
20
-3.27108
11
2.21989
21
-3.27081
0
LINE
8
BLACK
6
CONTINUOUS
10
2.21989
20
-3.27081
11
2.22246
21
-3.26964
0
LINE
8
BLACK
6
CONTINUOUS
10
2.22246
20
-3.26964
11
2.22525
21
-3.27004
0
LINE
8
BLACK
6
CONTINUOUS
10
2.22525
20
-3.27004
11
2.22738
21
-3.27188
0
LINE
8
BLACK
6
CONTINUOUS
10
2.22738
20
-3.27188
11
2.22817
21
-3.27459
0
LINE
8
BLACK
6
CONTINUOUS
10
2.22817
20
-3.27459
11
2.22817
21
-3.27497
0
LINE
8
BLACK
6
CONTINUOUS
10
2.22817
20
-3.27497
11
2.22835
21
-3.27537
0
LINE
8
BLACK
6
CONTINUOUS
10
2.22835
20
-3.27537
11
2.22817
21
-3.27666
0
LINE
8
BLACK
6
CONTINUOUS
10
2.22817
20
-3.27666
11
2.22817
21
-3.48719
0
LINE
8
BLACK
6
CONTINUOUS
10
2.22817
20
-3.48719
11
2.22797
21
-3.48859
0
LINE
8
BLACK
6
CONTINUOUS
10
2.22797
20
-3.48859
11
2.22644
21
-3.49096
0
LINE
8
BLACK
6
CONTINUOUS
10
2.22644
20
-3.49096
11
2.22388
21
-3.49213
0
LINE
8
BLACK
6
CONTINUOUS
10
2.22388
20
-3.49213
11
2.22109
21
-3.49173
0
LINE
8
BLACK
6
CONTINUOUS
10
2.22109
20
-3.49173
11
2.21896
21
-3.48989
0
LINE
8
BLACK
6
CONTINUOUS
10
2.21896
20
-3.48989
11
2.21817
21
-3.48719
0
LINE
8
BLACK
6
CONTINUOUS
10
2.21817
20
-3.48719
11
2.21817
21
-3.28108
0
LINE
8
BLACK
6
CONTINUOUS
10
2.21817
20
-3.28108
11
2.03443
21
-3.28108
0
LINE
8
BLACK
6
CONTINUOUS
10
2.03443
20
-3.28108
11
2.03302
21
-3.28088
0
LINE
8
BLACK
6
CONTINUOUS
10
2.03302
20
-3.28088
11
2.03271
21
-3.28068
0
LINE
8
BLACK
6
CONTINUOUS
10
2.03271
20
-3.28068
11
2.03235
21
-3.28063
0
LINE
8
BLACK
6
CONTINUOUS
10
2.03235
20
-3.28063
11
2.03155
21
-3.27993
0
LINE
8
BLACK
6
CONTINUOUS
10
2.03155
20
-3.27993
11
2.03065
21
-3.27936
0
LINE
8
BLACK
6
CONTINUOUS
10
2.03065
20
-3.27936
11
2.0305
21
-3.27902
0
LINE
8
BLACK
6
CONTINUOUS
10
2.0305
20
-3.27902
11
2.03022
21
-3.27879
0
LINE
8
BLACK
6
CONTINUOUS
10
2.03022
20
-3.27879
11
2.02992
21
-3.27776
0
LINE
8
BLACK
6
CONTINUOUS
10
2.02992
20
-3.27776
11
2.02948
21
-3.27679
0
LINE
8
BLACK
6
CONTINUOUS
10
2.02948
20
-3.27679
11
2.02953
21
-3.27643
0
LINE
8
BLACK
6
CONTINUOUS
10
2.02953
20
-3.27643
11
2.02943
21
-3.27608
0
LINE
8
BLACK
6
CONTINUOUS
10
2.02943
20
-3.27608
11
2.02943
21
-2.99447
0
LINE
8
BLACK
6
CONTINUOUS
10
2.02943
20
-2.99447
11
1.56305
21
-2.99447
0
LINE
8
BLACK
6
CONTINUOUS
10
1.56305
20
-2.99447
11
1.56305
21
-3.28002
0
LINE
8
BLACK
6
CONTINUOUS
10
1.56305
20
-3.28002
11
1.56285
21
-3.28143
0
LINE
8
BLACK
6
CONTINUOUS
10
1.56285
20
-3.28143
11
1.56265
21
-3.28174
0
LINE
8
BLACK
6
CONTINUOUS
10
1.56265
20
-3.28174
11
1.5626
21
-3.2821
0
LINE
8
BLACK
6
CONTINUOUS
10
1.5626
20
-3.2821
11
1.5619
21
-3.2829
0
LINE
8
BLACK
6
CONTINUOUS
10
1.5619
20
-3.2829
11
1.56133
21
-3.2838
0
LINE
8
BLACK
6
CONTINUOUS
10
1.56133
20
-3.2838
11
1.56099
21
-3.28395
0
LINE
8
BLACK
6
CONTINUOUS
10
1.56099
20
-3.28395
11
1.56075
21
-3.28423
0
LINE
8
BLACK
6
CONTINUOUS
10
1.56075
20
-3.28423
11
1.55973
21
-3.28453
0
LINE
8
BLACK
6
CONTINUOUS
10
1.55973
20
-3.28453
11
1.55876
21
-3.28497
0
LINE
8
BLACK
6
CONTINUOUS
10
1.55876
20
-3.28497
11
1.5584
21
-3.28492
0
LINE
8
BLACK
6
CONTINUOUS
10
1.5584
20
-3.28492
11
1.55805
21
-3.28502
0
LINE
8
BLACK
6
CONTINUOUS
10
1.55805
20
-3.28502
11
1.37778
21
-3.28502
0
LINE
8
BLACK
6
CONTINUOUS
10
1.37778
20
-3.28502
11
1.37778
21
-3.49112
0
LINE
8
BLACK
6
CONTINUOUS
10
1.37778
20
-3.49112
11
1.37757
21
-3.49253
0
LINE
8
BLACK
6
CONTINUOUS
10
1.37757
20
-3.49253
11
1.37605
21
-3.4949
0
LINE
8
BLACK
6
CONTINUOUS
10
1.37605
20
-3.4949
11
1.37349
21
-3.49607
0
LINE
8
BLACK
6
CONTINUOUS
10
1.37349
20
-3.49607
11
1.3707
21
-3.49567
0
LINE
8
BLACK
6
CONTINUOUS
10
1.3707
20
-3.49567
11
1.36857
21
-3.49383
0
LINE
8
BLACK
6
CONTINUOUS
10
1.36857
20
-3.49383
11
1.36778
21
-3.49112
0
LINE
8
BLACK
6
CONTINUOUS
10
1.36778
20
-3.49112
11
1.36778
21
-3.27852
0
LINE
8
BLACK
6
CONTINUOUS
10
1.36778
20
-3.27852
11
1.36798
21
-3.27711
0
LINE
8
BLACK
6
CONTINUOUS
10
1.36798
20
-3.27711
11
1.3695
21
-3.27474
0
LINE
8
BLACK
6
CONTINUOUS
10
1.3695
20
-3.27474
11
1.37206
21
-3.27357
0
LINE
8
BLACK
6
CONTINUOUS
10
1.37206
20
-3.27357
11
1.37485
21
-3.27398
0
LINE
8
BLACK
6
CONTINUOUS
10
1.37485
20
-3.27398
11
1.37606
21
-3.27502
0
LINE
8
BLACK
6
CONTINUOUS
10
1.37606
20
-3.27502
11
1.55305
21
-3.27502
0
LINE
8
BLACK
6
CONTINUOUS
10
1.55305
20
-3.27502
11
1.55305
21
-2.99447
0
LINE
8
BLACK
6
CONTINUOUS
10
1.55305
20
-2.99447
11
1.28411
21
-2.99447
0
LINE
8
BLACK
6
CONTINUOUS
10
1.28411
20
-2.99447
11
1.28271
21
-2.99427
0
LINE
8
BLACK
6
CONTINUOUS
10
1.28271
20
-2.99427
11
1.2824
21
-2.99407
0
LINE
8
BLACK
6
CONTINUOUS
10
1.2824
20
-2.99407
11
1.28204
21
-2.99402
0
LINE
8
BLACK
6
CONTINUOUS
10
1.28204
20
-2.99402
11
1.28123
21
-2.99332
0
LINE
8
BLACK
6
CONTINUOUS
10
1.28123
20
-2.99332
11
1.28034
21
-2.99274
0
LINE
8
BLACK
6
CONTINUOUS
10
1.28034
20
-2.99274
11
1.28018
21
-2.99241
0
LINE
8
BLACK
6
CONTINUOUS
10
1.28018
20
-2.99241
11
1.27991
21
-2.99217
0
LINE
8
BLACK
6
CONTINUOUS
10
1.27991
20
-2.99217
11
1.27961
21
-2.99115
0
LINE
8
BLACK
6
CONTINUOUS
10
1.27961
20
-2.99115
11
1.27917
21
-2.99018
0
LINE
8
BLACK
6
CONTINUOUS
10
1.27917
20
-2.99018
11
1.27922
21
-2.98982
0
LINE
8
BLACK
6
CONTINUOUS
10
1.27922
20
-2.98982
11
1.27911
21
-2.98947
0
LINE
8
BLACK
6
CONTINUOUS
10
1.27911
20
-2.98947
11
1.27911
21
-2.2312
0
LINE
8
BLACK
6
CONTINUOUS
10
1.27911
20
-2.2312
11
1.27932
21
-2.22979
0
LINE
8
BLACK
6
CONTINUOUS
10
1.27932
20
-2.22979
11
1.27951
21
-2.22948
0
LINE
8
BLACK
6
CONTINUOUS
10
1.27951
20
-2.22948
11
1.27957
21
-2.22912
0
LINE
8
BLACK
6
CONTINUOUS
10
1.27957
20
-2.22912
11
1.28026
21
-2.22832
0
LINE
8
BLACK
6
CONTINUOUS
10
1.28026
20
-2.22832
11
1.28084
21
-2.22742
0
LINE
8
BLACK
6
CONTINUOUS
10
1.28084
20
-2.22742
11
1.28117
21
-2.22727
0
LINE
8
BLACK
6
CONTINUOUS
10
1.28117
20
-2.22727
11
1.28141
21
-2.22699
0
LINE
8
BLACK
6
CONTINUOUS
10
1.28141
20
-2.22699
11
1.28243
21
-2.22669
0
LINE
8
BLACK
6
CONTINUOUS
10
1.28243
20
-2.22669
11
1.2834
21
-2.22625
0
LINE
8
BLACK
6
CONTINUOUS
10
1.2834
20
-2.22625
11
1.28376
21
-2.2263
0
LINE
8
BLACK
6
CONTINUOUS
10
1.28376
20
-2.2263
11
1.28411
21
-2.2262
0
LINE
8
BLACK
6
CONTINUOUS
10
1.28411
20
-2.2262
11
2.3353
21
-2.2262
0
LINE
8
BLACK
6
CONTINUOUS
10
2.3353
20
-2.2262
11
2.3367
21
-2.2264
0
LINE
8
BLACK
6
CONTINUOUS
10
1.28911
20
-2.2362
11
1.28911
21
-2.98447
0
LINE
8
BLACK
6
CONTINUOUS
10
1.28911
20
-2.98447
11
1.55573
21
-2.98447
0
LINE
8
BLACK
6
CONTINUOUS
10
1.55573
20
-2.98447
11
1.55734
21
-2.98373
0
LINE
8
BLACK
6
CONTINUOUS
10
1.55734
20
-2.98373
11
1.56013
21
-2.98413
0
LINE
8
BLACK
6
CONTINUOUS
10
1.56013
20
-2.98413
11
1.56052
21
-2.98447
0
LINE
8
BLACK
6
CONTINUOUS
10
1.56052
20
-2.98447
11
2.3303
21
-2.98447
0
LINE
8
BLACK
6
CONTINUOUS
10
2.3303
20
-2.98447
11
2.3303
21
-2.2362
0
LINE
8
BLACK
6
CONTINUOUS
10
2.3303
20
-2.2362
11
1.28911
21
-2.2362
0
LINE
8
BLACK
6
CONTINUOUS
10
1.1875
20
-3.36654
11
1.18819
21
-3.36821
0
LINE
8
BLACK
6
CONTINUOUS
10
1.18819
20
-3.36821
11
1.18819
21
-3.37927
0
LINE
8
BLACK
6
CONTINUOUS
10
1.18819
20
-3.37927
11
1.1875
21
-3.38095
0
LINE
8
BLACK
6
CONTINUOUS
10
1.1875
20
-3.38095
11
1.18583
21
-3.38164
0
LINE
8
BLACK
6
CONTINUOUS
10
1.18583
20
-3.38164
11
1.18416
21
-3.38095
0
LINE
8
BLACK
6
CONTINUOUS
10
1.18416
20
-3.38095
11
1.18346
21
-3.37927
0
LINE
8
BLACK
6
CONTINUOUS
10
1.18346
20
-3.37927
11
1.18346
21
-3.36821
0
LINE
8
BLACK
6
CONTINUOUS
10
1.18346
20
-3.36821
11
1.18416
21
-3.36654
0
LINE
8
BLACK
6
CONTINUOUS
10
1.18416
20
-3.36654
11
1.18583
21
-3.36584
0
LINE
8
BLACK
6
CONTINUOUS
10
1.18583
20
-3.36584
11
1.1875
21
-3.36654
0
LINE
8
BLACK
6
CONTINUOUS
10
1.22765
20
-3.36654
11
1.22835
21
-3.36821
0
LINE
8
BLACK
6
CONTINUOUS
10
1.22835
20
-3.36821
11
1.22835
21
-3.37927
0
LINE
8
BLACK
6
CONTINUOUS
10
1.22835
20
-3.37927
11
1.22765
21
-3.38095
0
LINE
8
BLACK
6
CONTINUOUS
10
1.22765
20
-3.38095
11
1.22598
21
-3.38164
0
LINE
8
BLACK
6
CONTINUOUS
10
1.22598
20
-3.38164
11
1.22431
21
-3.38095
0
LINE
8
BLACK
6
CONTINUOUS
10
1.22431
20
-3.38095
11
1.22362
21
-3.37927
0
LINE
8
BLACK
6
CONTINUOUS
10
1.22362
20
-3.37927
11
1.22362
21
-3.36821
0
LINE
8
BLACK
6
CONTINUOUS
10
1.22362
20
-3.36821
11
1.22431
21
-3.36654
0
LINE
8
BLACK
6
CONTINUOUS
10
1.22431
20
-3.36654
11
1.22598
21
-3.36584
0
LINE
8
BLACK
6
CONTINUOUS
10
1.22598
20
-3.36584
11
1.22765
21
-3.36654
0
LINE
8
BLACK
6
CONTINUOUS
10
1.24813
20
-3.36654
11
1.24882
21
-3.36821
0
LINE
8
BLACK
6
CONTINUOUS
10
1.24882
20
-3.36821
11
1.24882
21
-3.37927
0
LINE
8
BLACK
6
CONTINUOUS
10
1.24882
20
-3.37927
11
1.24813
21
-3.38095
0
LINE
8
BLACK
6
CONTINUOUS
10
1.24813
20
-3.38095
11
1.24646
21
-3.38164
0
LINE
8
BLACK
6
CONTINUOUS
10
1.24646
20
-3.38164
11
1.24479
21
-3.38095
0
LINE
8
BLACK
6
CONTINUOUS
10
1.24479
20
-3.38095
11
1.24409
21
-3.37927
0
LINE
8
BLACK
6
CONTINUOUS
10
1.24409
20
-3.37927
11
1.24409
21
-3.36821
0
LINE
8
BLACK
6
CONTINUOUS
10
1.24409
20
-3.36821
11
1.24479
21
-3.36654
0
LINE
8
BLACK
6
CONTINUOUS
10
1.24479
20
-3.36654
11
1.24646
21
-3.36584
0
LINE
8
BLACK
6
CONTINUOUS
10
1.24646
20
-3.36584
11
1.24813
21
-3.36654
0
LINE
8
BLACK
6
CONTINUOUS
10
1.28828
20
-3.36654
11
1.28898
21
-3.36821
0
LINE
8
BLACK
6
CONTINUOUS
10
1.28898
20
-3.36821
11
1.28898
21
-3.37927
0
LINE
8
BLACK
6
CONTINUOUS
10
1.28898
20
-3.37927
11
1.28828
21
-3.38095
0
LINE
8
BLACK
6
CONTINUOUS
10
1.28828
20
-3.38095
11
1.28661
21
-3.38164
0
LINE
8
BLACK
6
CONTINUOUS
10
1.28661
20
-3.38164
11
1.28494
21
-3.38095
0
LINE
8
BLACK
6
CONTINUOUS
10
1.28494
20
-3.38095
11
1.28425
21
-3.37927
0
LINE
8
BLACK
6
CONTINUOUS
10
1.28425
20
-3.37927
11
1.28425
21
-3.36821
0
LINE
8
BLACK
6
CONTINUOUS
10
1.28425
20
-3.36821
11
1.28494
21
-3.36654
0
LINE
8
BLACK
6
CONTINUOUS
10
1.28494
20
-3.36654
11
1.28661
21
-3.36584
0
LINE
8
BLACK
6
CONTINUOUS
10
1.28661
20
-3.36584
11
1.28828
21
-3.36654
0
LINE
8
BLACK
6
CONTINUOUS
10
2.0004
20
-3.27129
11
2.00277
21
-3.27281
0
LINE
8
BLACK
6
CONTINUOUS
10
2.00277
20
-3.27281
11
2.00395
21
-3.27537
0
LINE
8
BLACK
6
CONTINUOUS
10
2.00395
20
-3.27537
11
2.00354
21
-3.27816
0
LINE
8
BLACK
6
CONTINUOUS
10
2.00354
20
-3.27816
11
2.0017
21
-3.28029
0
LINE
8
BLACK
6
CONTINUOUS
10
2.0017
20
-3.28029
11
1.999
21
-3.28108
0
LINE
8
BLACK
6
CONTINUOUS
10
1.999
20
-3.28108
11
1.59742
21
-3.28108
0
LINE
8
BLACK
6
CONTINUOUS
10
1.59742
20
-3.28108
11
1.59601
21
-3.28088
0
LINE
8
BLACK
6
CONTINUOUS
10
1.59601
20
-3.28088
11
1.59364
21
-3.27936
0
LINE
8
BLACK
6
CONTINUOUS
10
1.59364
20
-3.27936
11
1.59247
21
-3.27679
0
LINE
8
BLACK
6
CONTINUOUS
10
1.59247
20
-3.27679
11
1.59287
21
-3.27401
0
LINE
8
BLACK
6
CONTINUOUS
10
1.59287
20
-3.27401
11
1.59472
21
-3.27188
0
LINE
8
BLACK
6
CONTINUOUS
10
1.59472
20
-3.27188
11
1.59742
21
-3.27108
0
LINE
8
BLACK
6
CONTINUOUS
10
1.59742
20
-3.27108
11
1.999
21
-3.27108
0
LINE
8
BLACK
6
CONTINUOUS
10
1.999
20
-3.27108
11
2.0004
21
-3.27129
  0
ENDSEC
  0
EOF
