  0
SECTION
  2
HEADER
  9
$ANGBASE
  50
0.0
  9
$ANGDIR
  70
1
  9
$MEASUREMENT
  70
0
  0
ENDSEC
  0
SECTION
  2
TABLES
  0
TABLE
  2
LTYPE
  70
4
  0
LTYPE
  5
40F
  2
CONTINUOUS
  70
0
  3
Solid line
  72
65
  73
0
  40
0.0
  0
LTYPE
  5
410
  2
DASHDOT
 70
0
  3
Dash Dot ____ _ ____ _
 72
65
 73
4
 40
2.0
 49
1.25
 49
-0.25
 49
0.25
 49
-0.25
  0
LTYPE
  5
411
  2
DASHED
 70
0
  3
Dashed __ __ __ __ __
 72
65
 73
2
 40
0.75
 49
0.5
 49
-0.25
  0
LTYPE
  5
43B
  2
DOTTED
 70
0
  3
Dotted .  .  .  .
 72
65
 73
2
 40
0.2
 49
0.0
 49
-0.2
  0
ENDTAB
  0
TABLE
  2
STYLE
  70
4
  0
STYLE
  2
KICAD
  70
0
  40
0
  41
1
  42
1
  50
0
  71
0
  3
isocp.shx
  0
STYLE
  2
KICADB
  70
0
  40
0
  41
1
  42
1
  50
0
  71
0
  3
isocp.shx
  0
STYLE
  2
KICADI
  70
0
  40
0
  41
1
  42
1
  50
15
  71
0
  3
isocp.shx
  0
STYLE
  2
KICADBI
  70
0
  40
0
  41
1
  42
1
  50
15
  71
0
  3
isocp.shx
  0
ENDTAB
  0
TABLE
  2
LAYER
  70
1
  0
LAYER
  2
BLACK
  70
0
  62
7
  6
CONTINUOUS
  0
ENDTAB
  0
ENDSEC
  0
SECTION
  2
ENTITIES
0
LINE
8
BLACK
6
CONTINUOUS
10
1.33474
20
-4.37657
11
1.33641
21
-4.37727
0
LINE
8
BLACK
6
CONTINUOUS
10
1.33641
20
-4.37727
11
1.33711
21
-4.37894
0
LINE
8
BLACK
6
CONTINUOUS
10
1.33711
20
-4.37894
11
1.33711
21
-4.43681
0
LINE
8
BLACK
6
CONTINUOUS
10
1.33711
20
-4.43681
11
1.33641
21
-4.43848
0
LINE
8
BLACK
6
CONTINUOUS
10
1.33641
20
-4.43848
11
1.33474
21
-4.43917
0
LINE
8
BLACK
6
CONTINUOUS
10
1.33474
20
-4.43917
11
1.24478
21
-4.43917
0
LINE
8
BLACK
6
CONTINUOUS
10
1.24478
20
-4.43917
11
1.24311
21
-4.43848
0
LINE
8
BLACK
6
CONTINUOUS
10
1.24311
20
-4.43848
11
1.24242
21
-4.43681
0
LINE
8
BLACK
6
CONTINUOUS
10
1.24242
20
-4.43681
11
1.24311
21
-4.43514
0
LINE
8
BLACK
6
CONTINUOUS
10
1.24311
20
-4.43514
11
1.24478
21
-4.43445
0
LINE
8
BLACK
6
CONTINUOUS
10
1.24478
20
-4.43445
11
1.33238
21
-4.43445
0
LINE
8
BLACK
6
CONTINUOUS
10
1.33238
20
-4.43445
11
1.33238
21
-4.3813
0
LINE
8
BLACK
6
CONTINUOUS
10
1.33238
20
-4.3813
11
1.24478
21
-4.3813
0
LINE
8
BLACK
6
CONTINUOUS
10
1.24478
20
-4.3813
11
1.24311
21
-4.38061
0
LINE
8
BLACK
6
CONTINUOUS
10
1.24311
20
-4.38061
11
1.24242
21
-4.37894
0
LINE
8
BLACK
6
CONTINUOUS
10
1.24242
20
-4.37894
11
1.24311
21
-4.37727
0
LINE
8
BLACK
6
CONTINUOUS
10
1.24311
20
-4.37727
11
1.24478
21
-4.37657
0
LINE
8
BLACK
6
CONTINUOUS
10
1.24478
20
-4.37657
11
1.33474
21
-4.37657
0
LINE
8
BLACK
6
CONTINUOUS
10
1.19182
20
-3.30544
11
1.19252
21
-3.30736
0
LINE
8
BLACK
6
CONTINUOUS
10
1.19252
20
-3.30736
11
1.19252
21
-3.43146
0
LINE
8
BLACK
6
CONTINUOUS
10
1.19252
20
-3.43146
11
1.19234
21
-3.43248
0
LINE
8
BLACK
6
CONTINUOUS
10
1.19234
20
-3.43248
11
1.19102
21
-3.43405
0
LINE
8
BLACK
6
CONTINUOUS
10
1.19102
20
-3.43405
11
1.18901
21
-3.4344
0
LINE
8
BLACK
6
CONTINUOUS
10
1.18901
20
-3.4344
11
1.18724
21
-3.43338
0
LINE
8
BLACK
6
CONTINUOUS
10
1.18724
20
-3.43338
11
1.18654
21
-3.43146
0
LINE
8
BLACK
6
CONTINUOUS
10
1.18654
20
-3.43146
11
1.18654
21
-3.30736
0
LINE
8
BLACK
6
CONTINUOUS
10
1.18654
20
-3.30736
11
1.18672
21
-3.30634
0
LINE
8
BLACK
6
CONTINUOUS
10
1.18672
20
-3.30634
11
1.18803
21
-3.30477
0
LINE
8
BLACK
6
CONTINUOUS
10
1.18803
20
-3.30477
11
1.19005
21
-3.30442
0
LINE
8
BLACK
6
CONTINUOUS
10
1.19005
20
-3.30442
11
1.19182
21
-3.30544
0
LINE
8
BLACK
6
CONTINUOUS
10
1.2608
20
-3.30544
11
1.2615
21
-3.30736
0
LINE
8
BLACK
6
CONTINUOUS
10
1.2615
20
-3.30736
11
1.2615
21
-3.43146
0
LINE
8
BLACK
6
CONTINUOUS
10
1.2615
20
-3.43146
11
1.26132
21
-3.43248
0
LINE
8
BLACK
6
CONTINUOUS
10
1.26132
20
-3.43248
11
1.26
21
-3.43405
0
LINE
8
BLACK
6
CONTINUOUS
10
1.26
20
-3.43405
11
1.25798
21
-3.4344
0
LINE
8
BLACK
6
CONTINUOUS
10
1.25798
20
-3.4344
11
1.25621
21
-3.43338
0
LINE
8
BLACK
6
CONTINUOUS
10
1.25621
20
-3.43338
11
1.25551
21
-3.43146
0
LINE
8
BLACK
6
CONTINUOUS
10
1.25551
20
-3.43146
11
1.25551
21
-3.30736
0
LINE
8
BLACK
6
CONTINUOUS
10
1.25551
20
-3.30736
11
1.25569
21
-3.30634
0
LINE
8
BLACK
6
CONTINUOUS
10
1.25569
20
-3.30634
11
1.25701
21
-3.30477
0
LINE
8
BLACK
6
CONTINUOUS
10
1.25701
20
-3.30477
11
1.25902
21
-3.30442
0
LINE
8
BLACK
6
CONTINUOUS
10
1.25902
20
-3.30442
11
1.2608
21
-3.30544
0
LINE
8
BLACK
6
CONTINUOUS
10
1.20728
20
-3.28634
11
1.20945
21
-3.2885
0
LINE
8
BLACK
6
CONTINUOUS
10
1.20945
20
-3.2885
11
1.21024
21
-3.29146
0
LINE
8
BLACK
6
CONTINUOUS
10
1.21024
20
-3.29146
11
1.20945
21
-3.29441
0
LINE
8
BLACK
6
CONTINUOUS
10
1.20945
20
-3.29441
11
1.20728
21
-3.29657
0
LINE
8
BLACK
6
CONTINUOUS
10
1.20728
20
-3.29657
11
1.20433
21
-3.29736
0
LINE
8
BLACK
6
CONTINUOUS
10
1.20433
20
-3.29736
11
1.20138
21
-3.29657
0
LINE
8
BLACK
6
CONTINUOUS
10
1.20138
20
-3.29657
11
1.19922
21
-3.29441
0
LINE
8
BLACK
6
CONTINUOUS
10
1.19922
20
-3.29441
11
1.19843
21
-3.29146
0
LINE
8
BLACK
6
CONTINUOUS
10
1.19843
20
-3.29146
11
1.19922
21
-3.2885
0
LINE
8
BLACK
6
CONTINUOUS
10
1.19922
20
-3.2885
11
1.20138
21
-3.28634
0
LINE
8
BLACK
6
CONTINUOUS
10
1.20138
20
-3.28634
11
1.20433
21
-3.28555
0
LINE
8
BLACK
6
CONTINUOUS
10
1.20433
20
-3.28555
11
1.20728
21
-3.28634
  0
ENDSEC
  0
EOF
