  0
SECTION
  2
HEADER
  9
$ANGBASE
  50
0.0
  9
$ANGDIR
  70
1
  9
$MEASUREMENT
  70
0
  0
ENDSEC
  0
SECTION
  2
TABLES
  0
TABLE
  2
LTYPE
  70
4
  0
LTYPE
  5
40F
  2
CONTINUOUS
  70
0
  3
Solid line
  72
65
  73
0
  40
0.0
  0
LTYPE
  5
410
  2
DASHDOT
 70
0
  3
Dash Dot ____ _ ____ _
 72
65
 73
4
 40
2.0
 49
1.25
 49
-0.25
 49
0.25
 49
-0.25
  0
LTYPE
  5
411
  2
DASHED
 70
0
  3
Dashed __ __ __ __ __
 72
65
 73
2
 40
0.75
 49
0.5
 49
-0.25
  0
LTYPE
  5
43B
  2
DOTTED
 70
0
  3
Dotted .  .  .  .
 72
65
 73
2
 40
0.2
 49
0.0
 49
-0.2
  0
ENDTAB
  0
TABLE
  2
STYLE
  70
4
  0
STYLE
  2
KICAD
  70
0
  40
0
  41
1
  42
1
  50
0
  71
0
  3
isocp.shx
  0
STYLE
  2
KICADB
  70
0
  40
0
  41
1
  42
1
  50
0
  71
0
  3
isocp.shx
  0
STYLE
  2
KICADI
  70
0
  40
0
  41
1
  42
1
  50
15
  71
0
  3
isocp.shx
  0
STYLE
  2
KICADBI
  70
0
  40
0
  41
1
  42
1
  50
15
  71
0
  3
isocp.shx
  0
ENDTAB
  0
TABLE
  2
LAYER
  70
1
  0
LAYER
  2
BLACK
  70
0
  62
7
  6
CONTINUOUS
  0
ENDTAB
  0
ENDSEC
  0
SECTION
  2
ENTITIES
0
LINE
8
BLACK
6
CONTINUOUS
10
1.25718
20
-4.38983
11
1.25998
21
-4.3917
0
LINE
8
BLACK
6
CONTINUOUS
10
1.25998
20
-4.3917
11
1.26184
21
-4.39449
0
LINE
8
BLACK
6
CONTINUOUS
10
1.26184
20
-4.39449
11
1.2625
21
-4.39779
0
LINE
8
BLACK
6
CONTINUOUS
10
1.2625
20
-4.39779
11
1.2625
21
-4.41796
0
LINE
8
BLACK
6
CONTINUOUS
10
1.2625
20
-4.41796
11
1.26184
21
-4.42126
0
LINE
8
BLACK
6
CONTINUOUS
10
1.26184
20
-4.42126
11
1.25998
21
-4.42405
0
LINE
8
BLACK
6
CONTINUOUS
10
1.25998
20
-4.42405
11
1.25718
21
-4.42592
0
LINE
8
BLACK
6
CONTINUOUS
10
1.25718
20
-4.42592
11
1.25389
21
-4.42657
0
LINE
8
BLACK
6
CONTINUOUS
10
1.25389
20
-4.42657
11
1.23666
21
-4.42657
0
LINE
8
BLACK
6
CONTINUOUS
10
1.23666
20
-4.42657
11
1.23337
21
-4.42592
0
LINE
8
BLACK
6
CONTINUOUS
10
1.23337
20
-4.42592
11
1.23057
21
-4.42405
0
LINE
8
BLACK
6
CONTINUOUS
10
1.23057
20
-4.42405
11
1.22871
21
-4.42126
0
LINE
8
BLACK
6
CONTINUOUS
10
1.22871
20
-4.42126
11
1.22805
21
-4.41796
0
LINE
8
BLACK
6
CONTINUOUS
10
1.22805
20
-4.41796
11
1.22805
21
-4.39779
0
LINE
8
BLACK
6
CONTINUOUS
10
1.22805
20
-4.39779
11
1.22871
21
-4.39449
0
LINE
8
BLACK
6
CONTINUOUS
10
1.22871
20
-4.39449
11
1.23057
21
-4.3917
0
LINE
8
BLACK
6
CONTINUOUS
10
1.23057
20
-4.3917
11
1.23337
21
-4.38983
0
LINE
8
BLACK
6
CONTINUOUS
10
1.23337
20
-4.38983
11
1.23666
21
-4.38917
0
LINE
8
BLACK
6
CONTINUOUS
10
1.23666
20
-4.38917
11
1.25389
21
-4.38917
0
LINE
8
BLACK
6
CONTINUOUS
10
1.25389
20
-4.38917
11
1.25718
21
-4.38983
0
LINE
8
BLACK
6
CONTINUOUS
10
1.31919
20
-4.38983
11
1.32199
21
-4.3917
0
LINE
8
BLACK
6
CONTINUOUS
10
1.32199
20
-4.3917
11
1.32385
21
-4.39449
0
LINE
8
BLACK
6
CONTINUOUS
10
1.32385
20
-4.39449
11
1.32451
21
-4.39779
0
LINE
8
BLACK
6
CONTINUOUS
10
1.32451
20
-4.39779
11
1.32451
21
-4.41796
0
LINE
8
BLACK
6
CONTINUOUS
10
1.32451
20
-4.41796
11
1.32385
21
-4.42126
0
LINE
8
BLACK
6
CONTINUOUS
10
1.32385
20
-4.42126
11
1.32199
21
-4.42405
0
LINE
8
BLACK
6
CONTINUOUS
10
1.32199
20
-4.42405
11
1.31919
21
-4.42592
0
LINE
8
BLACK
6
CONTINUOUS
10
1.31919
20
-4.42592
11
1.3159
21
-4.42657
0
LINE
8
BLACK
6
CONTINUOUS
10
1.3159
20
-4.42657
11
1.29867
21
-4.42657
0
LINE
8
BLACK
6
CONTINUOUS
10
1.29867
20
-4.42657
11
1.29538
21
-4.42592
0
LINE
8
BLACK
6
CONTINUOUS
10
1.29538
20
-4.42592
11
1.29258
21
-4.42405
0
LINE
8
BLACK
6
CONTINUOUS
10
1.29258
20
-4.42405
11
1.29071
21
-4.42126
0
LINE
8
BLACK
6
CONTINUOUS
10
1.29071
20
-4.42126
11
1.29006
21
-4.41796
0
LINE
8
BLACK
6
CONTINUOUS
10
1.29006
20
-4.41796
11
1.29006
21
-4.39779
0
LINE
8
BLACK
6
CONTINUOUS
10
1.29006
20
-4.39779
11
1.29071
21
-4.39449
0
LINE
8
BLACK
6
CONTINUOUS
10
1.29071
20
-4.39449
11
1.29258
21
-4.3917
0
LINE
8
BLACK
6
CONTINUOUS
10
1.29258
20
-4.3917
11
1.29538
21
-4.38983
0
LINE
8
BLACK
6
CONTINUOUS
10
1.29538
20
-4.38983
11
1.29867
21
-4.38917
0
LINE
8
BLACK
6
CONTINUOUS
10
1.29867
20
-4.38917
11
1.3159
21
-4.38917
0
LINE
8
BLACK
6
CONTINUOUS
10
1.3159
20
-4.38917
11
1.31919
21
-4.38983
0
LINE
8
BLACK
6
CONTINUOUS
10
1.20984
20
-3.43553
11
1.19882
21
-3.43553
0
LINE
8
BLACK
6
CONTINUOUS
10
1.19882
20
-3.43553
11
1.19882
21
-3.41565
0
LINE
8
BLACK
6
CONTINUOUS
10
1.19882
20
-3.41565
11
1.20984
21
-3.41565
0
LINE
8
BLACK
6
CONTINUOUS
10
1.20984
20
-3.41565
11
1.20984
21
-3.43553
0
LINE
8
BLACK
6
CONTINUOUS
10
1.22953
20
-3.43553
11
1.2185
21
-3.43553
0
LINE
8
BLACK
6
CONTINUOUS
10
1.2185
20
-3.43553
11
1.2185
21
-3.41565
0
LINE
8
BLACK
6
CONTINUOUS
10
1.2185
20
-3.41565
11
1.22953
21
-3.41565
0
LINE
8
BLACK
6
CONTINUOUS
10
1.22953
20
-3.41565
11
1.22953
21
-3.43553
0
LINE
8
BLACK
6
CONTINUOUS
10
1.24921
20
-3.43553
11
1.23819
21
-3.43553
0
LINE
8
BLACK
6
CONTINUOUS
10
1.23819
20
-3.43553
11
1.23819
21
-3.41565
0
LINE
8
BLACK
6
CONTINUOUS
10
1.23819
20
-3.41565
11
1.24921
21
-3.41565
0
LINE
8
BLACK
6
CONTINUOUS
10
1.24921
20
-3.41565
11
1.24921
21
-3.43553
0
LINE
8
BLACK
6
CONTINUOUS
10
1.24764
20
-3.39894
11
1.20039
21
-3.39894
0
LINE
8
BLACK
6
CONTINUOUS
10
1.20039
20
-3.39894
11
1.20039
21
-3.33988
0
LINE
8
BLACK
6
CONTINUOUS
10
1.20039
20
-3.33988
11
1.24764
21
-3.33988
0
LINE
8
BLACK
6
CONTINUOUS
10
1.24764
20
-3.33988
11
1.24764
21
-3.39894
0
LINE
8
BLACK
6
CONTINUOUS
10
1.20984
20
-3.32317
11
1.19882
21
-3.32317
0
LINE
8
BLACK
6
CONTINUOUS
10
1.19882
20
-3.32317
11
1.19882
21
-3.30329
0
LINE
8
BLACK
6
CONTINUOUS
10
1.19882
20
-3.30329
11
1.20984
21
-3.30329
0
LINE
8
BLACK
6
CONTINUOUS
10
1.20984
20
-3.30329
11
1.20984
21
-3.32317
0
LINE
8
BLACK
6
CONTINUOUS
10
1.22953
20
-3.32317
11
1.2185
21
-3.32317
0
LINE
8
BLACK
6
CONTINUOUS
10
1.2185
20
-3.32317
11
1.2185
21
-3.30329
0
LINE
8
BLACK
6
CONTINUOUS
10
1.2185
20
-3.30329
11
1.22953
21
-3.30329
0
LINE
8
BLACK
6
CONTINUOUS
10
1.22953
20
-3.30329
11
1.22953
21
-3.32317
0
LINE
8
BLACK
6
CONTINUOUS
10
1.24921
20
-3.32317
11
1.23819
21
-3.32317
0
LINE
8
BLACK
6
CONTINUOUS
10
1.23819
20
-3.32317
11
1.23819
21
-3.30329
0
LINE
8
BLACK
6
CONTINUOUS
10
1.23819
20
-3.30329
11
1.24921
21
-3.30329
0
LINE
8
BLACK
6
CONTINUOUS
10
1.24921
20
-3.30329
11
1.24921
21
-3.32317
  0
ENDSEC
  0
EOF
